0
SECTION
2
HEADER
9
$INSUNITS
70
1
9
$ACADVER
1
AC1014
9
$HANDSEED
5
FFFF
0
ENDSEC
0
SECTION
2
TABLES
0
TABLE
2
VPORT
5
8
100
AcDbSymbolTable
0
ENDTAB
0
TABLE
2
LTYPE
5
5
100
AcDbSymbolTable
0
LTYPE
5
14
100
AcDbSymbolTableRecord
100
AcDbLinetypeTableRecord
2
BYBLOCK
70
0
0
LTYPE
5
15
100
AcDbSymbolTableRecord
100
AcDbLinetypeTableRecord
2
BYLAYER
70
0
0
ENDTAB
0
TABLE
2
LAYER
5
2
100
AcDbSymbolTable
70
2
0
LAYER
5
50
100
AcDbSymbolTableRecord
100
AcDbLayerTableRecord
2
0
70
0
6
CONTINUOUS
0
ENDTAB
0
TABLE
2
STYLE
5
3
100
AcDbSymbolTable
70
1
0
STYLE
5
11
100
AcDbSymbolTableRecord
100
AcDbTextStyleTableRecord
2
STANDARD
70
0
0
ENDTAB
0
TABLE
2
VIEW
5
6
100
AcDbSymbolTable
70
0
0
ENDTAB
0
TABLE
2
UCS
5
7
100
AcDbSymbolTable
70
0
0
ENDTAB
0
TABLE
2
APPID
5
9
100
AcDbSymbolTable
70
2
0
APPID
5
12
100
AcDbSymbolTableRecord
100
AcDbRegAppTableRecord
2
ACAD
70
0
0
ENDTAB
0
TABLE
2
DIMSTYLE
5
A
100
AcDbSymbolTable
70
1
0
ENDTAB
0
TABLE
2
BLOCK_RECORD
5
1
100
AcDbSymbolTable
70
1
0
BLOCK_RECORD
5
1F
100
AcDbSymbolTableRecord
100
AcDbBlockTableRecord
2
*MODEL_SPACE
0
BLOCK_RECORD
5
1B
100
AcDbSymbolTableRecord
100
AcDbBlockTableRecord
2
*PAPER_SPACE
0
ENDTAB
0
ENDSEC
0
SECTION
2
BLOCKS
0
BLOCK
5
20
100
AcDbEntity
100
AcDbBlockBegin
2
*MODEL_SPACE
0
ENDBLK
5
21
100
AcDbEntity
100
AcDbBlockEnd
0
BLOCK
5
1C
100
AcDbEntity
100
AcDbBlockBegin
2
*PAPER_SPACE
0
ENDBLK
5
1D
100
AcDbEntity
100
AcDbBlockEnd
0
ENDSEC
0
SECTION
2
ENTITIES
0
LWPOLYLINE
5
100
100
AcDbEntity
8
OUTER_PROFILES
100
AcDbPolyline
90
15
70
1
43
0.0
10
11.754365349156346
20
10.421522866382134
10
11.754365349156346
20
15.486989579568437
10
10.851826989831491
20
15.815486677646136
10
0
20
15.815486677646136
10
-0.77162915305680291
20
15.455670094320093
10
-1.0206396793621204
20
10.704266205205192
10
-1.0337416241828814
20
10.421522866382134
10
-1.0337416241828814
20
5.3939638112640242
10
-1.0206396793621204
20
5.1112204724409454
10
-0.77162915305680291
20
0.35981658332604488
10
0
20
0
10
10.851826989831491
20
0
10
11.754365349156346
20
0.32849709807770239
10
11.754365349156346
20
5.3939638112640242
10
11.75436534915635
20
5.5524283781931576
0
LWPOLYLINE
5
101
100
AcDbEntity
8
INTERIOR_PROFILES
100
AcDbPolyline
90
11
70
1
43
0.0
10
2.5913979110326495
20
11.303281794216229
10
2.5943121753267526
20
11.481399667405043
10
2.6904338615976107
20
11.537753660131219
10
2.7892031985596821
20
11.592323438342826
10
2.8872966543422662
20
11.536558150716953
10
2.983940089937144
20
11.478306313285952
10
2.9846926788894388
20
11.365469726822472
10
2.9825668737867663
20
11.252650692209711
10
2.9787993047295851
20
11.250441850818337
10
2.7856539021886313
20
11.143103386107104
10
2.5916908592705776
20
11.259359704903682
0
LWPOLYLINE
5
102
100
AcDbEntity
8
INTERIOR_PROFILES
100
AcDbPolyline
90
11
70
1
43
0.0
10
7.214787760456348
20
11.773024645949624
10
7.0208247175382938
20
11.889280964746202
10
7.0205317693003666
20
11.933203054058749
10
7.0234460335944693
20
12.111320927247563
10
7.1195677198653273
20
12.16767491997374
10
7.2183370568273988
20
12.222244698185346
10
7.3164305126099825
20
12.166479410559473
10
7.4130739482048611
20
12.108227573128472
10
7.4138265371571554
20
11.995390986664992
10
7.4117007320544825
20
11.882571952052231
10
7.4079331629973026
20
11.880363110660857
0
LWPOLYLINE
5
103
100
AcDbEntity
8
INTERIOR_PROFILES
100
AcDbPolyline
90
11
70
1
43
0.0
10
7.214787760456348
20
13.032867165634663
10
7.0208247175382938
20
13.149123484431243
10
7.0205317693003666
20
13.19304557374379
10
7.0234460335944693
20
13.371163446932604
10
7.1195677198653273
20
13.42751743965878
10
7.2183370568273988
20
13.482087217870385
10
7.3164305126099825
20
13.426321930244514
10
7.4130739482048611
20
13.368070092813513
10
7.4138265371571554
20
13.255233506350033
10
7.4117007320544825
20
13.14241447173727
10
7.4079331629973026
20
13.140205630345896
0
LWPOLYLINE
5
104
100
AcDbEntity
8
INTERIOR_PROFILES
100
AcDbPolyline
90
11
70
1
43
0.0
10
5.7384098077004433
20
12.402945905792144
10
5.5444467647823883
20
12.519202224588723
10
5.5441538165444593
20
12.56312431390127
10
5.5470680808385646
20
12.741242187090084
10
5.6431897671094218
20
12.79759617981626
10
5.7419591040714932
20
12.852165958027864
10
5.8400525598540769
20
12.796400670401994
10
5.9366959954489547
20
12.738148832970992
10
5.937448584401249
20
12.625312246507512
10
5.9353227792985779
20
12.51249321189475
10
5.9315552102413962
20
12.510284370503378
0
LWPOLYLINE
5
105
100
AcDbEntity
8
INTERIOR_PROFILES
100
AcDbPolyline
90
11
70
1
43
0.0
10
6.4765987840783952
20
12.402945905792144
10
6.2826357411603411
20
12.519202224588723
10
6.282342792922412
20
12.56312431390127
10
6.2852570572165165
20
12.741242187090084
10
6.3813787434873745
20
12.79759617981626
10
6.480148080449446
20
12.852165958027864
10
6.5782415362320297
20
12.796400670401994
10
6.6748849718269074
20
12.738148832970992
10
6.6756375607792018
20
12.625312246507512
10
6.6735117556765307
20
12.51249321189475
10
6.669744186619349
20
12.510284370503378
0
LWPOLYLINE
5
106
100
AcDbEntity
8
INTERIOR_PROFILES
100
AcDbPolyline
90
11
70
1
43
0.0
10
9.4293546895902072
20
12.402945905792144
10
9.2353916466721522
20
12.519202224588723
10
9.2350986984342249
20
12.56312431390127
10
9.2380129627283285
20
12.741242187090084
10
9.3341346489991857
20
12.79759617981626
10
9.4329039859612571
20
12.852165958027864
10
9.5309974417438408
20
12.796400670401994
10
9.6276408773387203
20
12.738148832970992
10
9.6283934662910138
20
12.625312246507512
10
9.6262676611883418
20
12.51249321189475
10
9.6225000921311601
20
12.510284370503378
0
LWPOLYLINE
5
107
100
AcDbEntity
8
INTERIOR_PROFILES
100
AcDbPolyline
90
6
70
1
43
0.0
10
1.0846658290352114
20
13.021729849378064
10
1.0854786076345182
20
12.862619646402111
10
0.94809151915569634
20
12.78236065799948
10
0.80989165207756764
20
12.861211872572806
10
0.80907887347826057
20
13.020322075548759
10
0.94646596195708221
20
13.10058106395139
0
LWPOLYLINE
5
108
100
AcDbEntity
8
INTERIOR_PROFILES
100
AcDbPolyline
90
6
70
1
43
0.0
10
6.2457252420631288
20
13.021729849378064
10
6.2465380206624346
20
12.862619646402111
10
6.1091509321836126
20
12.78236065799948
10
5.9709510651054849
20
12.861211872572806
10
5.9701382865061774
20
13.020322075548759
10
6.1075253749849994
20
13.10058106395139
0
LWPOLYLINE
5
109
100
AcDbEntity
8
INTERIOR_PROFILES
100
AcDbPolyline
90
6
70
1
43
0.0
10
6.9830194439242588
20
13.021729849378064
10
6.9838322225235663
20
12.862619646402111
10
6.8464451340447443
20
12.78236065799948
10
6.7082452669666148
20
12.861211872572806
10
6.7074324883673091
20
13.020322075548759
10
6.8448195768461311
20
13.10058106395139
0
LWPOLYLINE
5
110
100
AcDbEntity
8
INTERIOR_PROFILES
100
AcDbPolyline
90
11
70
1
43
0.0
10
2.047464925810679
20
13.032867165634663
10
1.8535018828926244
20
13.149123484431243
10
1.8532089346546965
20
13.19304557374379
10
1.8561231989488001
20
13.371163446932604
10
1.9522448852196581
20
13.42751743965878
10
2.0510142221817294
20
13.482087217870385
10
2.1491076779643139
20
13.426321930244514
10
2.2457511135591912
20
13.368070092813513
10
2.246503702511486
20
13.255233506350033
10
2.2443778974088135
20
13.14241447173727
10
2.2406103283516323
20
13.140205630345896
0
LWPOLYLINE
5
111
100
AcDbEntity
8
INTERIOR_PROFILES
100
AcDbPolyline
90
11
70
1
43
0.0
10
6.4765987840783952
20
14.292709685319702
10
6.2826357411603411
20
14.408966004116284
10
6.282342792922412
20
14.452888093428827
10
6.2852570572165165
20
14.631005966617645
10
6.3813787434873745
20
14.687359959343818
10
6.480148080449446
20
14.741929737555424
10
6.5782415362320297
20
14.686164449929555
10
6.6748849718269074
20
14.62791261249855
10
6.6756375607792018
20
14.51507602603507
10
6.6735117556765307
20
14.402256991422309
10
6.669744186619349
20
14.400048150030935
0
LWPOLYLINE
5
112
100
AcDbEntity
8
INTERIOR_PROFILES
100
AcDbPolyline
90
6
70
1
43
0.0
10
5.5084310402019971
20
13.651651109220584
10
5.5092438188013046
20
13.492540906244631
10
5.3718567303224827
20
13.412281917842
10
5.2336568632443532
20
13.491133132415326
10
5.2328440846450466
20
13.650243335391279
10
5.3702311731238686
20
13.73050232379391
0
LWPOLYLINE
5
113
100
AcDbEntity
8
INTERIOR_PROFILES
100
AcDbPolyline
90
6
70
1
43
0.0
10
6.2457252420631288
20
12.391808589535543
10
6.2465380206624346
20
12.232698386559591
10
6.1091509321836126
20
12.152439398156959
10
5.9709510651054849
20
12.231290612730286
10
5.9701382865061774
20
12.39040081570624
10
6.1075253749849994
20
12.47065980410887
0
LWPOLYLINE
5
114
100
AcDbEntity
8
INTERIOR_PROFILES
100
AcDbPolyline
90
11
70
1
43
0.0
10
5.7384098077004433
20
14.292709685319702
10
5.5444467647823883
20
14.408966004116284
10
5.5441538165444593
20
14.452888093428827
10
5.5470680808385646
20
14.631005966617645
10
5.6431897671094218
20
14.687359959343818
10
5.7419591040714932
20
14.741929737555424
10
5.8400525598540769
20
14.686164449929555
10
5.9366959954489547
20
14.62791261249855
10
5.937448584401249
20
14.51507602603507
10
5.9353227792985779
20
14.402256991422309
10
5.9315552102413962
20
14.400048150030935
0
LWPOLYLINE
5
115
100
AcDbEntity
8
INTERIOR_PROFILES
100
AcDbPolyline
90
11
70
1
43
0.0
10
2.7856539021886313
20
14.292709685319702
10
2.5916908592705776
20
14.408966004116284
10
2.5913979110326495
20
14.452888093428827
10
2.5943121753267526
20
14.631005966617645
10
2.6904338615976107
20
14.687359959343818
10
2.7892031985596821
20
14.741929737555424
10
2.8872966543422662
20
14.686164449929555
10
2.983940089937144
20
14.62791261249855
10
2.9846926788894388
20
14.51507602603507
10
2.9825668737867663
20
14.402256991422309
10
2.9787993047295851
20
14.400048150030935
0
LWPOLYLINE
5
116
100
AcDbEntity
8
INTERIOR_PROFILES
100
AcDbPolyline
90
6
70
1
43
0.0
10
8.4576078476465213
20
14.281572369063104
10
8.4584206262458288
20
14.122462166087148
10
8.3210335377670059
20
14.04220317768452
10
8.1828336706888773
20
14.121054392257843
10
8.1820208920895716
20
14.280164595233799
10
8.3194079805683909
20
14.360423583636431
0
LWPOLYLINE
5
117
100
AcDbEntity
8
INTERIOR_PROFILES
100
AcDbPolyline
90
11
70
1
43
0.0
10
9.4293546895902072
20
13.662788425477183
10
9.2353916466721522
20
13.779044744273763
10
9.2350986984342249
20
13.82296683358631
10
9.2380129627283285
20
14.001084706775124
10
9.3341346489991857
20
14.057438699501301
10
9.4329039859612571
20
14.112008477712905
10
9.5309974417438408
20
14.056243190087034
10
9.6276408773387203
20
13.99799135265603
10
9.6283934662910138
20
13.885154766192553
10
9.6262676611883418
20
13.772335731579789
10
9.6225000921311601
20
13.770126890188415
0
LWPOLYLINE
5
118
100
AcDbEntity
8
INTERIOR_PROFILES
100
AcDbPolyline
90
6
70
1
43
0.0
10
2.5592542327574734
20
14.281572369063104
10
2.5600670113567805
20
14.122462166087148
10
2.4226799228779581
20
14.04220317768452
10
2.2844800557998295
20
14.121054392257843
10
2.2836672772005224
20
14.280164595233799
10
2.4210543656793444
20
14.360423583636431
0
LWPOLYLINE
5
119
100
AcDbEntity
8
INTERIOR_PROFILES
100
AcDbPolyline
90
11
70
1
43
0.0
10
4.2620318549445377
20
11.143103386107104
10
4.0680688120264827
20
11.259359704903682
10
4.0677758637885537
20
11.303281794216229
10
4.0706901280826591
20
11.481399667405043
10
4.1668118143535171
20
11.537753660131219
10
4.2655811513155886
20
11.592323438342826
10
4.3636746070981713
20
11.536558150716953
10
4.4603180426930491
20
11.478306313285952
10
4.4610706316453435
20
11.365469726822472
10
4.4589448265426723
20
11.252650692209711
10
4.4551772574854906
20
11.250441850818337
0
LWPOLYLINE
5
120
100
AcDbEntity
8
INTERIOR_PROFILES
100
AcDbPolyline
90
6
70
1
43
0.0
10
6.9830194439242588
20
13.651651109220584
10
6.9838322225235663
20
13.492540906244631
10
6.8464451340447443
20
13.412281917842
10
6.7082452669666148
20
13.491133132415326
10
6.7074324883673091
20
13.650243335391279
10
6.8448195768461311
20
13.73050232379391
0
LWPOLYLINE
5
121
100
AcDbEntity
8
INTERIOR_PROFILES
100
AcDbPolyline
90
6
70
1
43
0.0
10
3.2965484346186043
20
11.761887329693023
10
3.2973612132179113
20
11.60277712671707
10
3.1599741247390893
20
11.522518138314439
10
3.0217742576609603
20
11.601369352887765
10
3.0209614790616537
20
11.76047955586372
10
3.1583485675404757
20
11.840738544266349
0
LWPOLYLINE
5
122
100
AcDbEntity
8
INTERIOR_PROFILES
100
AcDbPolyline
90
6
70
1
43
0.0
10
2.5592542327574734
20
13.651651109220584
10
2.5600670113567805
20
13.492540906244631
10
2.4226799228779581
20
13.412281917842
10
2.2844800557998295
20
13.491133132415326
10
2.2836672772005224
20
13.650243335391279
10
2.4210543656793444
20
13.73050232379391
0
LWPOLYLINE
5
123
100
AcDbEntity
8
INTERIOR_PROFILES
100
AcDbPolyline
90
11
70
1
43
0.0
10
5.0002208313224905
20
12.402945905792144
10
4.8062577884044355
20
12.519202224588723
10
4.8059648401665065
20
12.56312431390127
10
4.8088791044606118
20
12.741242187090084
10
4.9050007907314699
20
12.79759617981626
10
5.0037701276935413
20
12.852165958027864
10
5.1018635834761241
20
12.796400670401994
10
5.1985070190710019
20
12.738148832970992
10
5.1992596080232962
20
12.625312246507512
10
5.1971338029206251
20
12.51249321189475
10
5.1933662338634434
20
12.510284370503378
0
LWPOLYLINE
5
124
100
AcDbEntity
8
INTERIOR_PROFILES
100
AcDbPolyline
90
11
70
1
43
0.0
10
1.309275949432726
20
11.143103386107104
10
1.1153129065146719
20
11.259359704903682
10
1.1150199582767437
20
11.303281794216229
10
1.1179342225708473
20
11.481399667405043
10
1.2140559088417051
20
11.537753660131219
10
1.3128252458037768
20
11.592323438342826
10
1.4109187015863609
20
11.536558150716953
10
1.5075621371812384
20
11.478306313285952
10
1.5083147261335328
20
11.365469726822472
10
1.5061889210308606
20
11.252650692209711
10
1.5024213519736798
20
11.250441850818337
0
LWPOLYLINE
5
125
100
AcDbEntity
8
INTERIOR_PROFILES
100
AcDbPolyline
90
6
70
1
43
0.0
10
9.4256572438451318
20
5.9403110206780694
10
9.2683202121698862
20
6.0314800464694791
10
9.2686063887059031
20
6.2133224257519863
10
9.4262295969171639
20
6.3039957792430812
10
9.5835666285924113
20
6.2128267534516715
10
9.5832804520563961
20
6.0309843741691651
0
LWPOLYLINE
5
126
100
AcDbEntity
8
INTERIOR_PROFILES
100
AcDbPolyline
90
6
70
1
43
0.0
10
9.4264538600420664
20
6.4464971204956747
10
9.2691168283668208
20
6.5376661462870853
10
9.2694030049028378
20
6.7195085255695917
10
9.4270262131141003
20
6.8101818790606856
10
9.5843632447893459
20
6.719012853269275
10
9.5840770682533307
20
6.5371704739867695
0
LWPOLYLINE
5
127
100
AcDbEntity
8
INTERIOR_PROFILES
100
AcDbPolyline
90
6
70
1
43
0.0
10
9.427250476239001
20
6.9526832203132782
10
9.2699134445637554
20
7.043852246104688
10
9.2701996210997724
20
7.2256946253871952
10
9.4278228293110349
20
7.3163679788782909
10
9.5851598609862805
20
7.2251989530868803
10
9.5848736844502653
20
7.043356573804374
0
LWPOLYLINE
5
128
100
AcDbEntity
8
INTERIOR_PROFILES
100
AcDbPolyline
90
6
70
1
43
0.0
10
9.4296403248298084
20
8.4712415197660924
10
9.2723032931545628
20
8.5624105455575013
10
9.272589469690578
20
8.7442529248400085
10
9.4302126779018423
20
8.8349262783311033
10
9.5875497095770879
20
8.7437572525396927
10
9.5872635330410727
20
8.5619148732571855
0
LWPOLYLINE
5
129
100
AcDbEntity
8
INTERIOR_PROFILES
100
AcDbPolyline
90
6
70
1
43
0.0
10
9.430436941026743
20
8.9774276195836951
10
9.2730999093514974
20
9.0685966453751057
10
9.2733860858875126
20
9.2504390246576111
10
9.4310092940987769
20
9.341112378148706
10
9.5883463257740225
20
9.2499433523572971
10
9.5880601492380073
20
9.0681009730747899
0
LWPOLYLINE
5
130
100
AcDbEntity
8
INTERIOR_PROFILES
100
AcDbPolyline
90
6
70
1
43
0.0
10
9.4312335572236794
20
9.4836137194013013
10
9.2738965255484356
20
9.5747827451927101
10
9.2741827020844507
20
9.7566251244752173
10
9.4318059102957115
20
9.8472984779663122
10
9.5891429419709606
20
9.7561294521749016
10
9.5888567654349437
20
9.5742870728923961
0
LWPOLYLINE
5
131
100
AcDbEntity
8
INTERIOR_PROFILES
100
AcDbPolyline
90
6
70
1
43
0.0
10
8.9045833175623041
20
5.9411310667631501
10
8.7472462858870585
20
6.0323000925545598
10
8.7475324624230755
20
6.214142471837067
10
8.9051556706343362
20
6.304815825328161
10
9.0624927023095836
20
6.2136467995367513
10
9.0622065257735684
20
6.0318044202542449
0
LWPOLYLINE
5
132
100
AcDbEntity
8
INTERIOR_PROFILES
100
AcDbPolyline
90
6
70
1
43
0.0
10
8.9053799337592388
20
6.4473171665807545
10
8.7480429020839932
20
6.5384861923721651
10
8.7483290786200101
20
6.7203285716546723
10
8.9059522868312726
20
6.8110019251457663
10
9.0632893185065182
20
6.7198328993543566
10
9.0630031419705031
20
6.5379905200718493
0
LWPOLYLINE
5
133
100
AcDbEntity
8
INTERIOR_PROFILES
100
AcDbPolyline
90
11
70
1
43
0.0
10
4.0706901280826591
20
14.631005966617645
10
4.1668118143535171
20
14.687359959343818
10
4.2655811513155886
20
14.741929737555424
10
4.3636746070981713
20
14.686164449929555
10
4.4603180426930491
20
14.62791261249855
10
4.4610706316453435
20
14.51507602603507
10
4.4589448265426723
20
14.402256991422309
10
4.4551772574854906
20
14.400048150030935
10
4.2620318549445377
20
14.292709685319702
10
4.0680688120264827
20
14.408966004116284
10
4.0677758637885537
20
14.452888093428827
0
LWPOLYLINE
5
134
100
AcDbEntity
8
INTERIOR_PROFILES
100
AcDbPolyline
90
6
70
1
43
0.0
10
5.5084310402019971
20
13.021729849378064
10
5.5092438188013046
20
12.862619646402111
10
5.3718567303224827
20
12.78236065799948
10
5.2336568632443532
20
12.861211872572806
10
5.2328440846450466
20
13.020322075548759
10
5.3702311731238686
20
13.10058106395139
0
LWPOLYLINE
5
135
100
AcDbEntity
8
INTERIOR_PROFILES
100
AcDbPolyline
90
11
70
1
43
0.0
10
2.7856539021886313
20
12.402945905792144
10
2.5916908592705776
20
12.519202224588723
10
2.5913979110326495
20
12.56312431390127
10
2.5943121753267526
20
12.741242187090084
10
2.6904338615976107
20
12.79759617981626
10
2.7892031985596821
20
12.852165958027864
10
2.8872966543422662
20
12.796400670401994
10
2.983940089937144
20
12.738148832970992
10
2.9846926788894388
20
12.625312246507512
10
2.9825668737867663
20
12.51249321189475
10
2.9787993047295851
20
12.510284370503378
0
LWPOLYLINE
5
136
100
AcDbEntity
8
INTERIOR_PROFILES
100
AcDbPolyline
90
11
70
1
43
0.0
10
8.6911657132122535
20
12.402945905792144
10
8.4972026702941985
20
12.519202224588723
10
8.4969097220562713
20
12.56312431390127
10
8.4998239863503748
20
12.741242187090084
10
8.5959456726212338
20
12.79759617981626
10
8.6947150095833052
20
12.852165958027864
10
8.7928084653658871
20
12.796400670401994
10
8.8894519009607667
20
12.738148832970992
10
8.8902044899130601
20
12.625312246507512
10
8.8880786848103881
20
12.51249321189475
10
8.8843111157532082
20
12.510284370503378
0
LWPOLYLINE
5
137
100
AcDbEntity
8
INTERIOR_PROFILES
100
AcDbPolyline
90
6
70
1
43
0.0
10
4.0338426364797346
20
13.021729849378064
10
4.0346554150790421
20
12.862619646402111
10
3.8972683266002206
20
12.78236065799948
10
3.7590684595220916
20
12.861211872572806
10
3.7582556809227845
20
13.020322075548759
10
3.8956427694016065
20
13.10058106395139
0
LWPOLYLINE
5
138
100
AcDbEntity
8
INTERIOR_PROFILES
100
AcDbPolyline
90
11
70
1
43
0.0
10
7.214787760456348
20
13.662788425477183
10
7.0208247175382938
20
13.779044744273763
10
7.0205317693003666
20
13.82296683358631
10
7.0234460335944693
20
14.001084706775124
10
7.1195677198653273
20
14.057438699501301
10
7.2183370568273988
20
14.112008477712905
10
7.3164305126099825
20
14.056243190087034
10
7.4130739482048611
20
13.99799135265603
10
7.4138265371571554
20
13.885154766192553
10
7.4117007320544825
20
13.772335731579789
10
7.4079331629973026
20
13.770126890188415
0
LWPOLYLINE
5
139
100
AcDbEntity
8
INTERIOR_PROFILES
100
AcDbPolyline
90
6
70
1
43
0.0
10
3.2965484346186043
20
13.651651109220584
10
3.2973612132179113
20
13.492540906244631
10
3.1599741247390893
20
13.412281917842
10
3.0217742576609603
20
13.491133132415326
10
3.0209614790616537
20
13.650243335391279
10
3.1583485675404757
20
13.73050232379391
0
LWPOLYLINE
5
140
100
AcDbEntity
8
INTERIOR_PROFILES
100
AcDbPolyline
90
11
70
1
43
0.0
10
0.57108697305477341
20
11.143103386107104
10
0.37712393013671908
20
11.259359704903682
10
0.37683098189879094
20
11.303281794216229
10
0.37974524619289457
20
11.481399667405043
10
0.4758669324637525
20
11.537753660131219
10
0.57463626942582402
20
11.592323438342826
10
0.67272972520840812
20
11.536558150716953
10
0.76937316080328577
20
11.478306313285952
10
0.77012574975558012
20
11.365469726822472
10
0.76799994465290788
20
11.252650692209711
10
0.76423237559572721
20
11.250441850818337
0
LWPOLYLINE
5
141
100
AcDbEntity
8
INTERIOR_PROFILES
100
AcDbPolyline
90
6
70
1
43
0.0
10
1.8219600308963424
20
11.761887329693023
10
1.8227728094956492
20
11.60277712671707
10
1.6853857210168273
20
11.522518138314439
10
1.5471858539386985
20
11.601369352887765
10
1.5463730753393914
20
11.76047955586372
10
1.6837601638182134
20
11.840738544266349
0
LWPOLYLINE
5
142
100
AcDbEntity
8
INTERIOR_PROFILES
100
AcDbPolyline
90
11
70
1
43
0.0
10
1.309275949432726
20
11.773024645949624
10
1.1153129065146719
20
11.889280964746202
10
1.1150199582767437
20
11.933203054058749
10
1.1179342225708473
20
12.111320927247563
10
1.2140559088417051
20
12.16767491997374
10
1.3128252458037768
20
12.222244698185346
10
1.4109187015863609
20
12.166479410559473
10
1.5075621371812384
20
12.108227573128472
10
1.5083147261335328
20
11.995390986664992
10
1.5061889210308606
20
11.882571952052231
10
1.5024213519736798
20
11.880363110660857
0
LWPOLYLINE
5
143
100
AcDbEntity
8
INTERIOR_PROFILES
100
AcDbPolyline
90
6
70
1
43
0.0
10
9.1949020495076521
20
11.761887329693023
10
9.1957148281069596
20
11.60277712671707
10
9.0583277396281385
20
11.522518138314439
10
8.9201278725500082
20
11.601369352887765
10
8.9193150939507024
20
11.76047955586372
10
9.0567021824295235
20
11.840738544266349
0
LWPOLYLINE
5
144
100
AcDbEntity
8
INTERIOR_PROFILES
100
AcDbPolyline
90
11
70
1
43
0.0
10
8.6911657132122535
20
11.773024645949624
10
8.4972026702941985
20
11.889280964746202
10
8.4969097220562713
20
11.933203054058749
10
8.4998239863503748
20
12.111320927247563
10
8.5959456726212338
20
12.16767491997374
10
8.6947150095833052
20
12.222244698185346
10
8.7928084653658871
20
12.166479410559473
10
8.8894519009607667
20
12.108227573128472
10
8.8902044899130601
20
11.995390986664992
10
8.8880786848103881
20
11.882571952052231
10
8.8843111157532082
20
11.880363110660857
0
LWPOLYLINE
5
145
100
AcDbEntity
8
INTERIOR_PROFILES
100
AcDbPolyline
90
11
70
1
43
0.0
10
0.57108697305477341
20
14.292709685319702
10
0.37712393013671908
20
14.408966004116284
10
0.37683098189879094
20
14.452888093428827
10
0.37974524619289457
20
14.631005966617645
10
0.4758669324637525
20
14.687359959343818
10
0.57463626942582402
20
14.741929737555424
10
0.67272972520840812
20
14.686164449929555
10
0.76937316080328577
20
14.62791261249855
10
0.77012574975558012
20
14.51507602603507
10
0.76799994465290788
20
14.402256991422309
10
0.76423237559572721
20
14.400048150030935
0
LWPOLYLINE
5
146
100
AcDbEntity
8
INTERIOR_PROFILES
100
AcDbPolyline
90
11
70
1
43
0.0
10
1.309275949432726
20
14.292709685319702
10
1.1153129065146719
20
14.408966004116284
10
1.1150199582767437
20
14.452888093428827
10
1.1179342225708473
20
14.631005966617645
10
1.2140559088417051
20
14.687359959343818
10
1.3128252458037768
20
14.741929737555424
10
1.4109187015863609
20
14.686164449929555
10
1.5075621371812384
20
14.62791261249855
10
1.5083147261335328
20
14.51507602603507
10
1.5061889210308606
20
14.402256991422309
10
1.5024213519736798
20
14.400048150030935
0
LWPOLYLINE
5
147
100
AcDbEntity
8
INTERIOR_PROFILES
100
AcDbPolyline
90
6
70
1
43
0.0
10
7.7203136457853905
20
12.391808589535543
10
7.7211264243846971
20
12.232698386559591
10
7.583739335905876
20
12.152439398156959
10
7.4455394688277465
20
12.231290612730286
10
7.4447266902284408
20
12.39040081570624
10
7.582113778707261
20
12.47065980410887
0
LWPOLYLINE
5
148
100
AcDbEntity
8
INTERIOR_PROFILES
100
AcDbPolyline
90
6
70
1
43
0.0
10
4.0338426364797346
20
11.761887329693023
10
4.0346554150790421
20
11.60277712671707
10
3.8972683266002206
20
11.522518138314439
10
3.7590684595220916
20
11.601369352887765
10
3.7582556809227845
20
11.76047955586372
10
3.8956427694016065
20
11.840738544266349
0
LWPOLYLINE
5
149
100
AcDbEntity
8
INTERIOR_PROFILES
100
AcDbPolyline
90
6
70
1
43
0.0
10
6.9830194439242588
20
11.761887329693023
10
6.9838322225235663
20
11.60277712671707
10
6.8464451340447443
20
11.522518138314439
10
6.7082452669666148
20
11.601369352887765
10
6.7074324883673091
20
11.76047955586372
10
6.8448195768461311
20
11.840738544266349
0
LWPOLYLINE
5
150
100
AcDbEntity
8
INTERIOR_PROFILES
100
AcDbPolyline
90
6
70
1
43
0.0
10
4.7711368383408663
20
12.391808589535543
10
4.7719496169401729
20
12.232698386559591
10
4.634562528461351
20
12.152439398156959
10
4.4963626613832224
20
12.231290612730286
10
4.4955498827839149
20
12.39040081570624
10
4.6329369712627368
20
12.47065980410887
0
LWPOLYLINE
5
151
100
AcDbEntity
8
INTERIOR_PROFILES
100
AcDbPolyline
90
6
70
1
43
0.0
10
6.9830194439242588
20
12.391808589535543
10
6.9838322225235663
20
12.232698386559591
10
6.8464451340447443
20
12.152439398156959
10
6.7082452669666148
20
12.231290612730286
10
6.7074324883673091
20
12.39040081570624
10
6.8448195768461311
20
12.47065980410887
0
LWPOLYLINE
5
152
100
AcDbEntity
8
INTERIOR_PROFILES
100
AcDbPolyline
90
6
70
1
43
0.0
10
5.5084310402019971
20
11.761887329693023
10
5.5092438188013046
20
11.60277712671707
10
5.3718567303224827
20
11.522518138314439
10
5.2336568632443532
20
11.601369352887765
10
5.2328440846450466
20
11.76047955586372
10
5.3702311731238686
20
11.840738544266349
0
LWPOLYLINE
5
153
100
AcDbEntity
8
INTERIOR_PROFILES
100
AcDbPolyline
90
11
70
1
43
0.0
10
1.309275949432726
20
13.032867165634663
10
1.1153129065146719
20
13.149123484431243
10
1.1150199582767437
20
13.19304557374379
10
1.1179342225708473
20
13.371163446932604
10
1.2140559088417051
20
13.42751743965878
10
1.3128252458037768
20
13.482087217870385
10
1.4109187015863609
20
13.426321930244514
10
1.5075621371812384
20
13.368070092813513
10
1.5083147261335328
20
13.255233506350033
10
1.5061889210308606
20
13.14241447173727
10
1.5024213519736798
20
13.140205630345896
0
LWPOLYLINE
5
154
100
AcDbEntity
8
INTERIOR_PROFILES
100
AcDbPolyline
90
6
70
1
43
0.0
10
4.0338426364797346
20
12.391808589535543
10
4.0346554150790421
20
12.232698386559591
10
3.8972683266002206
20
12.152439398156959
10
3.7590684595220916
20
12.231290612730286
10
3.7582556809227845
20
12.39040081570624
10
3.8956427694016065
20
12.47065980410887
0
LWPOLYLINE
5
155
100
AcDbEntity
8
INTERIOR_PROFILES
100
AcDbPolyline
90
11
70
1
43
0.0
10
8.6911657132122535
20
14.292709685319702
10
8.4972026702941985
20
14.408966004116284
10
8.4969097220562713
20
14.452888093428827
10
8.4998239863503748
20
14.631005966617645
10
8.5959456726212338
20
14.687359959343818
10
8.6947150095833052
20
14.741929737555424
10
8.7928084653658871
20
14.686164449929555
10
8.8894519009607667
20
14.62791261249855
10
8.8902044899130601
20
14.51507602603507
10
8.8880786848103881
20
14.402256991422309
10
8.8843111157532082
20
14.400048150030935
0
LWPOLYLINE
5
156
100
AcDbEntity
8
INTERIOR_PROFILES
100
AcDbPolyline
90
11
70
1
43
0.0
10
7.9529767368343007
20
11.773024645949624
10
7.7590136939162466
20
11.889280964746202
10
7.7587207456783194
20
11.933203054058749
10
7.7616350099724221
20
12.111320927247563
10
7.8577566962432801
20
12.16767491997374
10
7.9565260332053516
20
12.222244698185346
10
8.0546194889879352
20
12.166479410559473
10
8.1512629245828148
20
12.108227573128472
10
8.1520155135351082
20
11.995390986664992
10
8.1498897084324362
20
11.882571952052231
10
8.1461221393752563
20
11.880363110660857
0
LWPOLYLINE
5
157
100
AcDbEntity
8
INTERIOR_PROFILES
100
AcDbPolyline
90
11
70
1
43
0.0
10
1.309275949432726
20
13.662788425477183
10
1.1153129065146719
20
13.779044744273763
10
1.1150199582767437
20
13.82296683358631
10
1.1179342225708473
20
14.001084706775124
10
1.2140559088417051
20
14.057438699501301
10
1.3128252458037768
20
14.112008477712905
10
1.4109187015863609
20
14.056243190087034
10
1.5075621371812384
20
13.99799135265603
10
1.5083147261335328
20
13.885154766192553
10
1.5061889210308606
20
13.772335731579789
10
1.5024213519736798
20
13.770126890188415
0
LWPOLYLINE
5
158
100
AcDbEntity
8
INTERIOR_PROFILES
100
AcDbPolyline
90
6
70
1
43
0.0
10
1.0846658290352114
20
14.281572369063104
10
1.0854786076345182
20
14.122462166087148
10
0.94809151915569634
20
14.04220317768452
10
0.80989165207756764
20
14.121054392257843
10
0.80907887347826057
20
14.280164595233799
10
0.94646596195708221
20
14.360423583636431
0
LWPOLYLINE
5
159
100
AcDbEntity
8
INTERIOR_PROFILES
100
AcDbPolyline
90
11
70
1
43
0.0
10
2.7856539021886313
20
11.773024645949624
10
2.5916908592705776
20
11.889280964746202
10
2.5913979110326495
20
11.933203054058749
10
2.5943121753267526
20
12.111320927247563
10
2.6904338615976107
20
12.16767491997374
10
2.7892031985596821
20
12.222244698185346
10
2.8872966543422662
20
12.166479410559473
10
2.983940089937144
20
12.108227573128472
10
2.9846926788894388
20
11.995390986664992
10
2.9825668737867663
20
11.882571952052231
10
2.9787993047295851
20
11.880363110660857
0
LWPOLYLINE
5
160
100
AcDbEntity
8
INTERIOR_PROFILES
100
AcDbPolyline
90
6
70
1
43
0.0
10
9.1949020495076521
20
12.391808589535543
10
9.1957148281069596
20
12.232698386559591
10
9.0583277396281385
20
12.152439398156959
10
8.9201278725500082
20
12.231290612730286
10
8.9193150939507024
20
12.39040081570624
10
9.0567021824295235
20
12.47065980410887
0
LWPOLYLINE
5
161
100
AcDbEntity
8
INTERIOR_PROFILES
100
AcDbPolyline
90
11
70
1
43
0.0
10
8.6911657132122535
20
11.143103386107104
10
8.4972026702941985
20
11.259359704903682
10
8.4969097220562713
20
11.303281794216229
10
8.4998239863503748
20
11.481399667405043
10
8.5959456726212338
20
11.537753660131219
10
8.6947150095833052
20
11.592323438342826
10
8.7928084653658871
20
11.536558150716953
10
8.8894519009607667
20
11.478306313285952
10
8.8902044899130601
20
11.365469726822472
10
8.8880786848103881
20
11.252650692209711
10
8.8843111157532082
20
11.250441850818337
0
LWPOLYLINE
5
162
100
AcDbEntity
8
INTERIOR_PROFILES
100
AcDbPolyline
90
6
70
1
43
0.0
10
1.0846658290352114
20
12.391808589535543
10
1.0854786076345182
20
12.232698386559591
10
0.94809151915569634
20
12.152439398156959
10
0.80989165207756764
20
12.231290612730286
10
0.80907887347826057
20
12.39040081570624
10
0.94646596195708221
20
12.47065980410887
0
LWPOLYLINE
5
163
100
AcDbEntity
8
INTERIOR_PROFILES
100
AcDbPolyline
90
11
70
1
43
0.0
10
6.2826357411603411
20
11.889280964746202
10
6.282342792922412
20
11.933203054058749
10
6.2852570572165165
20
12.111320927247563
10
6.3813787434873745
20
12.16767491997374
10
6.480148080449446
20
12.222244698185346
10
6.5782415362320297
20
12.166479410559473
10
6.6748849718269074
20
12.108227573128472
10
6.6756375607792018
20
11.995390986664992
10
6.6735117556765307
20
11.882571952052231
10
6.669744186619349
20
11.880363110660857
10
6.4765987840783952
20
11.773024645949624
0
LWPOLYLINE
5
164
100
AcDbEntity
8
INTERIOR_PROFILES
100
AcDbPolyline
90
11
70
1
43
0.0
10
7.9529767368343007
20
13.662788425477183
10
7.7590136939162466
20
13.779044744273763
10
7.7587207456783194
20
13.82296683358631
10
7.7616350099724221
20
14.001084706775124
10
7.8577566962432801
20
14.057438699501301
10
7.9565260332053516
20
14.112008477712905
10
8.0546194889879352
20
14.056243190087034
10
8.1512629245828148
20
13.99799135265603
10
8.1520155135351082
20
13.885154766192553
10
8.1498897084324362
20
13.772335731579789
10
8.1461221393752563
20
13.770126890188415
0
LWPOLYLINE
5
165
100
AcDbEntity
8
INTERIOR_PROFILES
100
AcDbPolyline
90
6
70
1
43
0.0
10
6.2457252420631288
20
13.651651109220584
10
6.2465380206624346
20
13.492540906244631
10
6.1091509321836126
20
13.412281917842
10
5.9709510651054849
20
13.491133132415326
10
5.9701382865061774
20
13.650243335391279
10
6.1075253749849994
20
13.73050232379391
0
LWPOLYLINE
5
166
100
AcDbEntity
8
INTERIOR_PROFILES
100
AcDbPolyline
90
11
70
1
43
0.0
10
5.7384098077004433
20
11.143103386107104
10
5.5444467647823883
20
11.259359704903682
10
5.5441538165444593
20
11.303281794216229
10
5.5470680808385646
20
11.481399667405043
10
5.6431897671094218
20
11.537753660131219
10
5.7419591040714932
20
11.592323438342826
10
5.8400525598540769
20
11.536558150716953
10
5.9366959954489547
20
11.478306313285952
10
5.937448584401249
20
11.365469726822472
10
5.9353227792985779
20
11.252650692209711
10
5.9315552102413962
20
11.250441850818337
0
LWPOLYLINE
5
167
100
AcDbEntity
8
INTERIOR_PROFILES
100
AcDbPolyline
90
11
70
1
43
0.0
10
3.5238428785665841
20
13.662788425477183
10
3.3298798356485304
20
13.779044744273763
10
3.3295868874106023
20
13.82296683358631
10
3.3325011517047054
20
14.001084706775124
10
3.4286228379755634
20
14.057438699501301
10
3.5273921749376349
20
14.112008477712905
10
3.625485630720219
20
14.056243190087034
10
3.7221290663150963
20
13.99799135265603
10
3.7228816552673907
20
13.885154766192553
10
3.7207558501647187
20
13.772335731579789
10
3.7169882811075379
20
13.770126890188415
0
LWPOLYLINE
5
168
100
AcDbEntity
8
INTERIOR_PROFILES
100
AcDbPolyline
90
11
70
1
43
0.0
10
3.5238428785665841
20
14.292709685319702
10
3.3298798356485304
20
14.408966004116284
10
3.3295868874106023
20
14.452888093428827
10
3.3325011517047054
20
14.631005966617645
10
3.4286228379755634
20
14.687359959343818
10
3.5273921749376349
20
14.741929737555424
10
3.625485630720219
20
14.686164449929555
10
3.7221290663150963
20
14.62791261249855
10
3.7228816552673907
20
14.51507602603507
10
3.7207558501647187
20
14.402256991422309
10
3.7169882811075379
20
14.400048150030935
0
LWPOLYLINE
5
169
100
AcDbEntity
8
INTERIOR_PROFILES
100
AcDbPolyline
90
6
70
1
43
0.0
10
8.4576078476465213
20
13.651651109220584
10
8.4584206262458288
20
13.492540906244631
10
8.3210335377670059
20
13.412281917842
10
8.1828336706888773
20
13.491133132415326
10
8.1820208920895716
20
13.650243335391279
10
8.3194079805683909
20
13.73050232379391
0
LWPOLYLINE
5
170
100
AcDbEntity
8
INTERIOR_PROFILES
100
AcDbPolyline
90
11
70
1
43
0.0
10
0.57108697305477341
20
12.402945905792144
10
0.37712393013671908
20
12.519202224588723
10
0.37683098189879094
20
12.56312431390127
10
0.37974524619289457
20
12.741242187090084
10
0.4758669324637525
20
12.79759617981626
10
0.57463626942582402
20
12.852165958027864
10
0.67272972520840812
20
12.796400670401994
10
0.76937316080328577
20
12.738148832970992
10
0.77012574975558012
20
12.625312246507512
10
0.76799994465290788
20
12.51249321189475
10
0.76423237559572721
20
12.510284370503378
0
LWPOLYLINE
5
171
100
AcDbEntity
8
INTERIOR_PROFILES
100
AcDbPolyline
90
11
70
1
43
0.0
10
4.2620318549445377
20
12.402945905792144
10
4.0680688120264827
20
12.519202224588723
10
4.0677758637885537
20
12.56312431390127
10
4.0706901280826591
20
12.741242187090084
10
4.1668118143535171
20
12.79759617981626
10
4.2655811513155886
20
12.852165958027864
10
4.3636746070981713
20
12.796400670401994
10
4.4603180426930491
20
12.738148832970992
10
4.4610706316453435
20
12.625312246507512
10
4.4589448265426723
20
12.51249321189475
10
4.4551772574854906
20
12.510284370503378
0
LWPOLYLINE
5
172
100
AcDbEntity
8
INTERIOR_PROFILES
100
AcDbPolyline
90
6
70
1
43
0.0
10
1.0846658290352114
20
13.651651109220584
10
1.0854786076345182
20
13.492540906244631
10
0.94809151915569634
20
13.412281917842
10
0.80989165207756764
20
13.491133132415326
10
0.80907887347826057
20
13.650243335391279
10
0.94646596195708221
20
13.73050232379391
0
LWPOLYLINE
5
173
100
AcDbEntity
8
INTERIOR_PROFILES
100
AcDbPolyline
90
11
70
1
43
0.0
10
2.047464925810679
20
14.292709685319702
10
1.8535018828926244
20
14.408966004116284
10
1.8532089346546965
20
14.452888093428827
10
1.8561231989488001
20
14.631005966617645
10
1.9522448852196581
20
14.687359959343818
10
2.0510142221817294
20
14.741929737555424
10
2.1491076779643139
20
14.686164449929555
10
2.2457511135591912
20
14.62791261249855
10
2.246503702511486
20
14.51507602603507
10
2.2443778974088135
20
14.402256991422309
10
2.2406103283516323
20
14.400048150030935
0
LWPOLYLINE
5
174
100
AcDbEntity
8
INTERIOR_PROFILES
100
AcDbPolyline
90
11
70
1
43
0.0
10
5.0002208313224905
20
11.773024645949624
10
4.8062577884044355
20
11.889280964746202
10
4.8059648401665065
20
11.933203054058749
10
4.8088791044606118
20
12.111320927247563
10
4.9050007907314699
20
12.16767491997374
10
5.0037701276935413
20
12.222244698185346
10
5.1018635834761241
20
12.166479410559473
10
5.1985070190710019
20
12.108227573128472
10
5.1992596080232962
20
11.995390986664992
10
5.1971338029206251
20
11.882571952052231
10
5.1933662338634434
20
11.880363110660857
0
LWPOLYLINE
5
175
100
AcDbEntity
8
INTERIOR_PROFILES
100
AcDbPolyline
90
6
70
1
43
0.0
10
3.2965484346186043
20
12.391808589535543
10
3.2973612132179113
20
12.232698386559591
10
3.1599741247390893
20
12.152439398156959
10
3.0217742576609603
20
12.231290612730286
10
3.0209614790616537
20
12.39040081570624
10
3.1583485675404757
20
12.47065980410887
0
LWPOLYLINE
5
176
100
AcDbEntity
8
INTERIOR_PROFILES
100
AcDbPolyline
90
11
70
1
43
0.0
10
5.0002208313224905
20
13.032867165634663
10
4.8062577884044355
20
13.149123484431243
10
4.8059648401665065
20
13.19304557374379
10
4.8088791044606118
20
13.371163446932604
10
4.9050007907314699
20
13.42751743965878
10
5.0037701276935413
20
13.482087217870385
10
5.1018635834761241
20
13.426321930244514
10
5.1985070190710019
20
13.368070092813513
10
5.1992596080232962
20
13.255233506350033
10
5.1971338029206251
20
13.14241447173727
10
5.1933662338634434
20
13.140205630345896
0
LWPOLYLINE
5
177
100
AcDbEntity
8
INTERIOR_PROFILES
100
AcDbPolyline
90
11
70
1
43
0.0
10
5.7384098077004433
20
13.032867165634663
10
5.5444467647823883
20
13.149123484431243
10
5.5441538165444593
20
13.19304557374379
10
5.5470680808385646
20
13.371163446932604
10
5.6431897671094218
20
13.42751743965878
10
5.7419591040714932
20
13.482087217870385
10
5.8400525598540769
20
13.426321930244514
10
5.9366959954489547
20
13.368070092813513
10
5.937448584401249
20
13.255233506350033
10
5.9353227792985779
20
13.14241447173727
10
5.9315552102413962
20
13.140205630345896
0
LWPOLYLINE
5
178
100
AcDbEntity
8
INTERIOR_PROFILES
100
AcDbPolyline
90
11
70
1
43
0.0
10
5.7384098077004433
20
13.662788425477183
10
5.5444467647823883
20
13.779044744273763
10
5.5441538165444593
20
13.82296683358631
10
5.5470680808385646
20
14.001084706775124
10
5.6431897671094218
20
14.057438699501301
10
5.7419591040714932
20
14.112008477712905
10
5.8400525598540769
20
14.056243190087034
10
5.9366959954489547
20
13.99799135265603
10
5.937448584401249
20
13.885154766192553
10
5.9353227792985779
20
13.772335731579789
10
5.9315552102413962
20
13.770126890188415
0
LWPOLYLINE
5
179
100
AcDbEntity
8
INTERIOR_PROFILES
100
AcDbPolyline
90
6
70
1
43
0.0
10
1.8219600308963424
20
13.651651109220584
10
1.8227728094956492
20
13.492540906244631
10
1.6853857210168273
20
13.412281917842
10
1.5471858539386985
20
13.491133132415326
10
1.5463730753393914
20
13.650243335391279
10
1.6837601638182134
20
13.73050232379391
0
LWPOLYLINE
5
180
100
AcDbEntity
8
INTERIOR_PROFILES
100
AcDbPolyline
90
11
70
1
43
0.0
10
5.0002208313224905
20
14.292709685319702
10
4.8062577884044355
20
14.408966004116284
10
4.8059648401665065
20
14.452888093428827
10
4.8088791044606118
20
14.631005966617645
10
4.9050007907314699
20
14.687359959343818
10
5.0037701276935413
20
14.741929737555424
10
5.1018635834761241
20
14.686164449929555
10
5.1985070190710019
20
14.62791261249855
10
5.1992596080232962
20
14.51507602603507
10
5.1971338029206251
20
14.402256991422309
10
5.1933662338634434
20
14.400048150030935
0
LWPOLYLINE
5
181
100
AcDbEntity
8
INTERIOR_PROFILES
100
AcDbPolyline
90
6
70
1
43
0.0
10
4.0338426364797346
20
14.281572369063104
10
4.0346554150790421
20
14.122462166087148
10
3.8972683266002206
20
14.04220317768452
10
3.7590684595220916
20
14.121054392257843
10
3.7582556809227845
20
14.280164595233799
10
3.8956427694016065
20
14.360423583636431
0
LWPOLYLINE
5
182
100
AcDbEntity
8
INTERIOR_PROFILES
100
AcDbPolyline
90
6
70
1
43
0.0
10
6.9830194439242588
20
14.281572369063104
10
6.9838322225235663
20
14.122462166087148
10
6.8464451340447443
20
14.04220317768452
10
6.7082452669666148
20
14.121054392257843
10
6.7074324883673091
20
14.280164595233799
10
6.8448195768461311
20
14.360423583636431
0
LWPOLYLINE
5
183
100
AcDbEntity
8
INTERIOR_PROFILES
100
AcDbPolyline
90
6
70
1
43
0.0
10
6.2457252420631288
20
14.281572369063104
10
6.2465380206624346
20
14.122462166087148
10
6.1091509321836126
20
14.04220317768452
10
5.9709510651054849
20
14.121054392257843
10
5.9701382865061774
20
14.280164595233799
10
6.1075253749849994
20
14.360423583636431
0
LWPOLYLINE
5
184
100
AcDbEntity
8
INTERIOR_PROFILES
100
AcDbPolyline
90
6
70
1
43
0.0
10
7.7203136457853905
20
14.281572369063104
10
7.7211264243846971
20
14.122462166087148
10
7.583739335905876
20
14.04220317768452
10
7.4455394688277465
20
14.121054392257843
10
7.4447266902284408
20
14.280164595233799
10
7.582113778707261
20
14.360423583636431
0
LWPOLYLINE
5
185
100
AcDbEntity
8
INTERIOR_PROFILES
100
AcDbPolyline
90
6
70
1
43
0.0
10
4.0338426364797346
20
13.651651109220584
10
4.0346554150790421
20
13.492540906244631
10
3.8972683266002206
20
13.412281917842
10
3.7590684595220916
20
13.491133132415326
10
3.7582556809227845
20
13.650243335391279
10
3.8956427694016065
20
13.73050232379391
0
LWPOLYLINE
5
186
100
AcDbEntity
8
INTERIOR_PROFILES
100
AcDbPolyline
90
11
70
1
43
0.0
10
7.9529767368343007
20
14.292709685319702
10
7.7590136939162466
20
14.408966004116284
10
7.7587207456783194
20
14.452888093428827
10
7.7616350099724221
20
14.631005966617645
10
7.8577566962432801
20
14.687359959343818
10
7.9565260332053516
20
14.741929737555424
10
8.0546194889879352
20
14.686164449929555
10
8.1512629245828148
20
14.62791261249855
10
8.1520155135351082
20
14.51507602603507
10
8.1498897084324362
20
14.402256991422309
10
8.1461221393752563
20
14.400048150030935
0
LWPOLYLINE
5
187
100
AcDbEntity
8
INTERIOR_PROFILES
100
AcDbPolyline
90
11
70
1
43
0.0
10
5.7384098077004433
20
11.773024645949624
10
5.5444467647823883
20
11.889280964746202
10
5.5441538165444593
20
11.933203054058749
10
5.5470680808385646
20
12.111320927247563
10
5.6431897671094218
20
12.16767491997374
10
5.7419591040714932
20
12.222244698185346
10
5.8400525598540769
20
12.166479410559473
10
5.9366959954489547
20
12.108227573128472
10
5.937448584401249
20
11.995390986664992
10
5.9353227792985779
20
11.882571952052231
10
5.9315552102413962
20
11.880363110660857
0
LWPOLYLINE
5
188
100
AcDbEntity
8
INTERIOR_PROFILES
100
AcDbPolyline
90
11
70
1
43
0.0
10
6.4765987840783952
20
11.143103386107104
10
6.2826357411603411
20
11.259359704903682
10
6.282342792922412
20
11.303281794216229
10
6.2852570572165165
20
11.481399667405043
10
6.3813787434873745
20
11.537753660131219
10
6.480148080449446
20
11.592323438342826
10
6.5782415362320297
20
11.536558150716953
10
6.6748849718269074
20
11.478306313285952
10
6.6756375607792018
20
11.365469726822472
10
6.6735117556765307
20
11.252650692209711
10
6.669744186619349
20
11.250441850818337
0
LWPOLYLINE
5
189
100
AcDbEntity
8
INTERIOR_PROFILES
100
AcDbPolyline
90
11
70
1
43
0.0
10
2.047464925810679
20
13.662788425477183
10
1.8535018828926244
20
13.779044744273763
10
1.8532089346546965
20
13.82296683358631
10
1.8561231989488001
20
14.001084706775124
10
1.9522448852196581
20
14.057438699501301
10
2.0510142221817294
20
14.112008477712905
10
2.1491076779643139
20
14.056243190087034
10
2.2457511135591912
20
13.99799135265603
10
2.246503702511486
20
13.885154766192553
10
2.2443778974088135
20
13.772335731579789
10
2.2406103283516323
20
13.770126890188415
0
LWPOLYLINE
5
190
100
AcDbEntity
8
INTERIOR_PROFILES
100
AcDbPolyline
90
6
70
1
43
0.0
10
9.1949020495076521
20
13.021729849378064
10
9.1957148281069596
20
12.862619646402111
10
9.0583277396281385
20
12.78236065799948
10
8.9201278725500082
20
12.861211872572806
10
8.9193150939507024
20
13.020322075548759
10
9.0567021824295235
20
13.10058106395139
0
LWPOLYLINE
5
191
100
AcDbEntity
8
INTERIOR_PROFILES
100
AcDbPolyline
90
6
70
1
43
0.0
10
2.2844800557998295
20
11.601369352887765
10
2.2836672772005224
20
11.76047955586372
10
2.4210543656793444
20
11.840738544266349
10
2.5592542327574734
20
11.761887329693023
10
2.5600670113567805
20
11.60277712671707
10
2.4226799228779581
20
11.522518138314439
0
LWPOLYLINE
5
192
100
AcDbEntity
8
INTERIOR_PROFILES
100
AcDbPolyline
90
6
70
1
43
0.0
10
2.5592542327574734
20
12.391808589535543
10
2.5600670113567805
20
12.232698386559591
10
2.4226799228779581
20
12.152439398156959
10
2.2844800557998295
20
12.231290612730286
10
2.2836672772005224
20
12.39040081570624
10
2.4210543656793444
20
12.47065980410887
0
LWPOLYLINE
5
193
100
AcDbEntity
8
INTERIOR_PROFILES
100
AcDbPolyline
90
6
70
1
43
0.0
10
8.4576078476465213
20
11.761887329693023
10
8.4584206262458288
20
11.60277712671707
10
8.3210335377670059
20
11.522518138314439
10
8.1828336706888773
20
11.601369352887765
10
8.1820208920895716
20
11.76047955586372
10
8.3194079805683909
20
11.840738544266349
0
LWPOLYLINE
5
194
100
AcDbEntity
8
INTERIOR_PROFILES
100
AcDbPolyline
90
11
70
1
43
0.0
10
7.9529767368343007
20
11.143103386107104
10
7.7590136939162466
20
11.259359704903682
10
7.7587207456783194
20
11.303281794216229
10
7.7616350099724221
20
11.481399667405043
10
7.8577566962432801
20
11.537753660131219
10
7.9565260332053516
20
11.592323438342826
10
8.0546194889879352
20
11.536558150716953
10
8.1512629245828148
20
11.478306313285952
10
8.1520155135351082
20
11.365469726822472
10
8.1498897084324362
20
11.252650692209711
10
8.1461221393752563
20
11.250441850818337
0
LWPOLYLINE
5
195
100
AcDbEntity
8
INTERIOR_PROFILES
100
AcDbPolyline
90
6
70
1
43
0.0
10
8.4576078476465213
20
12.391808589535543
10
8.4584206262458288
20
12.232698386559591
10
8.3210335377670059
20
12.152439398156959
10
8.1828336706888773
20
12.231290612730286
10
8.1820208920895716
20
12.39040081570624
10
8.3194079805683909
20
12.47065980410887
0
LWPOLYLINE
5
196
100
AcDbEntity
8
INTERIOR_PROFILES
100
AcDbPolyline
90
11
70
1
43
0.0
10
9.4293546895902072
20
14.292709685319702
10
9.2353916466721522
20
14.408966004116284
10
9.2350986984342249
20
14.452888093428827
10
9.2380129627283285
20
14.631005966617645
10
9.3341346489991857
20
14.687359959343818
10
9.4329039859612571
20
14.741929737555424
10
9.5309974417438408
20
14.686164449929555
10
9.6276408773387203
20
14.62791261249855
10
9.6283934662910138
20
14.51507602603507
10
9.6262676611883418
20
14.402256991422309
10
9.6225000921311601
20
14.400048150030935
0
LWPOLYLINE
5
197
100
AcDbEntity
8
INTERIOR_PROFILES
100
AcDbPolyline
90
6
70
1
43
0.0
10
4.7711368383408663
20
11.761887329693023
10
4.7719496169401729
20
11.60277712671707
10
4.634562528461351
20
11.522518138314439
10
4.4963626613832224
20
11.601369352887765
10
4.4955498827839149
20
11.76047955586372
10
4.6329369712627368
20
11.840738544266349
0
LWPOLYLINE
5
198
100
AcDbEntity
8
INTERIOR_PROFILES
100
AcDbPolyline
90
11
70
1
43
0.0
10
3.5238428785665841
20
11.773024645949624
10
3.3298798356485304
20
11.889280964746202
10
3.3295868874106023
20
11.933203054058749
10
3.3325011517047054
20
12.111320927247563
10
3.4286228379755634
20
12.16767491997374
10
3.5273921749376349
20
12.222244698185346
10
3.625485630720219
20
12.166479410559473
10
3.7221290663150963
20
12.108227573128472
10
3.7228816552673907
20
11.995390986664992
10
3.7207558501647187
20
11.882571952052231
10
3.7169882811075379
20
11.880363110660857
0
LWPOLYLINE
5
199
100
AcDbEntity
8
INTERIOR_PROFILES
100
AcDbPolyline
90
11
70
1
43
0.0
10
4.2620318549445377
20
11.773024645949624
10
4.0680688120264827
20
11.889280964746202
10
4.0677758637885537
20
11.933203054058749
10
4.0706901280826591
20
12.111320927247563
10
4.1668118143535171
20
12.16767491997374
10
4.2655811513155886
20
12.222244698185346
10
4.3636746070981713
20
12.166479410559473
10
4.4603180426930491
20
12.108227573128472
10
4.4610706316453435
20
11.995390986664992
10
4.4589448265426723
20
11.882571952052231
10
4.4551772574854906
20
11.880363110660857
0
LWPOLYLINE
5
200
100
AcDbEntity
8
INTERIOR_PROFILES
100
AcDbPolyline
90
11
70
1
43
0.0
10
2.047464925810679
20
11.143103386107104
10
1.8535018828926244
20
11.259359704903682
10
1.8532089346546965
20
11.303281794216229
10
1.8561231989488001
20
11.481399667405043
10
1.9522448852196581
20
11.537753660131219
10
2.0510142221817294
20
11.592323438342826
10
2.1491076779643139
20
11.536558150716953
10
2.2457511135591912
20
11.478306313285952
10
2.246503702511486
20
11.365469726822472
10
2.2443778974088135
20
11.252650692209711
10
2.2406103283516323
20
11.250441850818337
0
LWPOLYLINE
5
201
100
AcDbEntity
8
INTERIOR_PROFILES
100
AcDbPolyline
90
11
70
1
43
0.0
10
0.57108697305477341
20
13.032867165634663
10
0.37712393013671908
20
13.149123484431243
10
0.37683098189879094
20
13.19304557374379
10
0.37974524619289457
20
13.371163446932604
10
0.4758669324637525
20
13.42751743965878
10
0.57463626942582402
20
13.482087217870385
10
0.67272972520840812
20
13.426321930244514
10
0.76937316080328577
20
13.368070092813513
10
0.77012574975558012
20
13.255233506350033
10
0.76799994465290788
20
13.14241447173727
10
0.76423237559572721
20
13.140205630345896
0
LWPOLYLINE
5
202
100
AcDbEntity
8
INTERIOR_PROFILES
100
AcDbPolyline
90
6
70
1
43
0.0
10
9.1949020495076521
20
13.651651109220584
10
9.1957148281069596
20
13.492540906244631
10
9.0583277396281385
20
13.412281917842
10
8.9201278725500082
20
13.491133132415326
10
8.9193150939507024
20
13.650243335391279
10
9.0567021824295235
20
13.73050232379391
0
LWPOLYLINE
5
203
100
AcDbEntity
8
INTERIOR_PROFILES
100
AcDbPolyline
90
6
70
1
43
0.0
10
1.8219600308963424
20
14.281572369063104
10
1.8227728094956492
20
14.122462166087148
10
1.6853857210168273
20
14.04220317768452
10
1.5471858539386985
20
14.121054392257843
10
1.5463730753393914
20
14.280164595233799
10
1.6837601638182134
20
14.360423583636431
0
LWPOLYLINE
5
204
100
AcDbEntity
8
INTERIOR_PROFILES
100
AcDbPolyline
90
6
70
1
43
0.0
10
9.1949020495076521
20
14.281572369063104
10
9.1957148281069596
20
14.122462166087148
10
9.0583277396281385
20
14.04220317768452
10
8.9201278725500082
20
14.121054392257843
10
8.9193150939507024
20
14.280164595233799
10
9.0567021824295235
20
14.360423583636431
0
LWPOLYLINE
5
205
100
AcDbEntity
8
INTERIOR_PROFILES
100
AcDbPolyline
90
11
70
1
43
0.0
10
0.57108697305477341
20
13.662788425477183
10
0.37712393013671908
20
13.779044744273763
10
0.37683098189879094
20
13.82296683358631
10
0.37974524619289457
20
14.001084706775124
10
0.4758669324637525
20
14.057438699501301
10
0.57463626942582402
20
14.112008477712905
10
0.67272972520840812
20
14.056243190087034
10
0.76937316080328577
20
13.99799135265603
10
0.77012574975558012
20
13.885154766192553
10
0.76799994465290788
20
13.772335731579789
10
0.76423237559572721
20
13.770126890188415
0
LWPOLYLINE
5
206
100
AcDbEntity
8
INTERIOR_PROFILES
100
AcDbPolyline
90
6
70
1
43
0.0
10
7.7203136457853905
20
11.761887329693023
10
7.7211264243846971
20
11.60277712671707
10
7.583739335905876
20
11.522518138314439
10
7.4455394688277465
20
11.601369352887765
10
7.4447266902284408
20
11.76047955586372
10
7.582113778707261
20
11.840738544266349
0
LWPOLYLINE
5
207
100
AcDbEntity
8
INTERIOR_PROFILES
100
AcDbPolyline
90
11
70
1
43
0.0
10
2.047464925810679
20
11.773024645949624
10
1.8535018828926244
20
11.889280964746202
10
1.8532089346546965
20
11.933203054058749
10
1.8561231989488001
20
12.111320927247563
10
1.9522448852196581
20
12.16767491997374
10
2.0510142221817294
20
12.222244698185346
10
2.1491076779643139
20
12.166479410559473
10
2.2457511135591912
20
12.108227573128472
10
2.246503702511486
20
11.995390986664992
10
2.2443778974088135
20
11.882571952052231
10
2.2406103283516323
20
11.880363110660857
0
LWPOLYLINE
5
208
100
AcDbEntity
8
INTERIOR_PROFILES
100
AcDbPolyline
90
11
70
1
43
0.0
10
9.4293546895902072
20
11.773024645949624
10
9.2353916466721522
20
11.889280964746202
10
9.2350986984342249
20
11.933203054058749
10
9.2380129627283285
20
12.111320927247563
10
9.3341346489991857
20
12.16767491997374
10
9.4329039859612571
20
12.222244698185346
10
9.5309974417438408
20
12.166479410559473
10
9.6276408773387203
20
12.108227573128472
10
9.6283934662910138
20
11.995390986664992
10
9.6262676611883418
20
11.882571952052231
10
9.6225000921311601
20
11.880363110660857
0
LWPOLYLINE
5
209
100
AcDbEntity
8
INTERIOR_PROFILES
100
AcDbPolyline
90
11
70
1
43
0.0
10
0.57108697305477341
20
11.773024645949624
10
0.37712393013671908
20
11.889280964746202
10
0.37683098189879094
20
11.933203054058749
10
0.37974524619289457
20
12.111320927247563
10
0.4758669324637525
20
12.16767491997374
10
0.57463626942582402
20
12.222244698185346
10
0.67272972520840812
20
12.166479410559473
10
0.76937316080328577
20
12.108227573128472
10
0.77012574975558012
20
11.995390986664992
10
0.76799994465290788
20
11.882571952052231
10
0.76423237559572721
20
11.880363110660857
0
LWPOLYLINE
5
210
100
AcDbEntity
8
INTERIOR_PROFILES
100
AcDbPolyline
90
11
70
1
43
0.0
10
9.4293546895902072
20
11.143103386107104
10
9.2353916466721522
20
11.259359704903682
10
9.2350986984342249
20
11.303281794216229
10
9.2380129627283285
20
11.481399667405043
10
9.3341346489991857
20
11.537753660131219
10
9.4329039859612571
20
11.592323438342826
10
9.5309974417438408
20
11.536558150716953
10
9.6276408773387203
20
11.478306313285952
10
9.6283934662910138
20
11.365469726822472
10
9.6262676611883418
20
11.252650692209711
10
9.6225000921311601
20
11.250441850818337
0
LWPOLYLINE
5
211
100
AcDbEntity
8
INTERIOR_PROFILES
100
AcDbPolyline
90
11
70
1
43
0.0
10
3.5238428785665841
20
11.143103386107104
10
3.3298798356485304
20
11.259359704903682
10
3.3295868874106023
20
11.303281794216229
10
3.3325011517047054
20
11.481399667405043
10
3.4286228379755634
20
11.537753660131219
10
3.5273921749376349
20
11.592323438342826
10
3.625485630720219
20
11.536558150716953
10
3.7221290663150963
20
11.478306313285952
10
3.7228816552673907
20
11.365469726822472
10
3.7207558501647187
20
11.252650692209711
10
3.7169882811075379
20
11.250441850818337
0
LWPOLYLINE
5
212
100
AcDbEntity
8
INTERIOR_PROFILES
100
AcDbPolyline
90
6
70
1
43
0.0
10
3.2965484346186043
20
13.021729849378064
10
3.2973612132179113
20
12.862619646402111
10
3.1599741247390893
20
12.78236065799948
10
3.0217742576609603
20
12.861211872572806
10
3.0209614790616537
20
13.020322075548759
10
3.1583485675404757
20
13.10058106395139
0
LWPOLYLINE
5
213
100
AcDbEntity
8
INTERIOR_PROFILES
100
AcDbPolyline
90
6
70
1
43
0.0
10
3.2965484346186043
20
14.281572369063104
10
3.2973612132179113
20
14.122462166087148
10
3.1599741247390893
20
14.04220317768452
10
3.0217742576609603
20
14.121054392257843
10
3.0209614790616537
20
14.280164595233799
10
3.1583485675404757
20
14.360423583636431
0
LWPOLYLINE
5
214
100
AcDbEntity
8
INTERIOR_PROFILES
100
AcDbPolyline
90
11
70
1
43
0.0
10
2.7856539021886313
20
13.032867165634663
10
2.5916908592705776
20
13.149123484431243
10
2.5913979110326495
20
13.19304557374379
10
2.5943121753267526
20
13.371163446932604
10
2.6904338615976107
20
13.42751743965878
10
2.7892031985596821
20
13.482087217870385
10
2.8872966543422662
20
13.426321930244514
10
2.983940089937144
20
13.368070092813513
10
2.9846926788894388
20
13.255233506350033
10
2.9825668737867663
20
13.14241447173727
10
2.9787993047295851
20
13.140205630345896
0
LWPOLYLINE
5
215
100
AcDbEntity
8
INTERIOR_PROFILES
100
AcDbPolyline
90
11
70
1
43
0.0
10
1.309275949432726
20
12.402945905792144
10
1.1153129065146719
20
12.519202224588723
10
1.1150199582767437
20
12.56312431390127
10
1.1179342225708473
20
12.741242187090084
10
1.2140559088417051
20
12.79759617981626
10
1.3128252458037768
20
12.852165958027864
10
1.4109187015863609
20
12.796400670401994
10
1.5075621371812384
20
12.738148832970992
10
1.5083147261335328
20
12.625312246507512
10
1.5061889210308606
20
12.51249321189475
10
1.5024213519736798
20
12.510284370503378
0
LWPOLYLINE
5
216
100
AcDbEntity
8
INTERIOR_PROFILES
100
AcDbPolyline
90
6
70
1
43
0.0
10
4.7711368383408663
20
13.021729849378064
10
4.7719496169401729
20
12.862619646402111
10
4.634562528461351
20
12.78236065799948
10
4.4963626613832224
20
12.861211872572806
10
4.4955498827839149
20
13.020322075548759
10
4.6329369712627368
20
13.10058106395139
0
LWPOLYLINE
5
217
100
AcDbEntity
8
INTERIOR_PROFILES
100
AcDbPolyline
90
6
70
1
43
0.0
10
7.7203136457853905
20
13.021729849378064
10
7.7211264243846971
20
12.862619646402111
10
7.583739335905876
20
12.78236065799948
10
7.4455394688277465
20
12.861211872572806
10
7.4447266902284408
20
13.020322075548759
10
7.582113778707261
20
13.10058106395139
0
LWPOLYLINE
5
218
100
AcDbEntity
8
INTERIOR_PROFILES
100
AcDbPolyline
90
6
70
1
43
0.0
10
1.8219600308963424
20
13.021729849378064
10
1.8227728094956492
20
12.862619646402111
10
1.6853857210168273
20
12.78236065799948
10
1.5471858539386985
20
12.861211872572806
10
1.5463730753393914
20
13.020322075548759
10
1.6837601638182134
20
13.10058106395139
0
LWPOLYLINE
5
219
100
AcDbEntity
8
INTERIOR_PROFILES
100
AcDbPolyline
90
6
70
1
43
0.0
10
8.4576078476465213
20
13.021729849378064
10
8.4584206262458288
20
12.862619646402111
10
8.3210335377670059
20
12.78236065799948
10
8.1828336706888773
20
12.861211872572806
10
8.1820208920895716
20
13.020322075548759
10
8.3194079805683909
20
13.10058106395139
0
LWPOLYLINE
5
220
100
AcDbEntity
8
INTERIOR_PROFILES
100
AcDbPolyline
90
6
70
1
43
0.0
10
4.7711368383408663
20
13.651651109220584
10
4.7719496169401729
20
13.492540906244631
10
4.634562528461351
20
13.412281917842
10
4.4963626613832224
20
13.491133132415326
10
4.4955498827839149
20
13.650243335391279
10
4.6329369712627368
20
13.73050232379391
0
LWPOLYLINE
5
221
100
AcDbEntity
8
INTERIOR_PROFILES
100
AcDbPolyline
90
6
70
1
43
0.0
10
7.7203136457853905
20
13.651651109220584
10
7.7211264243846971
20
13.492540906244631
10
7.583739335905876
20
13.412281917842
10
7.4455394688277465
20
13.491133132415326
10
7.4447266902284408
20
13.650243335391279
10
7.582113778707261
20
13.73050232379391
0
LWPOLYLINE
5
222
100
AcDbEntity
8
INTERIOR_PROFILES
100
AcDbPolyline
90
11
70
1
43
0.0
10
9.2350986984342249
20
3.2523623637448695
10
9.2353916466721522
20
3.2962844530574147
10
9.4293546895902072
20
3.4125407718539957
10
9.6225000921311601
20
3.3052023071427623
10
9.6262676611883418
20
3.3029934657513884
10
9.6283934662910138
20
3.1901744311386273
10
9.6276408773387203
20
3.0773378446751467
10
9.5309974417438408
20
3.0190860072441437
10
9.4329039859612571
20
2.9633207196182747
10
9.3341346489991857
20
3.0178904978298795
10
9.2380129627283285
20
3.0742444905560533
0
LWPOLYLINE
5
223
100
AcDbEntity
8
INTERIOR_PROFILES
100
AcDbPolyline
90
11
70
1
43
0.0
10
6.2826357411603411
20
3.2962844530574147
10
6.4765987840783952
20
3.4125407718539957
10
6.669744186619349
20
3.3052023071427623
10
6.6735117556765307
20
3.3029934657513884
10
6.6756375607792018
20
3.1901744311386273
10
6.6748849718269074
20
3.0773378446751467
10
6.5782415362320297
20
3.0190860072441437
10
6.480148080449446
20
2.9633207196182747
10
6.3813787434873745
20
3.0178904978298795
10
6.2852570572165165
20
3.0742444905560533
10
6.282342792922412
20
3.2523623637448695
0
LWPOLYLINE
5
224
100
AcDbEntity
8
INTERIOR_PROFILES
100
AcDbPolyline
90
11
70
1
43
0.0
10
5.5444467647823883
20
3.2962844530574147
10
5.7384098077004433
20
3.4125407718539957
10
5.9315552102413962
20
3.3052023071427623
10
5.9353227792985779
20
3.3029934657513884
10
5.937448584401249
20
3.1901744311386273
10
5.9366959954489547
20
3.0773378446751467
10
5.8400525598540769
20
3.0190860072441437
10
5.7419591040714932
20
2.9633207196182747
10
5.6431897671094218
20
3.0178904978298795
10
5.5470680808385646
20
3.0742444905560533
10
5.5441538165444593
20
3.2523623637448695
0
LWPOLYLINE
5
225
100
AcDbEntity
8
INTERIOR_PROFILES
100
AcDbPolyline
90
11
70
1
43
0.0
10
7.0208247175382938
20
2.6663631932148948
10
7.214787760456348
20
2.7826195120114758
10
7.4079331629973026
20
2.6752810473002429
10
7.4117007320544825
20
2.673072205908869
10
7.4138265371571554
20
2.5602531712961061
10
7.4130739482048611
20
2.4474165848326273
10
7.3164305126099825
20
2.3891647474016242
10
7.2183370568273988
20
2.333399459775753
10
7.1195677198653273
20
2.3879692379873583
10
7.0234460335944693
20
2.4443232307135339
10
7.0205317693003666
20
2.6224411039023487
0
LWPOLYLINE
5
226
100
AcDbEntity
8
INTERIOR_PROFILES
100
AcDbPolyline
90
11
70
1
43
0.0
10
7.0208247175382938
20
3.9262057128999346
10
7.214787760456348
20
4.0424620316965152
10
7.4079331629973026
20
3.9351235669852822
10
7.4117007320544825
20
3.9329147255939088
10
7.4138265371571554
20
3.8200956909811468
10
7.4130739482048611
20
3.7072591045176666
10
7.3164305126099825
20
3.6490072670866636
10
7.2183370568273988
20
3.5932419794607933
10
7.1195677198653273
20
3.647811757672399
10
7.0234460335944693
20
3.7041657503985737
10
7.0205317693003666
20
3.882283623587389
0
LWPOLYLINE
5
227
100
AcDbEntity
8
INTERIOR_PROFILES
100
AcDbPolyline
90
11
70
1
43
0.0
10
2.5916908592705776
20
4.5561269727424545
10
2.7856539021886313
20
4.6723832915390346
10
2.9787993047295851
20
4.5650448268278021
10
2.9825668737867663
20
4.5628359854364282
10
2.9846926788894388
20
4.4500169508236658
10
2.983940089937144
20
4.3371803643601865
10
2.8872966543422662
20
4.2789285269291835
10
2.7892031985596821
20
4.2231632393033127
10
2.6904338615976107
20
4.277733017514918
10
2.5943121753267526
20
4.3340870102410936
10
2.5913979110326495
20
4.5122048834299084
0
LWPOLYLINE
5
228
100
AcDbEntity
8
INTERIOR_PROFILES
100
AcDbPolyline
90
6
70
1
43
0.0
10
1.0854786076345182
20
3.5827882910865489
10
1.0846658290352114
20
3.4236780881105942
10
0.94646596195708244
20
3.3448268735372686
10
0.80907887347826057
20
3.4250858619398983
10
0.80989165207756764
20
3.5841960649158531
10
0.94809151915569634
20
3.6630472794891786
0
LWPOLYLINE
5
229
100
AcDbEntity
8
INTERIOR_PROFILES
100
AcDbPolyline
90
11
70
1
43
0.0
10
8.4972026702941985
20
4.5561269727424545
10
8.6911657132122535
20
4.6723832915390346
10
8.8843111157532082
20
4.5650448268278021
10
8.8880786848103881
20
4.5628359854364282
10
8.8902044899130601
20
4.4500169508236658
10
8.8894519009607667
20
4.3371803643601865
10
8.7928084653658871
20
4.2789285269291835
10
8.6947150095833052
20
4.2231632393033127
10
8.5959456726212338
20
4.277733017514918
10
8.4998239863503748
20
4.3340870102410936
10
8.4969097220562713
20
4.5122048834299084
0
LWPOLYLINE
5
230
100
AcDbEntity
8
INTERIOR_PROFILES
100
AcDbPolyline
90
6
70
1
43
0.0
10
9.1957148281069596
20
3.5827882910865489
10
9.1949020495076521
20
3.4236780881105942
10
9.0567021824295235
20
3.3448268735372686
10
8.9193150939507024
20
3.4250858619398983
10
8.9201278725500082
20
3.5841960649158531
10
9.0583277396281385
20
3.6630472794891786
0
LWPOLYLINE
5
231
100
AcDbEntity
8
INTERIOR_PROFILES
100
AcDbPolyline
90
11
70
1
43
0.0
10
2.5916908592705776
20
3.9262057128999346
10
2.7856539021886313
20
4.0424620316965152
10
2.9787993047295851
20
3.9351235669852822
10
2.9825668737867663
20
3.9329147255939088
10
2.9846926788894388
20
3.8200956909811468
10
2.983940089937144
20
3.7072591045176666
10
2.8872966543422662
20
3.6490072670866636
10
2.7892031985596821
20
3.5932419794607933
10
2.6904338615976107
20
3.647811757672399
10
2.5943121753267526
20
3.7041657503985737
10
2.5913979110326495
20
3.882283623587389
0
LWPOLYLINE
5
232
100
AcDbEntity
8
INTERIOR_PROFILES
100
AcDbPolyline
90
6
70
1
43
0.0
10
1.0854786076345182
20
1.693024511558989
10
1.0846658290352114
20
1.5339143085830342
10
0.94646596195708244
20
1.4550630940097096
10
0.80907887347826057
20
1.5353220824123386
10
0.80989165207756764
20
1.6944322853882934
10
0.94809151915569634
20
1.7732834999616194
0
LWPOLYLINE
5
233
100
AcDbEntity
8
INTERIOR_PROFILES
100
AcDbPolyline
90
11
70
1
43
0.0
10
1.1153129065146719
20
2.0364419333723749
10
1.309275949432726
20
2.1526982521689559
10
1.5024213519736798
20
2.0453597874577225
10
1.5061889210308606
20
2.0431509460663486
10
1.5083147261335328
20
1.9303319114535875
10
1.5075621371812384
20
1.8174953249901069
10
1.4109187015863609
20
1.7592434875591039
10
1.3128252458037768
20
1.7034781999332342
10
1.2140559088417051
20
1.7580479781448397
10
1.1179342225708473
20
1.8144019708710137
10
1.1150199582767437
20
1.99251984405983
0
LWPOLYLINE
5
234
100
AcDbEntity
8
INTERIOR_PROFILES
100
AcDbPolyline
90
11
70
1
43
0.0
10
7.7590136939162466
20
3.9262057128999346
10
7.9529767368343007
20
4.0424620316965152
10
8.1461221393752563
20
3.9351235669852822
10
8.1498897084324362
20
3.9329147255939088
10
8.1520155135351082
20
3.8200956909811468
10
8.1512629245828148
20
3.7072591045176666
10
8.0546194889879352
20
3.6490072670866636
10
7.9565260332053516
20
3.5932419794607933
10
7.8577566962432801
20
3.647811757672399
10
7.7616350099724221
20
3.7041657503985737
10
7.7587207456783194
20
3.882283623587389
0
LWPOLYLINE
5
235
100
AcDbEntity
8
INTERIOR_PROFILES
100
AcDbPolyline
90
11
70
1
43
0.0
10
8.4972026702941985
20
1.4065206735298561
10
8.6911657132122535
20
1.5227769923264356
10
8.8843111157532082
20
1.4154385276152037
10
8.8880786848103881
20
1.4132296862238298
10
8.8902044899130601
20
1.3004106516110672
10
8.8894519009607667
20
1.1875740651475881
10
8.7928084653658871
20
1.1293222277165851
10
8.6947150095833052
20
1.0735569400907139
10
8.5959456726212338
20
1.1281267183023194
10
8.4998239863503748
20
1.1844807110284949
10
8.4969097220562713
20
1.3625985842173098
0
LWPOLYLINE
5
236
100
AcDbEntity
8
INTERIOR_PROFILES
100
AcDbPolyline
90
6
70
1
43
0.0
10
4.0346554150790421
20
3.5827882910865489
10
4.0338426364797346
20
3.4236780881105942
10
3.8956427694016065
20
3.3448268735372686
10
3.7582556809227845
20
3.4250858619398983
10
3.7590684595220916
20
3.5841960649158531
10
3.8972683266002206
20
3.6630472794891786
0
LWPOLYLINE
5
237
100
AcDbEntity
8
INTERIOR_PROFILES
100
AcDbPolyline
90
11
70
1
43
0.0
10
1.1153129065146719
20
2.6663631932148948
10
1.309275949432726
20
2.7826195120114758
10
1.5024213519736798
20
2.6752810473002429
10
1.5061889210308606
20
2.673072205908869
10
1.5083147261335328
20
2.5602531712961061
10
1.5075621371812384
20
2.4474165848326273
10
1.4109187015863609
20
2.3891647474016242
10
1.3128252458037768
20
2.333399459775753
10
1.2140559088417051
20
2.3879692379873583
10
1.1179342225708473
20
2.4443232307135339
10
1.1150199582767437
20
2.6224411039023487
0
LWPOLYLINE
5
238
100
AcDbEntity
8
INTERIOR_PROFILES
100
AcDbPolyline
90
6
70
1
43
0.0
10
5.5092438188013046
20
4.212709550929068
10
5.5084310402019971
20
4.0535993479531136
10
5.3702311731238686
20
3.9747481333797885
10
5.2328440846450466
20
4.0550071217824177
10
5.2336568632443532
20
4.214117324758373
10
5.3718567303224827
20
4.2929685393316976
0
LWPOLYLINE
5
239
100
AcDbEntity
8
INTERIOR_PROFILES
100
AcDbPolyline
90
6
70
1
43
0.0
10
6.9838322225235663
20
3.5827882910865489
10
6.9830194439242588
20
3.4236780881105942
10
6.8448195768461311
20
3.3448268735372686
10
6.7074324883673091
20
3.4250858619398983
10
6.7082452669666148
20
3.5841960649158531
10
6.8464451340447443
20
3.6630472794891786
0
LWPOLYLINE
5
240
100
AcDbEntity
8
INTERIOR_PROFILES
100
AcDbPolyline
90
6
70
1
43
0.0
10
4.7719496169401729
20
3.5827882910865489
10
4.7711368383408663
20
3.4236780881105942
10
4.6329369712627368
20
3.3448268735372686
10
4.4955498827839149
20
3.4250858619398983
10
4.4963626613832224
20
3.5841960649158531
10
4.634562528461351
20
3.6630472794891786
0
LWPOLYLINE
5
241
100
AcDbEntity
8
INTERIOR_PROFILES
100
AcDbPolyline
90
6
70
1
43
0.0
10
6.9838322225235663
20
4.212709550929068
10
6.9830194439242588
20
4.0535993479531136
10
6.8448195768461311
20
3.9747481333797885
10
6.7074324883673091
20
4.0550071217824177
10
6.7082452669666148
20
4.214117324758373
10
6.8464451340447443
20
4.2929685393316976
0
LWPOLYLINE
5
242
100
AcDbEntity
8
INTERIOR_PROFILES
100
AcDbPolyline
90
6
70
1
43
0.0
10
4.0346554150790421
20
4.212709550929068
10
4.0338426364797346
20
4.0535993479531136
10
3.8956427694016065
20
3.9747481333797885
10
3.7582556809227845
20
4.0550071217824177
10
3.7590684595220916
20
4.214117324758373
10
3.8972683266002206
20
4.2929685393316976
0
LWPOLYLINE
5
243
100
AcDbEntity
8
INTERIOR_PROFILES
100
AcDbPolyline
90
6
70
1
43
0.0
10
7.7211264243846971
20
3.5827882910865489
10
7.7203136457853905
20
3.4236780881105942
10
7.582113778707261
20
3.3448268735372686
10
7.4447266902284408
20
3.4250858619398983
10
7.4455394688277465
20
3.5841960649158531
10
7.583739335905876
20
3.6630472794891786
0
LWPOLYLINE
5
244
100
AcDbEntity
8
INTERIOR_PROFILES
100
AcDbPolyline
90
11
70
1
43
0.0
10
1.1153129065146719
20
1.4065206735298561
10
1.309275949432726
20
1.5227769923264356
10
1.5024213519736798
20
1.4154385276152037
10
1.5061889210308606
20
1.4132296862238298
10
1.5083147261335328
20
1.3004106516110672
10
1.5075621371812384
20
1.1875740651475881
10
1.4109187015863609
20
1.1293222277165851
10
1.3128252458037768
20
1.0735569400907139
10
1.2140559088417051
20
1.1281267183023194
10
1.1179342225708473
20
1.1844807110284949
10
1.1150199582767437
20
1.3625985842173098
0
LWPOLYLINE
5
245
100
AcDbEntity
8
INTERIOR_PROFILES
100
AcDbPolyline
90
11
70
1
43
0.0
10
0.37712393013671908
20
1.4065206735298561
10
0.57108697305477341
20
1.5227769923264356
10
0.76423237559572721
20
1.4154385276152037
10
0.76799994465290788
20
1.4132296862238298
10
0.77012574975558012
20
1.3004106516110672
10
0.76937316080328577
20
1.1875740651475881
10
0.67272972520840812
20
1.1293222277165851
10
0.57463626942582402
20
1.0735569400907139
10
0.4758669324637525
20
1.1281267183023194
10
0.37974524619289457
20
1.1844807110284949
10
0.37683098189879094
20
1.3625985842173098
0
LWPOLYLINE
5
246
100
AcDbEntity
8
INTERIOR_PROFILES
100
AcDbPolyline
90
11
70
1
43
0.0
10
8.4972026702941985
20
3.9262057128999346
10
8.6911657132122535
20
4.0424620316965152
10
8.8843111157532082
20
3.9351235669852822
10
8.8880786848103881
20
3.9329147255939088
10
8.8902044899130601
20
3.8200956909811468
10
8.8894519009607667
20
3.7072591045176666
10
8.7928084653658871
20
3.6490072670866636
10
8.6947150095833052
20
3.5932419794607933
10
8.5959456726212338
20
3.647811757672399
10
8.4998239863503748
20
3.7041657503985737
10
8.4969097220562713
20
3.882283623587389
0
LWPOLYLINE
5
247
100
AcDbEntity
8
INTERIOR_PROFILES
100
AcDbPolyline
90
6
70
1
43
0.0
10
9.1957148281069596
20
4.212709550929068
10
9.1949020495076521
20
4.0535993479531136
10
9.0567021824295235
20
3.9747481333797885
10
8.9193150939507024
20
4.0550071217824177
10
8.9201278725500082
20
4.214117324758373
10
9.0583277396281385
20
4.2929685393316976
0
LWPOLYLINE
5
248
100
AcDbEntity
8
INTERIOR_PROFILES
100
AcDbPolyline
90
11
70
1
43
0.0
10
1.1153129065146719
20
3.9262057128999346
10
1.309275949432726
20
4.0424620316965152
10
1.5024213519736798
20
3.9351235669852822
10
1.5061889210308606
20
3.9329147255939088
10
1.5083147261335328
20
3.8200956909811468
10
1.5075621371812384
20
3.7072591045176666
10
1.4109187015863609
20
3.6490072670866636
10
1.3128252458037768
20
3.5932419794607933
10
1.2140559088417051
20
3.647811757672399
10
1.1179342225708473
20
3.7041657503985737
10
1.1150199582767437
20
3.882283623587389
0
LWPOLYLINE
5
249
100
AcDbEntity
8
INTERIOR_PROFILES
100
AcDbPolyline
90
6
70
1
43
0.0
10
1.8227728094956492
20
4.212709550929068
10
1.8219600308963424
20
4.0535993479531136
10
1.6837601638182134
20
3.9747481333797885
10
1.5463730753393914
20
4.0550071217824177
10
1.5471858539386985
20
4.214117324758373
10
1.6853857210168273
20
4.2929685393316976
0
LWPOLYLINE
5
250
100
AcDbEntity
8
INTERIOR_PROFILES
100
AcDbPolyline
90
11
70
1
43
0.0
10
0.37712393013671908
20
4.5561269727424545
10
0.57108697305477341
20
4.6723832915390346
10
0.76423237559572721
20
4.5650448268278021
10
0.76799994465290788
20
4.5628359854364282
10
0.77012574975558012
20
4.4500169508236658
10
0.76937316080328577
20
4.3371803643601865
10
0.67272972520840812
20
4.2789285269291835
10
0.57463626942582402
20
4.2231632393033127
10
0.4758669324637525
20
4.277733017514918
10
0.37974524619289457
20
4.3340870102410936
10
0.37683098189879094
20
4.5122048834299084
0
LWPOLYLINE
5
251
100
AcDbEntity
8
INTERIOR_PROFILES
100
AcDbPolyline
90
6
70
1
43
0.0
10
3.2973612132179113
20
2.3229457714015092
10
3.2965484346186043
20
2.1638355684255544
10
3.1583485675404757
20
2.0849843538522284
10
3.0209614790616537
20
2.1652433422548589
10
3.0217742576609603
20
2.3243535452308137
10
3.1599741247390893
20
2.4032047598041379
0
LWPOLYLINE
5
252
100
AcDbEntity
8
INTERIOR_PROFILES
100
AcDbPolyline
90
6
70
1
43
0.0
10
1.6111415819965851
20
6.9649839115894876
10
1.453804550321339
20
7.0561529373808982
10
1.4540907268573557
20
7.2379953166634046
10
1.6117139350686187
20
7.3286686701544985
10
1.769050966743865
20
7.2374996443630879
10
1.7687647902078483
20
7.0556572650805824
0
LWPOLYLINE
5
253
100
AcDbEntity
8
INTERIOR_PROFILES
100
AcDbPolyline
90
6
70
1
43
0.0
10
1.6135314305873911
20
8.4835422110423
10
1.4561943989121453
20
8.5747112368337106
10
1.456480575448162
20
8.7565536161162161
10
1.614103783659425
20
8.8472269696073109
10
1.7714408153346715
20
8.7560579438159003
10
1.7711546387986545
20
8.5742155645333948
0
LWPOLYLINE
5
254
100
AcDbEntity
8
INTERIOR_PROFILES
100
AcDbPolyline
90
6
70
1
43
0.0
10
1.6143280467843271
20
8.9897283108599044
10
1.4569910151090808
20
9.080897336651315
10
1.4572771916450975
20
9.2627397159338205
10
1.6149003998563611
20
9.3534130694249153
10
1.772237431531607
20
9.2622440436335065
10
1.7719512549955898
20
9.080401664351001
0
LWPOLYLINE
5
255
100
AcDbEntity
8
INTERIOR_PROFILES
100
AcDbPolyline
90
6
70
1
43
0.0
10
1.6151246629812621
20
9.4959144106775089
10
1.4577876313060161
20
9.5870834364689212
10
1.4580738078420328
20
9.7689258157514267
10
1.6156970160532957
20
9.8595991692425198
10
1.7730340477285422
20
9.7684301434511109
10
1.7727478711925253
20
9.5865877641686037
0
LWPOLYLINE
5
256
100
AcDbEntity
8
INTERIOR_PROFILES
100
AcDbPolyline
90
6
70
1
43
0.0
10
1.0884744233198862
20
5.9534317580393585
10
0.93113739164464004
20
6.0446007838307683
10
0.93142356818065697
20
6.2264431631132755
10
1.08904677639192
20
6.3171165166043703
10
1.2463838080671665
20
6.2259474908129606
10
1.2460976315311496
20
6.0441051115304534
0
LWPOLYLINE
5
257
100
AcDbEntity
8
INTERIOR_PROFILES
100
AcDbPolyline
90
6
70
1
43
0.0
10
1.0892710395168215
20
6.4596178578569639
10
0.93193400784157543
20
6.5507868836483745
10
0.93222018437759235
20
6.7326292629308808
10
1.0898433925888555
20
6.8233026164219757
10
1.2471804242641018
20
6.732133590630565
10
1.2468942477280849
20
6.5502912113480578
0
LWPOLYLINE
5
258
100
AcDbEntity
8
INTERIOR_PROFILES
100
AcDbPolyline
90
6
70
1
43
0.0
10
1.090067655713757
20
6.9658039576745692
10
0.93273062403851092
20
7.056972983465978
10
0.93301680057452774
20
7.2388153627484852
10
1.0906400087857908
20
7.3294887162395792
10
1.2479770404610373
20
7.2383196904481686
10
1.2476908639250204
20
7.0564773111656631
0
LWPOLYLINE
5
259
100
AcDbEntity
8
INTERIOR_PROFILES
100
AcDbPolyline
90
6
70
1
43
0.0
10
1.0924575043045635
20
8.4843622571273798
10
0.93512047262931708
20
8.5755312829187904
10
0.935406649165334
20
8.7573736622012976
10
1.0930298573765971
20
8.8480470156923925
10
1.2503668890518436
20
8.7568779899009819
10
1.2500807125158266
20
8.5750356106184764
0
LWPOLYLINE
5
260
100
AcDbEntity
8
INTERIOR_PROFILES
100
AcDbPolyline
90
6
70
1
43
0.0
10
1.0932541205014989
20
8.990548356944986
10
0.93591708882625291
20
9.0817173827363966
10
0.9362032653622695
20
9.2635597620189021
10
1.0938264735735324
20
9.3542331155099969
10
1.2511635052487791
20
9.2630640897185863
10
1.2508773287127621
20
9.0812217104360808
0
LWPOLYLINE
5
261
100
AcDbEntity
8
INTERIOR_PROFILES
100
AcDbPolyline
90
6
70
1
43
0.0
10
1.0940507366984342
20
9.4967344567625904
10
0.93671370502318829
20
9.5879034825539993
10
0.93699988155920499
20
9.7697458618365065
10
1.0946230897704685
20
9.8604192153276013
10
1.2519601214457143
20
9.7692501895361907
10
1.2516739449096976
20
9.5874078102536835
0
LWPOLYLINE
5
262
100
AcDbEntity
8
INTERIOR_PROFILES
100
AcDbPolyline
90
6
70
1
43
0.0
10
0.56740049703705842
20
5.9542518041244401
10
0.41006346536181221
20
6.0454208299158498
10
0.41034964189782902
20
6.2272632091983562
10
0.56797285010909215
20
6.317936562689451
10
0.72530988178433864
20
6.2267675368980404
10
0.72502370524832171
20
6.0449251576155341
0
LWPOLYLINE
5
263
100
AcDbEntity
8
INTERIOR_PROFILES
100
AcDbPolyline
90
6
70
1
43
0.0
10
0.5681971132339938
20
6.4604379039420445
10
0.41086008155874759
20
6.5516069297334552
10
0.41114625809476463
20
6.7334493090159606
10
0.56876946630602754
20
6.8241226625070555
10
0.72610649798127413
20
6.7329536367156448
10
0.72582032144525721
20
6.5511112574331394
0
LWPOLYLINE
5
264
100
AcDbEntity
8
INTERIOR_PROFILES
100
AcDbPolyline
90
6
70
1
43
0.0
10
0.56899372943092918
20
6.966624003759649
10
0.41165669775568337
20
7.0577930295510587
10
0.41194287429170001
20
7.239635408833565
10
0.56956608250296292
20
7.3303087623246608
10
0.72690311417820952
20
7.2391397365332502
10
0.7266169376421926
20
7.0572973572507429
0
LWPOLYLINE
5
265
100
AcDbEntity
8
INTERIOR_PROFILES
100
AcDbPolyline
90
6
70
1
43
0.0
10
0.57138357802173556
20
8.4851823032124614
10
0.41404654634648957
20
8.576351329003872
10
0.41433272288250622
20
8.7581937082863774
10
0.57195593109376985
20
8.8488670617774741
10
0.72929296276901578
20
8.7576980359860617
10
0.72900678623299886
20
8.5758556567035562
0
LWPOLYLINE
5
266
100
AcDbEntity
8
INTERIOR_PROFILES
100
AcDbPolyline
90
6
70
1
43
0.0
10
0.57218019421867083
20
8.9913684030300676
10
0.41484316254342496
20
9.0825374288214764
10
0.41512933907944166
20
9.2643798081039836
10
0.57275254729070457
20
9.3550531615950785
10
0.73008957896595128
20
9.2638841358036661
10
0.72980340242993424
20
9.0820417565211606
0
LWPOLYLINE
5
267
100
AcDbEntity
8
INTERIOR_PROFILES
100
AcDbPolyline
90
6
70
1
43
0.0
10
0.57297681041560644
20
9.4975545028476702
10
0.41563977874036029
20
9.5887235286390808
10
0.41592595527637716
20
9.7705659079215863
10
0.57354916348764062
20
9.8612392614126811
10
0.73088619516288711
20
9.7700702356212705
10
0.73060001862687007
20
9.5882278563387651
0
LWPOLYLINE
5
268
100
AcDbEntity
8
INTERIOR_PROFILES
100
AcDbPolyline
90
11
70
1
43
0.0
10
1.1153129065146719
20
4.5561269727424545
10
1.309275949432726
20
4.6723832915390346
10
1.5024213519736798
20
4.5650448268278021
10
1.5061889210308606
20
4.5628359854364282
10
1.5083147261335328
20
4.4500169508236658
10
1.5075621371812384
20
4.3371803643601865
10
1.4109187015863609
20
4.2789285269291835
10
1.3128252458037768
20
4.2231632393033127
10
1.2140559088417051
20
4.277733017514918
10
1.1179342225708473
20
4.3340870102410936
10
1.1150199582767437
20
4.5122048834299084
0
LWPOLYLINE
5
269
100
AcDbEntity
8
INTERIOR_PROFILES
100
AcDbPolyline
90
11
70
1
43
0.0
10
4.8062577884044355
20
3.2962844530574147
10
5.0002208313224905
20
3.4125407718539957
10
5.1933662338634434
20
3.3052023071427623
10
5.1971338029206251
20
3.3029934657513884
10
5.1992596080232962
20
3.1901744311386273
10
5.1985070190710019
20
3.0773378446751467
10
5.1018635834761241
20
3.0190860072441437
10
5.0037701276935413
20
2.9633207196182747
10
4.9050007907314699
20
3.0178904978298795
10
4.8088791044606118
20
3.0742444905560533
10
4.8059648401665065
20
3.2523623637448695
0
LWPOLYLINE
5
270
100
AcDbEntity
8
INTERIOR_PROFILES
100
AcDbPolyline
90
6
70
1
43
0.0
10
2.5600670113567805
20
2.3229457714015092
10
2.5592542327574734
20
2.1638355684255544
10
2.4210543656793444
20
2.0849843538522284
10
2.2836672772005224
20
2.1652433422548589
10
2.2844800557998295
20
2.3243535452308137
10
2.4226799228779581
20
2.4032047598041379
0
LWPOLYLINE
5
271
100
AcDbEntity
8
INTERIOR_PROFILES
100
AcDbPolyline
90
6
70
1
43
0.0
10
3.2973612132179113
20
4.212709550929068
10
3.2965484346186043
20
4.0535993479531136
10
3.1583485675404757
20
3.9747481333797885
10
3.0209614790616537
20
4.0550071217824177
10
3.0217742576609603
20
4.214117324758373
10
3.1599741247390893
20
4.2929685393316976
0
LWPOLYLINE
5
272
100
AcDbEntity
8
INTERIOR_PROFILES
100
AcDbPolyline
90
6
70
1
43
0.0
10
6.9838322225235663
20
2.3229457714015092
10
6.9830194439242588
20
2.1638355684255544
10
6.8448195768461311
20
2.0849843538522284
10
6.7074324883673091
20
2.1652433422548589
10
6.7082452669666148
20
2.3243535452308137
10
6.8464451340447443
20
2.4032047598041379
0
LWPOLYLINE
5
273
100
AcDbEntity
8
INTERIOR_PROFILES
100
AcDbPolyline
90
11
70
1
43
0.0
10
4.0680688120264827
20
4.5561269727424545
10
4.2620318549445377
20
4.6723832915390346
10
4.4551772574854906
20
4.5650448268278021
10
4.4589448265426723
20
4.5628359854364282
10
4.4610706316453435
20
4.4500169508236658
10
4.4603180426930491
20
4.3371803643601865
10
4.3636746070981713
20
4.2789285269291835
10
4.2655811513155886
20
4.2231632393033127
10
4.1668118143535171
20
4.277733017514918
10
4.0706901280826591
20
4.3340870102410936
10
4.0677758637885537
20
4.5122048834299084
0
LWPOLYLINE
5
274
100
AcDbEntity
8
INTERIOR_PROFILES
100
AcDbPolyline
90
6
70
1
43
0.0
10
2.5600670113567805
20
1.693024511558989
10
2.5592542327574734
20
1.5339143085830342
10
2.4210543656793444
20
1.4550630940097096
10
2.2836672772005224
20
1.5353220824123386
10
2.2844800557998295
20
1.6944322853882934
10
2.4226799228779581
20
1.7732834999616194
0
LWPOLYLINE
5
275
100
AcDbEntity
8
INTERIOR_PROFILES
100
AcDbPolyline
90
11
70
1
43
0.0
10
9.2353916466721522
20
2.0364419333723749
10
9.4293546895902072
20
2.1526982521689559
10
9.6225000921311601
20
2.0453597874577225
10
9.6262676611883418
20
2.0431509460663486
10
9.6283934662910138
20
1.9303319114535875
10
9.6276408773387203
20
1.8174953249901069
10
9.5309974417438408
20
1.7592434875591039
10
9.4329039859612571
20
1.7034781999332342
10
9.3341346489991857
20
1.7580479781448397
10
9.2380129627283285
20
1.8144019708710137
10
9.2350986984342249
20
1.99251984405983
0
LWPOLYLINE
5
276
100
AcDbEntity
8
INTERIOR_PROFILES
100
AcDbPolyline
90
6
70
1
43
0.0
10
8.4584206262458288
20
1.693024511558989
10
8.4576078476465213
20
1.5339143085830342
10
8.3194079805683909
20
1.4550630940097096
10
8.1820208920895716
20
1.5353220824123386
10
8.1828336706888773
20
1.6944322853882934
10
8.3210335377670059
20
1.7732834999616194
0
LWPOLYLINE
5
277
100
AcDbEntity
8
INTERIOR_PROFILES
100
AcDbPolyline
90
11
70
1
43
0.0
10
2.5916908592705776
20
1.4065206735298561
10
2.7856539021886313
20
1.5227769923264356
10
2.9787993047295851
20
1.4154385276152037
10
2.9825668737867663
20
1.4132296862238298
10
2.9846926788894388
20
1.3004106516110672
10
2.983940089937144
20
1.1875740651475881
10
2.8872966543422662
20
1.1293222277165851
10
2.7892031985596821
20
1.0735569400907139
10
2.6904338615976107
20
1.1281267183023194
10
2.5943121753267526
20
1.1844807110284949
10
2.5913979110326495
20
1.3625985842173098
0
LWPOLYLINE
5
278
100
AcDbEntity
8
INTERIOR_PROFILES
100
AcDbPolyline
90
11
70
1
43
0.0
10
5.5444467647823883
20
1.4065206735298561
10
5.7384098077004433
20
1.5227769923264356
10
5.9315552102413962
20
1.4154385276152037
10
5.9353227792985779
20
1.4132296862238298
10
5.937448584401249
20
1.3004106516110672
10
5.9366959954489547
20
1.1875740651475881
10
5.8400525598540769
20
1.1293222277165851
10
5.7419591040714932
20
1.0735569400907139
10
5.6431897671094218
20
1.1281267183023194
10
5.5470680808385646
20
1.1844807110284949
10
5.5441538165444593
20
1.3625985842173098
0
LWPOLYLINE
5
279
100
AcDbEntity
8
INTERIOR_PROFILES
100
AcDbPolyline
90
6
70
1
43
0.0
10
6.2465380206624346
20
3.5827882910865489
10
6.2457252420631288
20
3.4236780881105942
10
6.1075253749849994
20
3.3448268735372686
10
5.9701382865061774
20
3.4250858619398983
10
5.9709510651054849
20
3.5841960649158531
10
6.1091509321836126
20
3.6630472794891786
0
LWPOLYLINE
5
280
100
AcDbEntity
8
INTERIOR_PROFILES
100
AcDbPolyline
90
6
70
1
43
0.0
10
5.5092438188013046
20
2.3229457714015092
10
5.5084310402019971
20
2.1638355684255544
10
5.3702311731238686
20
2.0849843538522284
10
5.2328440846450466
20
2.1652433422548589
10
5.2336568632443532
20
2.3243535452308137
10
5.3718567303224827
20
2.4032047598041379
0
LWPOLYLINE
5
281
100
AcDbEntity
8
INTERIOR_PROFILES
100
AcDbPolyline
90
11
70
1
43
0.0
10
6.2826357411603411
20
1.4065206735298561
10
6.4765987840783952
20
1.5227769923264356
10
6.669744186619349
20
1.4154385276152037
10
6.6735117556765307
20
1.4132296862238298
10
6.6756375607792018
20
1.3004106516110672
10
6.6748849718269074
20
1.1875740651475881
10
6.5782415362320297
20
1.1293222277165851
10
6.480148080449446
20
1.0735569400907139
10
6.3813787434873745
20
1.1281267183023194
10
6.2852570572165165
20
1.1844807110284949
10
6.282342792922412
20
1.3625985842173098
0
LWPOLYLINE
5
282
100
AcDbEntity
8
INTERIOR_PROFILES
100
AcDbPolyline
90
11
70
1
43
0.0
10
1.8535018828926244
20
2.6663631932148948
10
2.047464925810679
20
2.7826195120114758
10
2.2406103283516323
20
2.6752810473002429
10
2.2443778974088135
20
2.673072205908869
10
2.246503702511486
20
2.5602531712961061
10
2.2457511135591912
20
2.4474165848326273
10
2.1491076779643139
20
2.3891647474016242
10
2.0510142221817294
20
2.333399459775753
10
1.9522448852196581
20
2.3879692379873583
10
1.8561231989488001
20
2.4443232307135339
10
1.8532089346546965
20
2.6224411039023487
0
LWPOLYLINE
5
283
100
AcDbEntity
8
INTERIOR_PROFILES
100
AcDbPolyline
90
6
70
1
43
0.0
10
6.9838322225235663
20
2.9528670312440295
10
6.9830194439242588
20
2.7937568282680747
10
6.8448195768461311
20
2.71490561369475
10
6.7074324883673091
20
2.7951646020973788
10
6.7082452669666148
20
2.9542748050733336
10
6.8464451340447443
20
3.0331260196466592
0
LWPOLYLINE
5
284
100
AcDbEntity
8
INTERIOR_PROFILES
100
AcDbPolyline
90
6
70
1
43
0.0
10
6.2465380206624346
20
2.9528670312440295
10
6.2457252420631288
20
2.7937568282680747
10
6.1075253749849994
20
2.71490561369475
10
5.9701382865061774
20
2.7951646020973788
10
5.9709510651054849
20
2.9542748050733336
10
6.1091509321836126
20
3.0331260196466592
0
LWPOLYLINE
5
285
100
AcDbEntity
8
INTERIOR_PROFILES
100
AcDbPolyline
90
6
70
1
43
0.0
10
1.0854786076345182
20
2.9528670312440295
10
1.0846658290352114
20
2.7937568282680747
10
0.94646596195708244
20
2.71490561369475
10
0.80907887347826057
20
2.7951646020973788
10
0.80989165207756764
20
2.9542748050733336
10
0.94809151915569634
20
3.0331260196466592
0
LWPOLYLINE
5
286
100
AcDbEntity
8
INTERIOR_PROFILES
100
AcDbPolyline
90
6
70
1
43
0.0
10
5.258434802851478
20
6.8167422477413302
10
5.4157718345267245
20
6.7255732219499196
10
5.4154856579907067
20
6.5437308426674141
10
5.2578624497794442
20
6.4530574891763202
10
5.1005254181041977
20
6.544226514967729
10
5.1008115946402155
20
6.7260688942502345
0
LWPOLYLINE
5
287
100
AcDbEntity
8
INTERIOR_PROFILES
100
AcDbPolyline
90
6
70
1
43
0.0
10
5.2586590659763806
20
6.9592435889939237
10
5.1013220343011341
20
7.0504126147853343
10
5.1016082108371501
20
7.2322549940678398
10
5.2592314190484126
20
7.3229283475589328
10
5.4165684507236609
20
7.231759321767524
10
5.4162822741876431
20
7.0499169424850168
0
LWPOLYLINE
5
288
100
AcDbEntity
8
INTERIOR_PROFILES
100
AcDbPolyline
90
6
70
1
43
0.0
10
5.2610489145671862
20
8.4778018884467361
10
5.1037118828919397
20
8.5689709142381467
10
5.1039980594279566
20
8.7508132935206522
10
5.2616212676392191
20
8.841486647011747
10
5.4189582993144665
20
8.7503176212203364
10
5.4186721227784487
20
8.5684752419378309
0
LWPOLYLINE
5
289
100
AcDbEntity
8
INTERIOR_PROFILES
100
AcDbPolyline
90
6
70
1
43
0.0
10
5.2618455307641225
20
8.9839879882643405
10
5.1045084990888761
20
9.0751570140557511
10
5.1047946756248912
20
9.2569993933382566
10
5.2624178838361546
20
9.3476727468293532
10
5.419754915511402
20
9.2565037210379408
10
5.4194687389753851
20
9.0746613417554354
0
LWPOLYLINE
5
290
100
AcDbEntity
8
INTERIOR_PROFILES
100
AcDbPolyline
90
6
70
1
43
0.0
10
5.2626421469610571
20
9.4901740880819467
10
5.1053051152858107
20
9.5813431138733556
10
5.1055912918218276
20
9.7631854931558628
10
5.2632145000330901
20
9.8538588466469577
10
5.4205515317083366
20
9.7626898208555453
10
5.4202653551723197
20
9.5808474415730398
0
LWPOLYLINE
5
291
100
AcDbEntity
8
INTERIOR_PROFILES
100
AcDbPolyline
90
6
70
1
43
0.0
10
4.7359919072996819
20
5.9476914354437946
10
4.5786548756244354
20
6.0388604612352044
10
4.5789410521604514
20
6.2207028405177116
10
4.7365642603717157
20
6.3113761940088065
10
4.8939012920469622
20
6.2202071682173958
10
4.8936151155109444
20
6.0383647889348895
0
LWPOLYLINE
5
292
100
AcDbEntity
8
INTERIOR_PROFILES
100
AcDbPolyline
90
6
70
1
43
0.0
10
4.7367885234966174
20
6.4538775352614
10
4.57945149182137
20
6.5450465610528106
10
4.5797376683573878
20
6.726888940335316
10
4.7373608765686503
20
6.8175622938264118
10
4.8946979082438968
20
6.7263932680350011
10
4.8944117317078799
20
6.5445508887524939
0
LWPOLYLINE
5
293
100
AcDbEntity
8
INTERIOR_PROFILES
100
AcDbPolyline
90
6
70
1
43
0.0
10
4.7375851396935529
20
6.9600636350790035
10
4.5802481080183064
20
7.0512326608704141
10
4.5805342845543224
20
7.2330750401529214
10
4.738157492765585
20
7.3237483936440144
10
4.8954945244408332
20
7.2325793678526047
10
4.8952083479048154
20
7.0507369885700983
0
LWPOLYLINE
5
294
100
AcDbEntity
8
INTERIOR_PROFILES
100
AcDbPolyline
90
6
70
1
43
0.0
10
4.7399749882843585
20
8.4786219345318177
10
4.582637956609112
20
8.5697909603232265
10
4.5829241331451298
20
8.7516333396057338
10
4.7405473413563923
20
8.8423066930968286
10
4.8978843730316388
20
8.751137667305418
10
4.897598196495621
20
8.5692952880229125
0
LWPOLYLINE
5
295
100
AcDbEntity
8
INTERIOR_PROFILES
100
AcDbPolyline
90
6
70
1
43
0.0
10
4.7407716044812949
20
8.9848080343494221
10
4.5834345728060484
20
9.0759770601408327
10
4.5837207493420644
20
9.2578194394233382
10
4.7413439575533269
20
9.348492792914433
10
4.8986809892285743
20
9.2573237671230224
10
4.8983948126925574
20
9.0754813878405169
0
LWPOLYLINE
5
296
100
AcDbEntity
8
INTERIOR_PROFILES
100
AcDbPolyline
90
6
70
1
43
0.0
10
4.7415682206782295
20
9.4909941341670265
10
4.584231189002983
20
9.5821631599584354
10
4.5845173655389999
20
9.7640055392409426
10
4.7421405737502624
20
9.8546788927320357
10
4.8994776054255089
20
9.7635098669406268
10
4.899191428889492
20
9.5816674876581196
0
LWPOLYLINE
5
297
100
AcDbEntity
8
INTERIOR_PROFILES
100
AcDbPolyline
90
6
70
1
43
0.0
10
4.2149179810168551
20
5.9485114815288753
10
4.0575809493416077
20
6.0396805073202851
10
4.0578671258776238
20
6.2215228866027923
10
4.2154903340888863
20
6.3121962400938871
10
4.3728273657641346
20
6.2210272143024765
10
4.3725411892281176
20
6.0391848350199702
0
LWPOLYLINE
5
298
100
AcDbEntity
8
INTERIOR_PROFILES
100
AcDbPolyline
90
6
70
1
43
0.0
10
4.2157145972137897
20
6.4546975813464806
10
4.0583775655385432
20
6.5458666071378913
10
4.0586637420745602
20
6.7277089864203967
10
4.2162869502858227
20
6.8183823399114916
10
4.3736239819610692
20
6.7272133141200809
10
4.3733378054250522
20
6.5453709348375755
0
LWPOLYLINE
5
299
100
AcDbEntity
8
INTERIOR_PROFILES
100
AcDbPolyline
90
6
70
1
43
0.0
10
4.2165112134107252
20
6.9608836811640851
10
4.0591741817354787
20
7.0520527069554939
10
4.0594603582714948
20
7.2338950862380011
10
4.2170835664827573
20
7.324568439729096
10
4.3744205981580055
20
7.2333994139376863
10
4.3741344216219877
20
7.051557034655179
0
LWPOLYLINE
5
300
100
AcDbEntity
8
INTERIOR_PROFILES
100
AcDbPolyline
90
6
70
1
43
0.0
10
4.2189010620015308
20
8.4794419806168975
10
4.0615640303262843
20
8.5706110064083081
10
4.0618502068623021
20
8.7524533856908135
10
4.2194734150735647
20
8.8431267391819084
10
4.3768104467488111
20
8.7519577133904995
10
4.3765242702127933
20
8.5701153341079923
0
LWPOLYLINE
5
301
100
AcDbEntity
8
INTERIOR_PROFILES
100
AcDbPolyline
90
6
70
1
43
0.0
10
4.2196976781984672
20
8.9856280804345019
10
4.0623606465232207
20
9.0767971062259125
10
4.0626468230592367
20
9.2586394855084198
10
4.2202700312705002
20
9.3493128389995128
10
4.3776070629457475
20
9.258143813208104
10
4.3773208864097297
20
9.0763014339255967
0
LWPOLYLINE
5
302
100
AcDbEntity
8
INTERIOR_PROFILES
100
AcDbPolyline
90
6
70
1
43
0.0
10
4.2204942943954018
20
9.4918141802521063
10
4.0631572627201553
20
9.5829832060435169
10
4.0634434392561722
20
9.7648255853260224
10
4.2210666474674357
20
9.8554989388171172
10
4.3784036791426821
20
9.7643299130257066
10
4.3781175026066643
20
9.5824875337431994
0
LWPOLYLINE
5
303
100
AcDbEntity
8
INTERIOR_PROFILES
100
AcDbPolyline
90
6
70
1
43
0.0
10
3.6938440547340252
20
5.949331527613956
10
3.5365070230587783
20
6.0405005534053657
10
3.5367931995947961
20
6.222342932687873
10
3.6944164078060591
20
6.3130162861789669
10
3.8517534394813056
20
6.2218472603875572
10
3.8514672629452882
20
6.04000488110505
0
LWPOLYLINE
5
304
100
AcDbEntity
8
INTERIOR_PROFILES
100
AcDbPolyline
90
6
70
1
43
0.0
10
3.6946406709309603
20
6.4555176274315604
10
3.5373036392557147
20
6.5466866532229711
10
3.5375898157917312
20
6.7285290325054783
10
3.6952130240029946
20
6.8192023859965722
10
3.8525500556782419
20
6.7280333602051616
10
3.8522638791422246
20
6.5461909809226553
0
LWPOLYLINE
5
305
100
AcDbEntity
8
INTERIOR_PROFILES
100
AcDbPolyline
90
6
70
1
43
0.0
10
3.6954372871278958
20
6.9617037272491658
10
3.5381002554526502
20
7.0528727530405755
10
3.5383864319886666
20
7.2347151323230818
10
3.6960096401999301
20
7.3253884858141767
10
3.8533466718751765
20
7.2342194600227661
10
3.8530604953391592
20
7.0523770807402588
0
LWPOLYLINE
5
306
100
AcDbEntity
8
INTERIOR_PROFILES
100
AcDbPolyline
90
6
70
1
43
0.0
10
3.6978271357187027
20
8.480262026701979
10
3.5404901040434562
20
8.5714310524933897
10
3.5407762805794727
20
8.7532734317758951
10
3.6983994887907361
20
8.84394678526699
10
3.8557365204659835
20
8.7527777594755793
10
3.8554503439299661
20
8.5709353801930721
0
LWPOLYLINE
5
307
100
AcDbEntity
8
INTERIOR_PROFILES
100
AcDbPolyline
90
6
70
1
43
0.0
10
3.6986237519156373
20
8.9864481265195835
10
3.5412867202403917
20
9.0776171523109923
10
3.5415728967764082
20
9.2594595315934978
10
3.6991961049876716
20
9.3501328850845944
10
3.8565331366629181
20
9.258963859293182
10
3.8562469601269007
20
9.0771214800106765
0
LWPOLYLINE
5
308
100
AcDbEntity
8
INTERIOR_PROFILES
100
AcDbPolyline
90
6
70
1
43
0.0
10
3.6994203681125737
20
9.4926342263371861
10
3.5420833364373272
20
9.5838032521285967
10
3.5423695129733437
20
9.7656456314111022
10
3.6999927211846075
20
9.856318984902197
10
3.8573297528598545
20
9.7651499591107864
10
3.8570435763238367
20
9.583307579828281
0
LWPOLYLINE
5
309
100
AcDbEntity
8
INTERIOR_PROFILES
100
AcDbPolyline
90
6
70
1
43
0.0
10
3.1727701284511975
20
5.9501515736990367
10
3.0154330967759511
20
6.0413205994904464
10
3.0157192733119684
20
6.2231629787729537
10
3.1733424815232314
20
6.3138363322640485
10
3.3306795131984774
20
6.2226673064726379
10
3.330393336662461
20
6.0408249271901315
0
LWPOLYLINE
5
310
100
AcDbEntity
8
INTERIOR_PROFILES
100
AcDbPolyline
90
6
70
1
43
0.0
10
3.173566744648133
20
6.456337673516642
10
3.016229712972887
20
6.5475066993080526
10
3.0165158895089039
20
6.7293490785905581
10
3.1741390977201669
20
6.820022432081652
10
3.3314761293954129
20
6.7288534062902432
10
3.331189952859396
20
6.547011027007736
0
LWPOLYLINE
5
311
100
AcDbEntity
8
INTERIOR_PROFILES
100
AcDbPolyline
90
6
70
1
43
0.0
10
3.1743633608450685
20
6.9625237733342455
10
3.0170263291698225
20
7.0536927991256562
10
3.017312505705839
20
7.2355351784081616
10
3.1749357139171024
20
7.3262085318992565
10
3.3322727455923489
20
7.2350395061078459
10
3.3319865690563324
20
7.0531971268253404
0
LWPOLYLINE
5
312
100
AcDbEntity
8
INTERIOR_PROFILES
100
AcDbPolyline
90
6
70
1
43
0.0
10
3.1767532094358755
20
8.4810820727870588
10
3.0194161777606285
20
8.5722510985784695
10
3.0197023542966455
20
8.7540934778609749
10
3.1773255625079093
20
8.8447668313520698
10
3.3346625941831554
20
8.7535978055606591
10
3.3343764176471384
20
8.5717554262781537
0
LWPOLYLINE
5
313
100
AcDbEntity
8
INTERIOR_PROFILES
100
AcDbPolyline
90
6
70
1
43
0.0
10
3.1775498256328101
20
8.9872681726046633
10
3.020212793957564
20
9.0784371983960739
10
3.020498970493581
20
9.2602795776785793
10
3.1781221787048439
20
9.3509529311696742
10
3.3354592103800904
20
9.2597839053782636
10
3.3351730338440739
20
9.0779415260957581
0
LWPOLYLINE
5
314
100
AcDbEntity
8
INTERIOR_PROFILES
100
AcDbPolyline
90
6
70
1
43
0.0
10
3.178346441829746
20
9.4934542724222659
10
3.0210094101544995
20
9.5846232982136783
10
3.021295586690516
20
9.7664656774961838
10
3.1789187949017794
20
9.8571390309872786
10
3.3362558265770259
20
9.765970005195868
10
3.3359696500410094
20
9.5841276259133625
0
LWPOLYLINE
5
315
100
AcDbEntity
8
INTERIOR_PROFILES
100
AcDbPolyline
90
6
70
1
43
0.0
10
2.6516962021683699
20
5.9509716197841174
10
2.4943591704931234
20
6.0421406455755271
10
2.4946453470291403
20
6.2239830248580343
10
2.6522685552404033
20
6.3146563783491292
10
2.8096055869156498
20
6.2234873525577186
10
2.8093194103796333
20
6.0416449732752122
0
LWPOLYLINE
5
316
100
AcDbEntity
8
INTERIOR_PROFILES
100
AcDbPolyline
90
6
70
1
43
0.0
10
2.6524928183653045
20
6.4571577196017227
10
2.4951557866900589
20
6.5483267453931333
10
2.4954419632260754
20
6.7301691246756388
10
2.6530651714373388
20
6.8208424781667336
10
2.8104022031125853
20
6.729673452375323
10
2.8101160265765688
20
6.5478310730928158
0
LWPOLYLINE
5
317
100
AcDbEntity
8
INTERIOR_PROFILES
100
AcDbPolyline
90
6
70
1
43
0.0
10
2.6532894345622409
20
6.9633438194193271
10
2.4959524028869944
20
7.054512845210736
10
2.4962385794230117
20
7.2363552244932432
10
2.6538617876342747
20
7.3270285779843372
10
2.8111988193095208
20
7.2358595521929265
10
2.8109126427735043
20
7.0540171729104211
0
LWPOLYLINE
5
318
100
AcDbEntity
8
INTERIOR_PROFILES
100
AcDbPolyline
90
6
70
1
43
0.0
10
2.6556792831530469
20
8.4819021188721404
10
2.4983422514778013
20
8.573071144663551
10
2.4986284280138178
20
8.7549135239460565
10
2.6562516362250812
20
8.8455868774371496
10
2.8135886679003268
20
8.7544178516457407
10
2.8133024913643103
20
8.5725754723632352
0
LWPOLYLINE
5
319
100
AcDbEntity
8
INTERIOR_PROFILES
100
AcDbPolyline
90
6
70
1
43
0.0
10
2.6564758993499824
20
8.9880882186897431
10
2.4991388676747359
20
9.0792572444811537
10
2.4994250442107533
20
9.2610996237636609
10
2.6570482524220171
20
9.351772977254754
10
2.8143852840972623
20
9.2606039514633434
10
2.8140991075612458
20
9.0787615721808379
0
LWPOLYLINE
5
320
100
AcDbEntity
8
INTERIOR_PROFILES
100
AcDbPolyline
90
6
70
1
43
0.0
10
2.6572725155469179
20
9.4942743185073475
10
2.4999354838716719
20
9.5854433442987581
10
2.5002216604076888
20
9.7672857235812653
10
2.6578448686189513
20
9.8579590770723602
10
2.8151819002941978
20
9.7667900512809496
10
2.8148957237581809
20
9.5849476719984441
0
LWPOLYLINE
5
321
100
AcDbEntity
8
INTERIOR_PROFILES
100
AcDbPolyline
90
6
70
1
43
0.0
10
2.1306222758855418
20
5.9517916658691981
10
1.9732852442102959
20
6.0429606916606078
10
1.9735714207463126
20
6.2248030709431141
10
2.1311946289575756
20
6.315476424434209
10
2.2885316606328225
20
6.2243073986427984
10
2.2882454840968056
20
6.042465019360292
0
LWPOLYLINE
5
322
100
AcDbEntity
8
INTERIOR_PROFILES
100
AcDbPolyline
90
6
70
1
43
0.0
10
2.1314188920824773
20
6.4579777656868025
10
1.9740818604072312
20
6.5491467914782131
10
1.9743680369432479
20
6.7309891707607203
10
2.1319912451545107
20
6.8216625242518134
10
2.2893282768297576
20
6.7304934984604028
10
2.2890421002937411
20
6.5486511191778973
0
LWPOLYLINE
5
323
100
AcDbEntity
8
INTERIOR_PROFILES
100
AcDbPolyline
90
6
70
1
43
0.0
10
2.1322155082794128
20
6.9641638655044069
10
1.9748784766041667
20
7.0553328912958166
10
1.9751646531401834
20
7.237175270578323
10
2.1327878613514462
20
7.3278486240694187
10
2.2901248930266931
20
7.2366795982780081
10
2.2898387164906766
20
7.0548372189955009
0
LWPOLYLINE
5
324
100
AcDbEntity
8
INTERIOR_PROFILES
100
AcDbPolyline
90
6
70
1
43
0.0
10
2.1346053568702188
20
8.4827221649572202
10
1.977268325194973
20
8.573891190748629
10
1.9775545017309897
20
8.7557335700311363
10
2.1351777099422526
20
8.8464069235222311
10
2.2925147416174996
20
8.7552378977308205
10
2.2922285650814826
20
8.5733955184483133
0
LWPOLYLINE
5
325
100
AcDbEntity
8
INTERIOR_PROFILES
100
AcDbPolyline
90
6
70
1
43
0.0
10
2.1354019730671543
20
8.9889082647748246
10
1.9780649413919082
20
9.0800772905662335
10
1.978351117927925
20
9.2619196698487407
10
2.1359743261391877
20
9.3525930233398356
10
2.2933113578144346
20
9.2614239975484249
10
2.2930251812784181
20
9.0795816182659195
0
LWPOLYLINE
5
326
100
AcDbEntity
8
INTERIOR_PROFILES
100
AcDbPolyline
90
6
70
1
43
0.0
10
2.1361985892640898
20
9.4950943645924291
10
1.9788615575888437
20
9.5862633903838397
10
1.9791477341248604
20
9.7681057696663451
10
2.1367709423361232
20
9.85877912315744
10
2.2941079740113701
20
9.7676100973660294
10
2.2938217974753536
20
9.5857677180835239
0
LWPOLYLINE
5
327
100
AcDbEntity
8
INTERIOR_PROFILES
100
AcDbPolyline
90
6
70
1
43
0.0
10
1.6095483496027141
20
5.9526117119542787
10
1.4522113179274683
20
6.0437807377456885
10
1.4524974944634848
20
6.2256231170281957
10
1.6101207026747479
20
6.3162964705192888
10
1.7674577343499942
20
6.2251274447278799
10
1.7671715578139775
20
6.0432850654453727
0
LWPOLYLINE
5
328
100
AcDbEntity
8
INTERIOR_PROFILES
100
AcDbPolyline
90
6
70
1
43
0.0
10
1.6103449657996496
20
6.4587978117718841
10
1.4530079341244033
20
6.5499668375632929
10
1.4532941106604202
20
6.7318092168458001
10
1.6109173188716834
20
6.822482570336895
10
1.7682543505469295
20
6.7313135445454844
10
1.7679681740109128
20
6.549471165262978
0
LWPOLYLINE
5
329
100
AcDbEntity
8
INTERIOR_PROFILES
100
AcDbPolyline
90
6
70
1
43
0.0
10
8.9061765499561734
20
6.9535032663983598
10
8.7488395182809278
20
7.0446722921897695
10
8.7491256948169447
20
7.2265146714722759
10
8.906748903028209
20
7.3171880249633707
10
9.0640859347034528
20
7.2260189991719601
10
9.0637997581674377
20
7.0441766198894546
0
LWPOLYLINE
5
330
100
AcDbEntity
8
INTERIOR_PROFILES
100
AcDbPolyline
90
6
70
1
43
0.0
10
8.9085663985469807
20
8.4720615658511722
10
8.7512293668717351
20
8.5632305916425828
10
8.7515155434077503
20
8.7450729709250883
10
8.9091387516190146
20
8.8357463244161831
10
9.0664757832942602
20
8.7445772986247725
10
9.066189606758245
20
8.562734919342267
0
LWPOLYLINE
5
331
100
AcDbEntity
8
INTERIOR_PROFILES
100
AcDbPolyline
90
6
70
1
43
0.0
10
8.9093630147439153
20
8.9782476656687766
10
8.7520259830686697
20
9.0694166914601873
10
8.7523121596046867
20
9.2512590707426927
10
8.9099353678159492
20
9.3419324242337876
10
9.0672723994911948
20
9.2507633984423787
10
9.0669862229551796
20
9.0689210191598715
0
LWPOLYLINE
5
332
100
AcDbEntity
8
INTERIOR_PROFILES
100
AcDbPolyline
90
6
70
1
43
0.0
10
8.9101596309408517
20
9.4844337654863811
10
8.7528225992656079
20
9.5756027912777917
10
8.7531087758016231
20
9.7574451705602989
10
8.9107319840128874
20
9.848118524051392
10
9.068069015688133
20
9.7569494982599831
10
9.067782839152116
20
9.5751071189774759
0
LWPOLYLINE
5
333
100
AcDbEntity
8
INTERIOR_PROFILES
100
AcDbPolyline
90
6
70
1
43
0.0
10
8.3835093912794765
20
5.9419511128482307
10
8.2261723596042309
20
6.0331201386396405
10
8.2264585361402478
20
6.2149625179221477
10
8.3840817443515085
20
6.3056358714132417
10
8.5414187760267559
20
6.2144668456218319
10
8.5411325994907408
20
6.0326244663393256
0
LWPOLYLINE
5
334
100
AcDbEntity
8
INTERIOR_PROFILES
100
AcDbPolyline
90
6
70
1
43
0.0
10
8.3843060074764111
20
6.4481372126658361
10
8.2269689758011655
20
6.5393062384572458
10
8.2272551523371824
20
6.7211486177397521
10
8.3848783605484467
20
6.8118219712308479
10
8.5422153922236905
20
6.7206529454394373
10
8.5419292156876754
20
6.53881056615693
0
LWPOLYLINE
5
335
100
AcDbEntity
8
INTERIOR_PROFILES
100
AcDbPolyline
90
6
70
1
43
0.0
10
8.3851026236733457
20
6.9543233124834396
10
8.2277655919981001
20
7.0454923382748502
10
8.228051768534117
20
7.2273347175573557
10
8.3856749767453813
20
7.3180080710484505
10
8.5430120084206251
20
7.2268390452570399
10
8.54272583188461
20
7.0449966659745344
0
LWPOLYLINE
5
336
100
AcDbEntity
8
INTERIOR_PROFILES
100
AcDbPolyline
90
6
70
1
43
0.0
10
8.3874924722641531
20
8.472881611936252
10
8.2301554405889075
20
8.5640506377276626
10
8.2304416171249244
20
8.7458930170101699
10
8.3880648253361869
20
8.8365663705012629
10
8.5454018570114325
20
8.7453973447098541
10
8.5451156804754174
20
8.5635549654273468
0
LWPOLYLINE
5
337
100
AcDbEntity
8
INTERIOR_PROFILES
100
AcDbPolyline
90
6
70
1
43
0.0
10
8.3882890884610877
20
8.9790677117538582
10
8.2309520567858421
20
9.070236737545267
10
8.231238233321859
20
9.2520791168277743
10
8.3888614415331215
20
9.3427524703188691
10
8.5461984732083671
20
9.2515834445274585
10
8.545912296672352
20
9.069741065244953
0
LWPOLYLINE
5
338
100
AcDbEntity
8
INTERIOR_PROFILES
100
AcDbPolyline
90
6
70
1
43
0.0
10
8.3890857046580258
20
9.4852538115714626
10
8.2317486729827802
20
9.5764228373628715
10
8.2320348495187954
20
9.7582652166453787
10
8.3896580577300561
20
9.8489385701364718
10
8.5469950894053053
20
9.7577695443450629
10
8.5467089128692884
20
9.5759271650625557
0
LWPOLYLINE
5
339
100
AcDbEntity
8
INTERIOR_PROFILES
100
AcDbPolyline
90
6
70
1
43
0.0
10
7.8624354649966488
20
5.9427711589333114
10
7.7050984333214041
20
6.0339401847247212
10
7.7053846098574201
20
6.2157825640072284
10
7.8630078180686809
20
6.3064559174983232
10
8.0203448497439283
20
6.2152868917069126
10
8.0200586732079131
20
6.0334445124244072
0
LWPOLYLINE
5
340
100
AcDbEntity
8
INTERIOR_PROFILES
100
AcDbPolyline
90
6
70
1
43
0.0
10
7.8632320811935834
20
6.4489572587509167
10
7.7058950495183387
20
6.5401262845423274
10
7.7061812260543547
20
6.7219686638248328
10
7.8638044342656181
20
6.8126420173159277
10
8.0211414659408629
20
6.721472991524517
10
8.0208552894048477
20
6.5396306122420116
0
LWPOLYLINE
5
341
100
AcDbEntity
8
INTERIOR_PROFILES
100
AcDbPolyline
90
6
70
1
43
0.0
10
7.864028697390518
20
6.9551433585685194
10
7.7066916657152733
20
7.04631238435993
10
7.7069778422512893
20
7.2281547636424373
10
7.8646010504625528
20
7.3188281171335312
10
8.0219380821377975
20
7.2276590913421215
10
8.0216519056017823
20
7.0458167120596151
0
LWPOLYLINE
5
342
100
AcDbEntity
8
INTERIOR_PROFILES
100
AcDbPolyline
90
6
70
1
43
0.0
10
7.8664185459813254
20
8.4737016580213336
10
7.7090815143060798
20
8.5648706838127424
10
7.7093676908420958
20
8.7467130630952497
10
7.8669908990533601
20
8.8373864165863445
10
8.0243279307286048
20
8.7462173907949357
10
8.0240417541925897
20
8.5643750115124284
0
LWPOLYLINE
5
343
100
AcDbEntity
8
INTERIOR_PROFILES
100
AcDbPolyline
90
6
70
1
43
0.0
10
7.86721516217826
20
8.979887757838938
10
7.7098781305030144
20
9.0710567836303486
10
7.7101643070390304
20
9.2528991629128541
10
7.8677875152502947
20
9.3435725164039489
10
8.0251245469255394
20
9.2524034906125383
10
8.0248383703895243
20
9.0705611113300328
0
LWPOLYLINE
5
344
100
AcDbEntity
8
INTERIOR_PROFILES
100
AcDbPolyline
90
6
70
1
43
0.0
10
7.8680117783751973
20
9.4860738576565424
10
7.7106747466999526
20
9.577242883447953
10
7.7109609232359686
20
9.7590852627304585
10
7.8685841314472293
20
9.8497586162215516
10
8.0259211631224776
20
9.7585895904301427
10
8.0256349865864607
20
9.5767472111476373
0
LWPOLYLINE
5
345
100
AcDbEntity
8
INTERIOR_PROFILES
100
AcDbPolyline
90
6
70
1
43
0.0
10
7.3413615387138185
20
5.9435912050183921
10
7.1840245070385738
20
6.0347602308098018
10
7.1843106835745898
20
6.2166026100923091
10
7.3419338917858532
20
6.307275963583403
10
7.4992709234610988
20
6.2161069377919933
10
7.4989847469250828
20
6.034264558509487
0
LWPOLYLINE
5
346
100
AcDbEntity
8
INTERIOR_PROFILES
100
AcDbPolyline
90
6
70
1
43
0.0
10
7.3421581549107557
20
6.4497773048359965
10
7.184821123235511
20
6.5409463306274072
10
7.1851072997715271
20
6.7227887099099144
10
7.3427305079827878
20
6.8134620634010075
10
7.5000675396580361
20
6.7222930376095986
10
7.49978136312202
20
6.5404506583270914
0
LWPOLYLINE
5
347
100
AcDbEntity
8
INTERIOR_PROFILES
100
AcDbPolyline
90
6
70
1
43
0.0
10
7.3429547711076903
20
6.955963404653601
10
7.1856177394324456
20
7.0471324304450107
10
7.1859039159684617
20
7.2289748097275179
10
7.3435271241797224
20
7.319648163218611
10
7.5008641558549707
20
7.2284791374272022
10
7.5005779793189546
20
7.0466367581446949
0
LWPOLYLINE
5
348
100
AcDbEntity
8
INTERIOR_PROFILES
100
AcDbPolyline
90
6
70
1
43
0.0
10
7.3453446196984977
20
8.4745217041064151
10
7.1880075880232521
20
8.565690729897824
10
7.1882937645592682
20
8.7475331091803312
10
7.3459169727705298
20
8.8382064626714243
10
7.5032540044457781
20
8.7470374368800154
10
7.502967827909762
20
8.56519505759751
0
LWPOLYLINE
5
349
100
AcDbEntity
8
INTERIOR_PROFILES
100
AcDbPolyline
90
6
70
1
43
0.0
10
7.3461412358954323
20
8.9807078039240178
10
7.1888042042201876
20
9.0718768297154284
10
7.1890903807562028
20
9.2537192089979357
10
7.3467135889674644
20
9.3443925624890287
10
7.5040506206427127
20
9.2532235366976199
10
7.5037644441066966
20
9.0713811574151144
0
LWPOLYLINE
5
350
100
AcDbEntity
8
INTERIOR_PROFILES
100
AcDbPolyline
90
6
70
1
43
0.0
10
7.3469378520923669
20
9.4868939037416222
10
7.1896008204171222
20
9.5780629295330328
10
7.1898869969531383
20
9.7599053088155401
10
7.3475102051644017
20
9.8505786623066331
10
7.5048472368396473
20
9.7594096365152243
10
7.5045610603036312
20
9.5775672572327171
0
LWPOLYLINE
5
351
100
AcDbEntity
8
INTERIOR_PROFILES
100
AcDbPolyline
90
6
70
1
43
0.0
10
6.8202876124309926
20
5.9444112511034728
10
6.6629505807557461
20
6.0355802768948834
10
6.663236757291763
20
6.2174226561773898
10
6.8208599655030255
20
6.3080960096684846
10
6.9781969971782711
20
6.216926983877074
10
6.9779108206422551
20
6.0350846045945667
0
LWPOLYLINE
5
352
100
AcDbEntity
8
INTERIOR_PROFILES
100
AcDbPolyline
90
6
70
1
43
0.0
10
6.821084228627929
20
6.4505973509210781
10
6.6637471969526816
20
6.541766376712487
10
6.6640333734886976
20
6.7236087559949942
10
6.8216565816999601
20
6.8142821094860881
10
6.9789936133752084
20
6.7231130836946793
10
6.9787074368391924
20
6.5412707044121721
0
LWPOLYLINE
5
353
100
AcDbEntity
8
INTERIOR_PROFILES
100
AcDbPolyline
90
6
70
1
43
0.0
10
6.8218808448248636
20
6.9567834507386817
10
6.6645438131496171
20
7.0479524765300923
10
6.664829989685634
20
7.2297948558125977
10
6.8224531978968965
20
7.3204682093036926
10
6.979790229572143
20
7.229299183512282
10
6.979504053036127
20
7.0474568042297765
0
LWPOLYLINE
5
354
100
AcDbEntity
8
INTERIOR_PROFILES
100
AcDbPolyline
90
6
70
1
43
0.0
10
6.8242706934156701
20
8.4753417501914949
10
6.6669336617404236
20
8.5665107759829056
10
6.6672198382764396
20
8.7483531552654128
10
6.8248430464877021
20
8.8390265087565059
10
6.9821800781629504
20
8.747857482965097
10
6.9818939016269344
20
8.566015103682588
0
LWPOLYLINE
5
355
100
AcDbEntity
8
INTERIOR_PROFILES
100
AcDbPolyline
90
6
70
1
43
0.0
10
6.8250673096126047
20
8.9815278500090994
10
6.6677302779373582
20
9.0726968758005082
10
6.668016454473376
20
9.2545392550830137
10
6.8256396626846385
20
9.3452126085741103
10
6.982976694359885
20
9.2540435827826979
10
6.982690517823869
20
9.0722012035001942
0
LWPOLYLINE
5
356
100
AcDbEntity
8
INTERIOR_PROFILES
100
AcDbPolyline
90
6
70
1
43
0.0
10
6.825863925809541
20
9.4877139498267038
10
6.6685268941342946
20
9.5788829756181126
10
6.6688130706703106
20
9.7607253549006199
10
6.826436278881574
20
9.8513987083917147
10
6.9837733105568196
20
9.7602296826003041
10
6.9834871340208036
20
9.5783873033177969
0
LWPOLYLINE
5
357
100
AcDbEntity
8
INTERIOR_PROFILES
100
AcDbPolyline
90
6
70
1
43
0.0
10
6.2992136861481649
20
5.9452312971885526
10
6.1418766544729184
20
6.0364003229799632
10
6.1421628310089353
20
6.2182427022624696
10
6.2997860392201979
20
6.3089160557535644
10
6.4571230708954452
20
6.2177470299621547
10
6.4568368943594274
20
6.0359046506796474
0
LWPOLYLINE
5
358
100
AcDbEntity
8
INTERIOR_PROFILES
100
AcDbPolyline
90
6
70
1
43
0.0
10
6.3000103023451013
20
6.4514173970061579
10
6.1426732706698548
20
6.5425864227975685
10
6.1429594472058708
20
6.7244288020800749
10
6.3005826554171334
20
6.8151021555711679
10
6.4579196870923807
20
6.7239331297797591
10
6.4576335105563638
20
6.5420907504972519
0
LWPOLYLINE
5
359
100
AcDbEntity
8
INTERIOR_PROFILES
100
AcDbPolyline
90
6
70
1
43
0.0
10
6.3008069185420359
20
6.9576034968237614
10
6.1434698868667894
20
7.0487725226151721
10
6.1437560634028063
20
7.2306149018976793
10
6.3013792716140689
20
7.3212882553887733
10
6.4587163032893153
20
7.2301192295973635
10
6.4584301267532984
20
7.0482768503148572
0
LWPOLYLINE
5
360
100
AcDbEntity
8
INTERIOR_PROFILES
100
AcDbPolyline
90
6
70
1
43
0.0
10
6.3031967671328424
20
8.4761617962765765
10
6.1458597354575959
20
8.5673308220679854
10
6.1461459119936119
20
8.7491732013504926
10
6.3037691202048745
20
8.8398465548415857
10
6.4611061518801227
20
8.748677529050175
10
6.4608199753441049
20
8.5668351497676696
0
LWPOLYLINE
5
361
100
AcDbEntity
8
INTERIOR_PROFILES
100
AcDbPolyline
90
6
70
1
43
0.0
10
6.303993383329777
20
8.9823478960941792
10
6.1466563516545305
20
9.0735169218855898
10
6.1469425281905483
20
9.2553593011680952
10
6.3045657364018108
20
9.3460326546591901
10
6.4619027680770573
20
9.2548636288677795
10
6.4616165915410395
20
9.073021249585274
0
LWPOLYLINE
5
362
100
AcDbEntity
8
INTERIOR_PROFILES
100
AcDbPolyline
90
6
70
1
43
0.0
10
6.3047899995267134
20
9.4885339959117836
10
6.1474529678514669
20
9.5797030217031942
10
6.1477391443874829
20
9.7615454009856997
10
6.3053623525987472
20
9.8522187544767963
10
6.4626993842739937
20
9.7610497286853857
10
6.4624132077379759
20
9.5792073494028784
0
LWPOLYLINE
5
363
100
AcDbEntity
8
INTERIOR_PROFILES
100
AcDbPolyline
90
6
70
1
43
0.0
10
5.7781397598653372
20
5.9460513432736342
10
5.6208027281900907
20
6.0372203690650439
10
5.6210889047261086
20
6.2190627483475502
10
5.7787121129373711
20
6.3097361018386451
10
5.9360491446126176
20
6.2185670760472345
10
5.9357629680765998
20
6.0367246967647281
0
LWPOLYLINE
5
364
100
AcDbEntity
8
INTERIOR_PROFILES
100
AcDbPolyline
90
6
70
1
43
0.0
10
5.7789363760622736
20
6.4522374430912386
10
5.6215993443870271
20
6.5434064688826492
10
5.6218855209230432
20
6.7252488481651564
10
5.7795087291343057
20
6.8159222016562495
10
5.9368457608095531
20
6.7247531758648389
10
5.9365595842735361
20
6.5429107965823334
0
LWPOLYLINE
5
365
100
AcDbEntity
8
INTERIOR_PROFILES
100
AcDbPolyline
90
6
70
1
43
0.0
10
5.7797329922592082
20
6.958423542908843
10
5.6223959605839617
20
7.0495925687002527
10
5.6226821371199787
20
7.2314349479827591
10
5.7803053453312412
20
7.3221083014738548
10
5.9376423770064877
20
7.2309392756824442
10
5.9373562004704707
20
7.049096896399937
0
LWPOLYLINE
5
366
100
AcDbEntity
8
INTERIOR_PROFILES
100
AcDbPolyline
90
6
70
1
43
0.0
10
5.7821228408500147
20
8.4769818423616545
10
5.6247858091747682
20
8.5681508681530669
10
5.6250719857107843
20
8.7499932474355724
10
5.7826951939220468
20
8.8406666009266655
10
5.940032225597295
20
8.7494975751352566
10
5.9397460490612772
20
8.5676551958527494
0
LWPOLYLINE
5
367
100
AcDbEntity
8
INTERIOR_PROFILES
100
AcDbPolyline
90
6
70
1
43
0.0
10
5.7829194570469502
20
8.9831679421792607
10
5.6255824253717028
20
9.0743369679706696
10
5.6258686019077206
20
9.2561793472531768
10
5.7834918101189832
20
9.3468527007442717
10
5.9408288417942297
20
9.255683674952861
10
5.9405426652582127
20
9.0738412956703556
0
LWPOLYLINE
5
368
100
AcDbEntity
8
INTERIOR_PROFILES
100
AcDbPolyline
90
6
70
1
43
0.0
10
5.7837160732438857
20
9.4893540419968652
10
5.6263790415686392
20
9.5805230677882758
10
5.6266652181046553
20
9.7623654470707812
10
5.7842884263159196
20
9.8530388005618761
10
5.941625457991166
20
9.7618697747704655
10
5.9413392814551482
20
9.5800273954879582
0
LWPOLYLINE
5
369
100
AcDbEntity
8
INTERIOR_PROFILES
100
AcDbPolyline
90
6
70
1
43
0.0
10
5.2570658335825096
20
5.9468713893587148
10
5.0997288019072631
20
6.0380404151501246
10
5.1000149784432791
20
6.2198827944326318
10
5.2576381866545434
20
6.3105561479237267
10
5.4149752183297899
20
6.219387122132316
10
5.4146890417937721
20
6.0375447428498088
0
LWPOLYLINE
5
370
100
AcDbEntity
8
INTERIOR_PROFILES
100
AcDbPolyline
90
11
70
1
43
0.0
10
5.0002208313224905
20
13.662788425477183
10
4.8062577884044355
20
13.779044744273763
10
4.8059648401665065
20
13.82296683358631
10
4.8088791044606118
20
14.001084706775124
10
4.9050007907314699
20
14.057438699501301
10
5.0037701276935413
20
14.112008477712905
10
5.1018635834761241
20
14.056243190087034
10
5.1985070190710019
20
13.99799135265603
10
5.1992596080232962
20
13.885154766192553
10
5.1971338029206251
20
13.772335731579789
10
5.1933662338634434
20
13.770126890188415
0
LWPOLYLINE
5
371
100
AcDbEntity
8
INTERIOR_PROFILES
100
AcDbPolyline
90
8
70
1
43
0.0
10
0.55830065489501413
20
7.760105543547489
42
0.41421356237309476
10
0.64688333206036841
20
7.6715228663821344
10
0.94215892261154943
20
7.6715228663821344
42
0.41421356237309559
10
1.0307415997769038
20
7.760105543547489
10
1.0307415997769038
20
8.0553811340986705
42
0.41421356237309559
10
0.94215892261154943
20
8.1439638112640242
10
0.64688333206036874
20
8.1439638112640242
42
0.41421356237309587
10
0.55830065489501435
20
8.0553811340986705
0
LWPOLYLINE
5
372
100
AcDbEntity
8
INTERIOR_PROFILES
100
AcDbPolyline
90
11
70
1
43
0.0
10
5.0002208313224905
20
11.143103386107104
10
4.8062577884044355
20
11.259359704903682
10
4.8059648401665065
20
11.303281794216229
10
4.8088791044606118
20
11.481399667405043
10
4.9050007907314699
20
11.537753660131219
10
5.0037701276935413
20
11.592323438342826
10
5.1018635834761241
20
11.536558150716953
10
5.1985070190710019
20
11.478306313285952
10
5.1992596080232962
20
11.365469726822472
10
5.1971338029206251
20
11.252650692209711
10
5.1933662338634434
20
11.250441850818337
0
LWPOLYLINE
5
373
100
AcDbEntity
8
INTERIOR_PROFILES
100
AcDbPolyline
90
11
70
1
43
0.0
10
7.9529767368343007
20
13.032867165634663
10
7.7590136939162466
20
13.149123484431243
10
7.7587207456783194
20
13.19304557374379
10
7.7616350099724221
20
13.371163446932604
10
7.8577566962432801
20
13.42751743965878
10
7.9565260332053516
20
13.482087217870385
10
8.0546194889879352
20
13.426321930244514
10
8.1512629245828148
20
13.368070092813513
10
8.1520155135351082
20
13.255233506350033
10
8.1498897084324362
20
13.14241447173727
10
8.1461221393752563
20
13.140205630345896
0
LWPOLYLINE
5
374
100
AcDbEntity
8
INTERIOR_PROFILES
100
AcDbPolyline
90
11
70
1
43
0.0
10
9.4293546895902072
20
13.032867165634663
10
9.2353916466721522
20
13.149123484431243
10
9.2350986984342249
20
13.19304557374379
10
9.2380129627283285
20
13.371163446932604
10
9.3341346489991857
20
13.42751743965878
10
9.4329039859612571
20
13.482087217870385
10
9.5309974417438408
20
13.426321930244514
10
9.6276408773387203
20
13.368070092813513
10
9.6283934662910138
20
13.255233506350033
10
9.6262676611883418
20
13.14241447173727
10
9.6225000921311601
20
13.140205630345896
0
LWPOLYLINE
5
375
100
AcDbEntity
8
INTERIOR_PROFILES
100
AcDbPolyline
90
11
70
1
43
0.0
10
7.214787760456348
20
14.292709685319702
10
7.0208247175382938
20
14.408966004116284
10
7.0205317693003666
20
14.452888093428827
10
7.0234460335944693
20
14.631005966617645
10
7.1195677198653273
20
14.687359959343818
10
7.2183370568273988
20
14.741929737555424
10
7.3164305126099825
20
14.686164449929555
10
7.4130739482048611
20
14.62791261249855
10
7.4138265371571554
20
14.51507602603507
10
7.4117007320544825
20
14.402256991422309
10
7.4079331629973026
20
14.400048150030935
0
LWPOLYLINE
5
376
100
AcDbEntity
8
INTERIOR_PROFILES
100
AcDbPolyline
90
11
70
1
43
0.0
10
8.6911657132122535
20
13.032867165634663
10
8.4972026702941985
20
13.149123484431243
10
8.4969097220562713
20
13.19304557374379
10
8.4998239863503748
20
13.371163446932604
10
8.5959456726212338
20
13.42751743965878
10
8.6947150095833052
20
13.482087217870385
10
8.7928084653658871
20
13.426321930244514
10
8.8894519009607667
20
13.368070092813513
10
8.8902044899130601
20
13.255233506350033
10
8.8880786848103881
20
13.14241447173727
10
8.8843111157532082
20
13.140205630345896
0
LWPOLYLINE
5
377
100
AcDbEntity
8
INTERIOR_PROFILES
100
AcDbPolyline
90
6
70
1
43
0.0
10
6.2457252420631288
20
11.761887329693023
10
6.2465380206624346
20
11.60277712671707
10
6.1091509321836126
20
11.522518138314439
10
5.9709510651054849
20
11.601369352887765
10
5.9701382865061774
20
11.76047955586372
10
6.1075253749849994
20
11.840738544266349
0
LWPOLYLINE
5
378
100
AcDbEntity
8
INTERIOR_PROFILES
100
AcDbPolyline
90
11
70
1
43
0.0
10
8.6911657132122535
20
13.662788425477183
10
8.4972026702941985
20
13.779044744273763
10
8.4969097220562713
20
13.82296683358631
10
8.4998239863503748
20
14.001084706775124
10
8.5959456726212338
20
14.057438699501301
10
8.6947150095833052
20
14.112008477712905
10
8.7928084653658871
20
14.056243190087034
10
8.8894519009607667
20
13.99799135265603
10
8.8902044899130601
20
13.885154766192553
10
8.8880786848103881
20
13.772335731579789
10
8.8843111157532082
20
13.770126890188415
0
LWPOLYLINE
5
379
100
AcDbEntity
8
INTERIOR_PROFILES
100
AcDbPolyline
90
6
70
1
43
0.0
10
5.5084310402019971
20
14.281572369063104
10
5.5092438188013046
20
14.122462166087148
10
5.3718567303224827
20
14.04220317768452
10
5.2336568632443532
20
14.121054392257843
10
5.2328440846450466
20
14.280164595233799
10
5.3702311731238686
20
14.360423583636431
0
LWPOLYLINE
5
380
100
AcDbEntity
8
INTERIOR_PROFILES
100
AcDbPolyline
90
11
70
1
43
0.0
10
3.5238428785665841
20
13.032867165634663
10
3.3298798356485304
20
13.149123484431243
10
3.3295868874106023
20
13.19304557374379
10
3.3325011517047054
20
13.371163446932604
10
3.4286228379755634
20
13.42751743965878
10
3.5273921749376349
20
13.482087217870385
10
3.625485630720219
20
13.426321930244514
10
3.7221290663150963
20
13.368070092813513
10
3.7228816552673907
20
13.255233506350033
10
3.7207558501647187
20
13.14241447173727
10
3.7169882811075379
20
13.140205630345896
0
LWPOLYLINE
5
381
100
AcDbEntity
8
INTERIOR_PROFILES
100
AcDbPolyline
90
11
70
1
43
0.0
10
2.7856539021886313
20
13.662788425477183
10
2.5916908592705776
20
13.779044744273763
10
2.5913979110326495
20
13.82296683358631
10
2.5943121753267526
20
14.001084706775124
10
2.6904338615976107
20
14.057438699501301
10
2.7892031985596821
20
14.112008477712905
10
2.8872966543422662
20
14.056243190087034
10
2.983940089937144
20
13.99799135265603
10
2.9846926788894388
20
13.885154766192553
10
2.9825668737867663
20
13.772335731579789
10
2.9787993047295851
20
13.770126890188415
0
LWPOLYLINE
5
382
100
AcDbEntity
8
INTERIOR_PROFILES
100
AcDbPolyline
90
6
70
1
43
0.0
10
5.5084310402019971
20
12.391808589535543
10
5.5092438188013046
20
12.232698386559591
10
5.3718567303224827
20
12.152439398156959
10
5.2336568632443532
20
12.231290612730286
10
5.2328440846450466
20
12.39040081570624
10
5.3702311731238686
20
12.47065980410887
0
LWPOLYLINE
5
383
100
AcDbEntity
8
INTERIOR_PROFILES
100
AcDbPolyline
90
6
70
1
43
0.0
10
4.7711368383408663
20
14.281572369063104
10
4.7719496169401729
20
14.122462166087148
10
4.634562528461351
20
14.04220317768452
10
4.4963626613832224
20
14.121054392257843
10
4.4955498827839149
20
14.280164595233799
10
4.6329369712627368
20
14.360423583636431
0
LWPOLYLINE
5
384
100
AcDbEntity
8
INTERIOR_PROFILES
100
AcDbPolyline
90
11
70
1
43
0.0
10
6.4765987840783952
20
13.662788425477183
10
6.2826357411603411
20
13.779044744273763
10
6.282342792922412
20
13.82296683358631
10
6.2852570572165165
20
14.001084706775124
10
6.3813787434873745
20
14.057438699501301
10
6.480148080449446
20
14.112008477712905
10
6.5782415362320297
20
14.056243190087034
10
6.6748849718269074
20
13.99799135265603
10
6.6756375607792018
20
13.885154766192553
10
6.6735117556765307
20
13.772335731579789
10
6.669744186619349
20
13.770126890188415
0
LWPOLYLINE
5
385
100
AcDbEntity
8
INTERIOR_PROFILES
100
AcDbPolyline
90
11
70
1
43
0.0
10
6.4765987840783952
20
13.032867165634663
10
6.2826357411603411
20
13.149123484431243
10
6.282342792922412
20
13.19304557374379
10
6.2852570572165165
20
13.371163446932604
10
6.3813787434873745
20
13.42751743965878
10
6.480148080449446
20
13.482087217870385
10
6.5782415362320297
20
13.426321930244514
10
6.6748849718269074
20
13.368070092813513
10
6.6756375607792018
20
13.255233506350033
10
6.6735117556765307
20
13.14241447173727
10
6.669744186619349
20
13.140205630345896
0
LWPOLYLINE
5
386
100
AcDbEntity
8
INTERIOR_PROFILES
100
AcDbPolyline
90
6
70
1
43
0.0
10
2.5592542327574734
20
13.021729849378064
10
2.5600670113567805
20
12.862619646402111
10
2.4226799228779581
20
12.78236065799948
10
2.2844800557998295
20
12.861211872572806
10
2.2836672772005224
20
13.020322075548759
10
2.4210543656793444
20
13.10058106395139
0
LWPOLYLINE
5
387
100
AcDbEntity
8
INTERIOR_PROFILES
100
AcDbPolyline
90
11
70
1
43
0.0
10
4.2620318549445377
20
13.662788425477183
10
4.0680688120264827
20
13.779044744273763
10
4.0677758637885537
20
13.82296683358631
10
4.0706901280826591
20
14.001084706775124
10
4.1668118143535171
20
14.057438699501301
10
4.2655811513155886
20
14.112008477712905
10
4.3636746070981713
20
14.056243190087034
10
4.4603180426930491
20
13.99799135265603
10
4.4610706316453435
20
13.885154766192553
10
4.4589448265426723
20
13.772335731579789
10
4.4551772574854906
20
13.770126890188415
0
LWPOLYLINE
5
388
100
AcDbEntity
8
INTERIOR_PROFILES
100
AcDbPolyline
90
11
70
1
43
0.0
10
4.2620318549445377
20
13.032867165634663
10
4.0680688120264827
20
13.149123484431243
10
4.0677758637885537
20
13.19304557374379
10
4.0706901280826591
20
13.371163446932604
10
4.1668118143535171
20
13.42751743965878
10
4.2655811513155886
20
13.482087217870385
10
4.3636746070981713
20
13.426321930244514
10
4.4603180426930491
20
13.368070092813513
10
4.4610706316453435
20
13.255233506350033
10
4.4589448265426723
20
13.14241447173727
10
4.4551772574854906
20
13.140205630345896
0
LWPOLYLINE
5
389
100
AcDbEntity
8
INTERIOR_PROFILES
100
AcDbPolyline
90
11
70
1
43
0.0
10
2.047464925810679
20
12.402945905792144
10
1.8535018828926244
20
12.519202224588723
10
1.8532089346546965
20
12.56312431390127
10
1.8561231989488001
20
12.741242187090084
10
1.9522448852196581
20
12.79759617981626
10
2.0510142221817294
20
12.852165958027864
10
2.1491076779643139
20
12.796400670401994
10
2.2457511135591912
20
12.738148832970992
10
2.246503702511486
20
12.625312246507512
10
2.2443778974088135
20
12.51249321189475
10
2.2406103283516323
20
12.510284370503378
0
LWPOLYLINE
5
390
100
AcDbEntity
8
INTERIOR_PROFILES
100
AcDbPolyline
90
11
70
1
43
0.0
10
7.9529767368343007
20
12.402945905792144
10
7.7590136939162466
20
12.519202224588723
10
7.7587207456783194
20
12.56312431390127
10
7.7616350099724221
20
12.741242187090084
10
7.8577566962432801
20
12.79759617981626
10
7.9565260332053516
20
12.852165958027864
10
8.0546194889879352
20
12.796400670401994
10
8.1512629245828148
20
12.738148832970992
10
8.1520155135351082
20
12.625312246507512
10
8.1498897084324362
20
12.51249321189475
10
8.1461221393752563
20
12.510284370503378
0
LWPOLYLINE
5
391
100
AcDbEntity
8
INTERIOR_PROFILES
100
AcDbPolyline
90
11
70
1
43
0.0
10
3.5238428785665841
20
12.402945905792144
10
3.3298798356485304
20
12.519202224588723
10
3.3295868874106023
20
12.56312431390127
10
3.3325011517047054
20
12.741242187090084
10
3.4286228379755634
20
12.79759617981626
10
3.5273921749376349
20
12.852165958027864
10
3.625485630720219
20
12.796400670401994
10
3.7221290663150963
20
12.738148832970992
10
3.7228816552673907
20
12.625312246507512
10
3.7207558501647187
20
12.51249321189475
10
3.7169882811075379
20
12.510284370503378
0
LWPOLYLINE
5
392
100
AcDbEntity
8
INTERIOR_PROFILES
100
AcDbPolyline
90
11
70
1
43
0.0
10
7.214787760456348
20
12.402945905792144
10
7.0208247175382938
20
12.519202224588723
10
7.0205317693003666
20
12.56312431390127
10
7.0234460335944693
20
12.741242187090084
10
7.1195677198653273
20
12.79759617981626
10
7.2183370568273988
20
12.852165958027864
10
7.3164305126099825
20
12.796400670401994
10
7.4130739482048611
20
12.738148832970992
10
7.4138265371571554
20
12.625312246507512
10
7.4117007320544825
20
12.51249321189475
10
7.4079331629973026
20
12.510284370503378
0
LWPOLYLINE
5
393
100
AcDbEntity
8
INTERIOR_PROFILES
100
AcDbPolyline
90
11
70
1
43
0.0
10
7.214787760456348
20
11.143103386107104
10
7.0208247175382938
20
11.259359704903682
10
7.0205317693003666
20
11.303281794216229
10
7.0234460335944693
20
11.481399667405043
10
7.1195677198653273
20
11.537753660131219
10
7.2183370568273988
20
11.592323438342826
10
7.3164305126099825
20
11.536558150716953
10
7.4130739482048611
20
11.478306313285952
10
7.4138265371571554
20
11.365469726822472
10
7.4117007320544825
20
11.252650692209711
10
7.4079331629973026
20
11.250441850818337
0
LWPOLYLINE
5
394
100
AcDbEntity
8
INTERIOR_PROFILES
100
AcDbPolyline
90
6
70
1
43
0.0
10
1.0846658290352114
20
11.761887329693023
10
1.0854786076345182
20
11.60277712671707
10
0.94809151915569634
20
11.522518138314439
10
0.80989165207756764
20
11.601369352887765
10
0.80907887347826057
20
11.76047955586372
10
0.94646596195708244
20
11.840738544266349
0
LWPOLYLINE
5
395
100
AcDbEntity
8
INTERIOR_PROFILES
100
AcDbPolyline
90
6
70
1
43
0.0
10
1.8219600308963424
20
12.391808589535543
10
1.8227728094956492
20
12.232698386559591
10
1.6853857210168273
20
12.152439398156959
10
1.5471858539386985
20
12.231290612730286
10
1.5463730753393914
20
12.39040081570624
10
1.6837601638182134
20
12.47065980410887
0
LWPOLYLINE
5
396
100
AcDbEntity
8
INTERIOR_PROFILES
100
AcDbPolyline
90
11
70
1
43
0.0
10
9.6225000921311601
20
2.6752810473002429
10
9.6262676611883418
20
2.673072205908869
10
9.6283934662910138
20
2.5602531712961061
10
9.6276408773387203
20
2.4474165848326273
10
9.5309974417438408
20
2.3891647474016242
10
9.4329039859612571
20
2.333399459775753
10
9.3341346489991857
20
2.3879692379873583
10
9.2380129627283285
20
2.4443232307135339
10
9.2350986984342249
20
2.6224411039023487
10
9.2353916466721522
20
2.6663631932148948
10
9.4293546895902072
20
2.7826195120114758
0
LWPOLYLINE
5
397
100
AcDbEntity
8
INTERIOR_PROFILES
100
AcDbPolyline
90
11
70
1
43
0.0
10
7.7590136939162466
20
2.6663631932148948
10
7.9529767368343007
20
2.7826195120114758
10
8.1461221393752563
20
2.6752810473002429
10
8.1498897084324362
20
2.673072205908869
10
8.1520155135351082
20
2.5602531712961061
10
8.1512629245828148
20
2.4474165848326273
10
8.0546194889879352
20
2.3891647474016242
10
7.9565260332053516
20
2.333399459775753
10
7.8577566962432801
20
2.3879692379873583
10
7.7616350099724221
20
2.4443232307135339
10
7.7587207456783194
20
2.6224411039023487
0
LWPOLYLINE
5
398
100
AcDbEntity
8
INTERIOR_PROFILES
100
AcDbPolyline
90
11
70
1
43
0.0
10
4.8062577884044355
20
4.5561269727424545
10
5.0002208313224905
20
4.6723832915390346
10
5.1933662338634434
20
4.5650448268278021
10
5.1971338029206251
20
4.5628359854364282
10
5.1992596080232962
20
4.4500169508236658
10
5.1985070190710019
20
4.3371803643601865
10
5.1018635834761241
20
4.2789285269291835
10
5.0037701276935413
20
4.2231632393033127
10
4.9050007907314699
20
4.277733017514918
10
4.8088791044606118
20
4.3340870102410936
10
4.8059648401665065
20
4.5122048834299084
0
LWPOLYLINE
5
399
100
AcDbEntity
8
INTERIOR_PROFILES
100
AcDbPolyline
90
11
70
1
43
0.0
10
4.8062577884044355
20
2.0364419333723749
10
5.0002208313224905
20
2.1526982521689559
10
5.1933662338634434
20
2.0453597874577225
10
5.1971338029206251
20
2.0431509460663486
10
5.1992596080232962
20
1.9303319114535875
10
5.1985070190710019
20
1.8174953249901069
10
5.1018635834761241
20
1.7592434875591039
10
5.0037701276935413
20
1.7034781999332342
10
4.9050007907314699
20
1.7580479781448397
10
4.8088791044606118
20
1.8144019708710137
10
4.8059648401665065
20
1.99251984405983
0
LWPOLYLINE
5
400
100
AcDbEntity
8
INTERIOR_PROFILES
100
AcDbPolyline
90
11
70
1
43
0.0
10
3.5273921749376349
20
3.5932419794607933
10
3.4286228379755634
20
3.647811757672399
10
3.3325011517047054
20
3.7041657503985737
10
3.3295868874106023
20
3.882283623587389
10
3.3298798356485304
20
3.9262057128999346
10
3.5238428785665841
20
4.0424620316965152
10
3.7169882811075379
20
3.9351235669852822
10
3.7207558501647187
20
3.9329147255939088
10
3.7228816552673907
20
3.8200956909811468
10
3.7221290663150963
20
3.7072591045176666
10
3.625485630720219
20
3.6490072670866636
0
LWPOLYLINE
5
401
100
AcDbEntity
8
INTERIOR_PROFILES
100
AcDbPolyline
90
6
70
1
43
0.0
10
4.7719496169401729
20
4.212709550929068
10
4.7711368383408663
20
4.0535993479531136
10
4.6329369712627368
20
3.9747481333797885
10
4.4955498827839149
20
4.0550071217824177
10
4.4963626613832224
20
4.214117324758373
10
4.634562528461351
20
4.2929685393316976
0
LWPOLYLINE
5
402
100
AcDbEntity
8
INTERIOR_PROFILES
100
AcDbPolyline
90
11
70
1
43
0.0
10
9.2353916466721522
20
1.4065206735298561
10
9.4293546895902072
20
1.5227769923264356
10
9.6225000921311601
20
1.4154385276152037
10
9.6262676611883418
20
1.4132296862238298
10
9.6283934662910138
20
1.3004106516110672
10
9.6276408773387203
20
1.1875740651475881
10
9.5309974417438408
20
1.1293222277165851
10
9.4329039859612571
20
1.0735569400907139
10
9.3341346489991857
20
1.1281267183023194
10
9.2380129627283285
20
1.1844807110284949
10
9.2350986984342249
20
1.3625985842173098
0
LWPOLYLINE
5
403
100
AcDbEntity
8
INTERIOR_PROFILES
100
AcDbPolyline
90
6
70
1
43
0.0
10
8.4584206262458288
20
3.5827882910865489
10
8.4576078476465213
20
3.4236780881105942
10
8.3194079805683909
20
3.3448268735372686
10
8.1820208920895716
20
3.4250858619398983
10
8.1828336706888773
20
3.5841960649158531
10
8.3210335377670059
20
3.6630472794891786
0
LWPOLYLINE
5
404
100
AcDbEntity
8
INTERIOR_PROFILES
100
AcDbPolyline
90
11
70
1
43
0.0
10
7.7590136939162466
20
4.5561269727424545
10
7.9529767368343007
20
4.6723832915390346
10
8.1461221393752563
20
4.5650448268278021
10
8.1498897084324362
20
4.5628359854364282
10
8.1520155135351082
20
4.4500169508236658
10
8.1512629245828148
20
4.3371803643601865
10
8.0546194889879352
20
4.2789285269291835
10
7.9565260332053516
20
4.2231632393033127
10
7.8577566962432801
20
4.277733017514918
10
7.7616350099724221
20
4.3340870102410936
10
7.7587207456783194
20
4.5122048834299084
0
LWPOLYLINE
5
405
100
AcDbEntity
8
INTERIOR_PROFILES
100
AcDbPolyline
90
6
70
1
43
0.0
10
8.4584206262458288
20
4.212709550929068
10
8.4576078476465213
20
4.0535993479531136
10
8.3194079805683909
20
3.9747481333797885
10
8.1820208920895716
20
4.0550071217824177
10
8.1828336706888773
20
4.214117324758373
10
8.3210335377670059
20
4.2929685393316976
0
LWPOLYLINE
5
406
100
AcDbEntity
8
INTERIOR_PROFILES
100
AcDbPolyline
90
6
70
1
43
0.0
10
2.5600670113567805
20
3.5827882910865489
10
2.5592542327574734
20
3.4236780881105942
10
2.4210543656793444
20
3.3448268735372686
10
2.2836672772005224
20
3.4250858619398983
10
2.2844800557998295
20
3.5841960649158531
10
2.4226799228779581
20
3.6630472794891786
0
LWPOLYLINE
5
407
100
AcDbEntity
8
INTERIOR_PROFILES
100
AcDbPolyline
90
6
70
1
43
0.0
10
2.5600670113567805
20
4.212709550929068
10
2.5592542327574734
20
4.0535993479531136
10
2.4210543656793444
20
3.9747481333797885
10
2.2836672772005224
20
4.0550071217824177
10
2.2844800557998295
20
4.214117324758373
10
2.4226799228779581
20
4.2929685393316976
0
LWPOLYLINE
5
408
100
AcDbEntity
8
INTERIOR_PROFILES
100
AcDbPolyline
90
6
70
1
43
0.0
10
1.8227728094956492
20
3.5827882910865489
10
1.8219600308963424
20
3.4236780881105942
10
1.6837601638182134
20
3.3448268735372686
10
1.5463730753393914
20
3.4250858619398983
10
1.5471858539386985
20
3.5841960649158531
10
1.6853857210168273
20
3.6630472794891786
0
LWPOLYLINE
5
409
100
AcDbEntity
8
INTERIOR_PROFILES
100
AcDbPolyline
90
6
70
1
43
0.0
10
1.0854786076345182
20
4.212709550929068
10
1.0846658290352114
20
4.0535993479531136
10
0.94646596195708244
20
3.9747481333797885
10
0.80907887347826057
20
4.0550071217824177
10
0.80989165207756764
20
4.214117324758373
10
0.94809151915569634
20
4.2929685393316976
0
LWPOLYLINE
5
410
100
AcDbEntity
8
INTERIOR_PROFILES
100
AcDbPolyline
90
11
70
1
43
0.0
10
7.0208247175382938
20
4.5561269727424545
10
7.214787760456348
20
4.6723832915390346
10
7.4079331629973026
20
4.5650448268278021
10
7.4117007320544825
20
4.5628359854364282
10
7.4138265371571554
20
4.4500169508236658
10
7.4130739482048611
20
4.3371803643601865
10
7.3164305126099825
20
4.2789285269291835
10
7.2183370568273988
20
4.2231632393033127
10
7.1195677198653273
20
4.277733017514918
10
7.0234460335944693
20
4.3340870102410936
10
7.0205317693003666
20
4.5122048834299084
0
LWPOLYLINE
5
411
100
AcDbEntity
8
INTERIOR_PROFILES
100
AcDbPolyline
90
11
70
1
43
0.0
10
7.0208247175382938
20
3.2962844530574147
10
7.214787760456348
20
3.4125407718539957
10
7.4079331629973026
20
3.3052023071427623
10
7.4117007320544825
20
3.3029934657513884
10
7.4138265371571554
20
3.1901744311386273
10
7.4130739482048611
20
3.0773378446751467
10
7.3164305126099825
20
3.0190860072441437
10
7.2183370568273988
20
2.9633207196182747
10
7.1195677198653273
20
3.0178904978298795
10
7.0234460335944693
20
3.0742444905560533
10
7.0205317693003666
20
3.2523623637448695
0
LWPOLYLINE
5
412
100
AcDbEntity
8
INTERIOR_PROFILES
100
AcDbPolyline
90
11
70
1
43
0.0
10
3.3298798356485304
20
3.2962844530574147
10
3.5238428785665841
20
3.4125407718539957
10
3.7169882811075379
20
3.3052023071427623
10
3.7207558501647187
20
3.3029934657513884
10
3.7228816552673907
20
3.1901744311386273
10
3.7221290663150963
20
3.0773378446751467
10
3.625485630720219
20
3.0190860072441437
10
3.5273921749376349
20
2.9633207196182747
10
3.4286228379755634
20
3.0178904978298795
10
3.3325011517047054
20
3.0742444905560533
10
3.3295868874106023
20
3.2523623637448695
0
LWPOLYLINE
5
413
100
AcDbEntity
8
INTERIOR_PROFILES
100
AcDbPolyline
90
11
70
1
43
0.0
10
7.7590136939162466
20
3.2962844530574147
10
7.9529767368343007
20
3.4125407718539957
10
8.1461221393752563
20
3.3052023071427623
10
8.1498897084324362
20
3.3029934657513884
10
8.1520155135351082
20
3.1901744311386273
10
8.1512629245828148
20
3.0773378446751467
10
8.0546194889879352
20
3.0190860072441437
10
7.9565260332053516
20
2.9633207196182747
10
7.8577566962432801
20
3.0178904978298795
10
7.7616350099724221
20
3.0742444905560533
10
7.7587207456783194
20
3.2523623637448695
0
LWPOLYLINE
5
414
100
AcDbEntity
8
INTERIOR_PROFILES
100
AcDbPolyline
90
11
70
1
43
0.0
10
1.8535018828926244
20
3.2962844530574147
10
2.047464925810679
20
3.4125407718539957
10
2.2406103283516323
20
3.3052023071427623
10
2.2443778974088135
20
3.3029934657513884
10
2.246503702511486
20
3.1901744311386273
10
2.2457511135591912
20
3.0773378446751467
10
2.1491076779643139
20
3.0190860072441437
10
2.0510142221817294
20
2.9633207196182747
10
1.9522448852196581
20
3.0178904978298795
10
1.8561231989488001
20
3.0742444905560533
10
1.8532089346546965
20
3.2523623637448695
0
LWPOLYLINE
5
415
100
AcDbEntity
8
INTERIOR_PROFILES
100
AcDbPolyline
90
11
70
1
43
0.0
10
4.0680688120264827
20
2.6663631932148948
10
4.2620318549445377
20
2.7826195120114758
10
4.4551772574854906
20
2.6752810473002429
10
4.4589448265426723
20
2.673072205908869
10
4.4610706316453435
20
2.5602531712961061
10
4.4603180426930491
20
2.4474165848326273
10
4.3636746070981713
20
2.3891647474016242
10
4.2655811513155886
20
2.333399459775753
10
4.1668118143535171
20
2.3879692379873583
10
4.0706901280826591
20
2.4443232307135339
10
4.0677758637885537
20
2.6224411039023487
0
LWPOLYLINE
5
416
100
AcDbEntity
8
INTERIOR_PROFILES
100
AcDbPolyline
90
11
70
1
43
0.0
10
4.0680688120264827
20
2.0364419333723749
10
4.2620318549445377
20
2.1526982521689559
10
4.4551772574854906
20
2.0453597874577225
10
4.4589448265426723
20
2.0431509460663486
10
4.4610706316453435
20
1.9303319114535875
10
4.4603180426930491
20
1.8174953249901069
10
4.3636746070981713
20
1.7592434875591039
10
4.2655811513155886
20
1.7034781999332342
10
4.1668118143535171
20
1.7580479781448397
10
4.0706901280826591
20
1.8144019708710137
10
4.0677758637885537
20
1.99251984405983
0
LWPOLYLINE
5
417
100
AcDbEntity
8
INTERIOR_PROFILES
100
AcDbPolyline
90
6
70
1
43
0.0
10
2.5600670113567805
20
2.9528670312440295
10
2.5592542327574734
20
2.7937568282680747
10
2.4210543656793444
20
2.71490561369475
10
2.2836672772005224
20
2.7951646020973788
10
2.2844800557998295
20
2.9542748050733336
10
2.4226799228779581
20
3.0331260196466592
0
LWPOLYLINE
5
418
100
AcDbEntity
8
INTERIOR_PROFILES
100
AcDbPolyline
90
11
70
1
43
0.0
10
6.2826357411603411
20
2.6663631932148948
10
6.4765987840783952
20
2.7826195120114758
10
6.669744186619349
20
2.6752810473002429
10
6.6735117556765307
20
2.673072205908869
10
6.6756375607792018
20
2.5602531712961061
10
6.6748849718269074
20
2.4474165848326273
10
6.5782415362320297
20
2.3891647474016242
10
6.480148080449446
20
2.333399459775753
10
6.3813787434873745
20
2.3879692379873583
10
6.2852570572165165
20
2.4443232307135339
10
6.282342792922412
20
2.6224411039023487
0
LWPOLYLINE
5
419
100
AcDbEntity
8
INTERIOR_PROFILES
100
AcDbPolyline
90
11
70
1
43
0.0
10
6.2826357411603411
20
2.0364419333723749
10
6.4765987840783952
20
2.1526982521689559
10
6.669744186619349
20
2.0453597874577225
10
6.6735117556765307
20
2.0431509460663486
10
6.6756375607792018
20
1.9303319114535875
10
6.6748849718269074
20
1.8174953249901069
10
6.5782415362320297
20
1.7592434875591039
10
6.480148080449446
20
1.7034781999332342
10
6.3813787434873745
20
1.7580479781448397
10
6.2852570572165165
20
1.8144019708710137
10
6.282342792922412
20
1.99251984405983
0
LWPOLYLINE
5
420
100
AcDbEntity
8
INTERIOR_PROFILES
100
AcDbPolyline
90
6
70
1
43
0.0
10
4.7719496169401729
20
1.693024511558989
10
4.7711368383408663
20
1.5339143085830342
10
4.6329369712627368
20
1.4550630940097096
10
4.4955498827839149
20
1.5353220824123386
10
4.4963626613832224
20
1.6944322853882934
10
4.634562528461351
20
1.7732834999616194
0
LWPOLYLINE
5
421
100
AcDbEntity
8
INTERIOR_PROFILES
100
AcDbPolyline
90
6
70
1
43
0.0
10
5.5092438188013046
20
3.5827882910865489
10
5.5084310402019971
20
3.4236780881105942
10
5.3702311731238686
20
3.3448268735372686
10
5.2328440846450466
20
3.4250858619398983
10
5.2336568632443532
20
3.5841960649158531
10
5.3718567303224827
20
3.6630472794891786
0
LWPOLYLINE
5
422
100
AcDbEntity
8
INTERIOR_PROFILES
100
AcDbPolyline
90
11
70
1
43
0.0
10
2.5916908592705776
20
2.0364419333723749
10
2.7856539021886313
20
2.1526982521689559
10
2.9787993047295851
20
2.0453597874577225
10
2.9825668737867663
20
2.0431509460663486
10
2.9846926788894388
20
1.9303319114535875
10
2.983940089937144
20
1.8174953249901069
10
2.8872966543422662
20
1.7592434875591039
10
2.7892031985596821
20
1.7034781999332342
10
2.6904338615976107
20
1.7580479781448397
10
2.5943121753267526
20
1.8144019708710137
10
2.5913979110326495
20
1.99251984405983
0
LWPOLYLINE
5
423
100
AcDbEntity
8
INTERIOR_PROFILES
100
AcDbPolyline
90
11
70
1
43
0.0
10
3.3298798356485304
20
2.6663631932148948
10
3.5238428785665841
20
2.7826195120114758
10
3.7169882811075379
20
2.6752810473002429
10
3.7207558501647187
20
2.673072205908869
10
3.7228816552673907
20
2.5602531712961061
10
3.7221290663150963
20
2.4474165848326273
10
3.625485630720219
20
2.3891647474016242
10
3.5273921749376349
20
2.333399459775753
10
3.4286228379755634
20
2.3879692379873583
10
3.3325011517047054
20
2.4443232307135339
10
3.3295868874106023
20
2.6224411039023487
0
LWPOLYLINE
5
424
100
AcDbEntity
8
INTERIOR_PROFILES
100
AcDbPolyline
90
6
70
1
43
0.0
10
5.5092438188013046
20
1.693024511558989
10
5.5084310402019971
20
1.5339143085830342
10
5.3702311731238686
20
1.4550630940097096
10
5.2328440846450466
20
1.5353220824123386
10
5.2336568632443532
20
1.6944322853882934
10
5.3718567303224827
20
1.7732834999616194
0
LWPOLYLINE
5
425
100
AcDbEntity
8
INTERIOR_PROFILES
100
AcDbPolyline
90
11
70
1
43
0.0
10
8.4972026702941985
20
2.0364419333723749
10
8.6911657132122535
20
2.1526982521689559
10
8.8843111157532082
20
2.0453597874577225
10
8.8880786848103881
20
2.0431509460663486
10
8.8902044899130601
20
1.9303319114535875
10
8.8894519009607667
20
1.8174953249901069
10
8.7928084653658871
20
1.7592434875591039
10
8.6947150095833052
20
1.7034781999332342
10
8.5959456726212338
20
1.7580479781448397
10
8.4998239863503748
20
1.8144019708710137
10
8.4969097220562713
20
1.99251984405983
0
LWPOLYLINE
5
426
100
AcDbEntity
8
INTERIOR_PROFILES
100
AcDbPolyline
90
6
70
1
43
0.0
10
6.2465380206624346
20
4.212709550929068
10
6.2457252420631288
20
4.0535993479531136
10
6.1075253749849994
20
3.9747481333797885
10
5.9701382865061774
20
4.0550071217824177
10
5.9709510651054849
20
4.214117324758373
10
6.1091509321836126
20
4.2929685393316976
0
LWPOLYLINE
5
427
100
AcDbEntity
8
INTERIOR_PROFILES
100
AcDbPolyline
90
11
70
1
43
0.0
10
8.4972026702941985
20
2.6663631932148948
10
8.6911657132122535
20
2.7826195120114758
10
8.8843111157532082
20
2.6752810473002429
10
8.8880786848103881
20
2.673072205908869
10
8.8902044899130601
20
2.5602531712961061
10
8.8894519009607667
20
2.4474165848326273
10
8.7928084653658871
20
2.3891647474016242
10
8.6947150095833052
20
2.333399459775753
10
8.5959456726212338
20
2.3879692379873583
10
8.4998239863503748
20
2.4443232307135339
10
8.4969097220562713
20
2.6224411039023487
0
LWPOLYLINE
5
428
100
AcDbEntity
8
INTERIOR_PROFILES
100
AcDbPolyline
90
11
70
1
43
0.0
10
7.0208247175382938
20
1.4065206735298561
10
7.214787760456348
20
1.5227769923264356
10
7.4079331629973026
20
1.4154385276152037
10
7.4117007320544825
20
1.4132296862238298
10
7.4138265371571554
20
1.3004106516110672
10
7.4130739482048611
20
1.1875740651475881
10
7.3164305126099825
20
1.1293222277165851
10
7.2183370568273988
20
1.0735569400907139
10
7.1195677198653273
20
1.1281267183023194
10
7.0234460335944693
20
1.1844807110284949
10
7.0205317693003666
20
1.3625985842173098
0
LWPOLYLINE
5
429
100
AcDbEntity
8
INTERIOR_PROFILES
100
AcDbPolyline
90
11
70
1
43
0.0
10
3.625485630720219
20
1.1293222277165851
10
3.5273921749376349
20
1.0735569400907139
10
3.4286228379755634
20
1.1281267183023194
10
3.3325011517047054
20
1.1844807110284949
10
3.3295868874106023
20
1.3625985842173098
10
3.3298798356485304
20
1.4065206735298561
10
3.5238428785665841
20
1.5227769923264356
10
3.7169882811075379
20
1.4154385276152037
10
3.7207558501647187
20
1.4132296862238298
10
3.7228816552673907
20
1.3004106516110672
10
3.7221290663150963
20
1.1875740651475881
0
LWPOLYLINE
5
430
100
AcDbEntity
8
INTERIOR_PROFILES
100
AcDbPolyline
90
11
70
1
43
0.0
10
3.3298798356485304
20
2.0364419333723749
10
3.5238428785665841
20
2.1526982521689559
10
3.7169882811075379
20
2.0453597874577225
10
3.7207558501647187
20
2.0431509460663486
10
3.7228816552673907
20
1.9303319114535875
10
3.7221290663150963
20
1.8174953249901069
10
3.625485630720219
20
1.7592434875591039
10
3.5273921749376349
20
1.7034781999332342
10
3.4286228379755634
20
1.7580479781448397
10
3.3325011517047054
20
1.8144019708710137
10
3.3295868874106023
20
1.99251984405983
0
LWPOLYLINE
5
431
100
AcDbEntity
8
INTERIOR_PROFILES
100
AcDbPolyline
90
11
70
1
43
0.0
10
5.5444467647823883
20
4.5561269727424545
10
5.7384098077004433
20
4.6723832915390346
10
5.9315552102413962
20
4.5650448268278021
10
5.9353227792985779
20
4.5628359854364282
10
5.937448584401249
20
4.4500169508236658
10
5.9366959954489547
20
4.3371803643601865
10
5.8400525598540769
20
4.2789285269291835
10
5.7419591040714932
20
4.2231632393033127
10
5.6431897671094218
20
4.277733017514918
10
5.5470680808385646
20
4.3340870102410936
10
5.5441538165444593
20
4.5122048834299084
0
LWPOLYLINE
5
432
100
AcDbEntity
8
INTERIOR_PROFILES
100
AcDbPolyline
90
6
70
1
43
0.0
10
6.2465380206624346
20
2.3229457714015092
10
6.2457252420631288
20
2.1638355684255544
10
6.1075253749849994
20
2.0849843538522284
10
5.9701382865061774
20
2.1652433422548589
10
5.9709510651054849
20
2.3243535452308137
10
6.1091509321836126
20
2.4032047598041379
0
LWPOLYLINE
5
433
100
AcDbEntity
8
INTERIOR_PROFILES
100
AcDbPolyline
90
11
70
1
43
0.0
10
7.7590136939162466
20
2.0364419333723749
10
7.9529767368343007
20
2.1526982521689559
10
8.1461221393752563
20
2.0453597874577225
10
8.1498897084324362
20
2.0431509460663486
10
8.1520155135351082
20
1.9303319114535875
10
8.1512629245828148
20
1.8174953249901069
10
8.0546194889879352
20
1.7592434875591039
10
7.9565260332053516
20
1.7034781999332342
10
7.8577566962432801
20
1.7580479781448397
10
7.7616350099724221
20
1.8144019708710137
10
7.7587207456783194
20
1.99251984405983
0
LWPOLYLINE
5
434
100
AcDbEntity
8
INTERIOR_PROFILES
100
AcDbPolyline
90
11
70
1
43
0.0
10
6.2826357411603411
20
3.9262057128999346
10
6.4765987840783952
20
4.0424620316965152
10
6.669744186619349
20
3.9351235669852822
10
6.6735117556765307
20
3.9329147255939088
10
6.6756375607792018
20
3.8200956909811468
10
6.6748849718269074
20
3.7072591045176666
10
6.5782415362320297
20
3.6490072670866636
10
6.480148080449446
20
3.5932419794607933
10
6.3813787434873745
20
3.647811757672399
10
6.2852570572165165
20
3.7041657503985737
10
6.282342792922412
20
3.882283623587389
0
LWPOLYLINE
5
435
100
AcDbEntity
8
INTERIOR_PROFILES
100
AcDbPolyline
90
6
70
1
43
0.0
10
7.7211264243846971
20
2.3229457714015092
10
7.7203136457853905
20
2.1638355684255544
10
7.582113778707261
20
2.0849843538522284
10
7.4447266902284408
20
2.1652433422548589
10
7.4455394688277465
20
2.3243535452308137
10
7.583739335905876
20
2.4032047598041379
0
LWPOLYLINE
5
436
100
AcDbEntity
8
INTERIOR_PROFILES
100
AcDbPolyline
90
6
70
1
43
0.0
10
4.7719496169401729
20
2.3229457714015092
10
4.7711368383408663
20
2.1638355684255544
10
4.6329369712627368
20
2.0849843538522284
10
4.4955498827839149
20
2.1652433422548589
10
4.4963626613832224
20
2.3243535452308137
10
4.634562528461351
20
2.4032047598041379
0
LWPOLYLINE
5
437
100
AcDbEntity
8
INTERIOR_PROFILES
100
AcDbPolyline
90
6
70
1
43
0.0
10
8.4584206262458288
20
2.9528670312440295
10
8.4576078476465213
20
2.7937568282680747
10
8.3194079805683909
20
2.71490561369475
10
8.1820208920895716
20
2.7951646020973788
10
8.1828336706888773
20
2.9542748050733336
10
8.3210335377670059
20
3.0331260196466592
0
LWPOLYLINE
5
438
100
AcDbEntity
8
INTERIOR_PROFILES
100
AcDbPolyline
90
6
70
1
43
0.0
10
1.8227728094956492
20
2.9528670312440295
10
1.8219600308963424
20
2.7937568282680747
10
1.6837601638182134
20
2.71490561369475
10
1.5463730753393914
20
2.7951646020973788
10
1.5471858539386985
20
2.9542748050733336
10
1.6853857210168273
20
3.0331260196466592
0
LWPOLYLINE
5
439
100
AcDbEntity
8
INTERIOR_PROFILES
100
AcDbPolyline
90
6
70
1
43
0.0
10
7.7211264243846971
20
2.9528670312440295
10
7.7203136457853905
20
2.7937568282680747
10
7.582113778707261
20
2.71490561369475
10
7.4447266902284408
20
2.7951646020973788
10
7.4455394688277465
20
2.9542748050733336
10
7.583739335905876
20
3.0331260196466592
0
LWPOLYLINE
5
440
100
AcDbEntity
8
INTERIOR_PROFILES
100
AcDbPolyline
90
6
70
1
43
0.0
10
4.7719496169401729
20
2.9528670312440295
10
4.7711368383408663
20
2.7937568282680747
10
4.6329369712627368
20
2.71490561369475
10
4.4955498827839149
20
2.7951646020973788
10
4.4963626613832224
20
2.9542748050733336
10
4.634562528461351
20
3.0331260196466592
0
LWPOLYLINE
5
441
100
AcDbEntity
8
INTERIOR_PROFILES
100
AcDbPolyline
90
11
70
1
43
0.0
10
1.1153129065146719
20
3.2962844530574147
10
1.309275949432726
20
3.4125407718539957
10
1.5024213519736798
20
3.3052023071427623
10
1.5061889210308606
20
3.3029934657513884
10
1.5083147261335328
20
3.1901744311386273
10
1.5075621371812384
20
3.0773378446751467
10
1.4109187015863609
20
3.0190860072441437
10
1.3128252458037768
20
2.9633207196182747
10
1.2140559088417051
20
3.0178904978298795
10
1.1179342225708473
20
3.0742444905560533
10
1.1150199582767437
20
3.2523623637448695
0
LWPOLYLINE
5
442
100
AcDbEntity
8
INTERIOR_PROFILES
100
AcDbPolyline
90
11
70
1
43
0.0
10
2.5916908592705776
20
2.6663631932148948
10
2.7856539021886313
20
2.7826195120114758
10
2.9787993047295851
20
2.6752810473002429
10
2.9825668737867663
20
2.673072205908869
10
2.9846926788894388
20
2.5602531712961061
10
2.983940089937144
20
2.4474165848326273
10
2.8872966543422662
20
2.3891647474016242
10
2.7892031985596821
20
2.333399459775753
10
2.6904338615976107
20
2.3879692379873583
10
2.5943121753267526
20
2.4443232307135339
10
2.5913979110326495
20
2.6224411039023487
0
LWPOLYLINE
5
443
100
AcDbEntity
8
INTERIOR_PROFILES
100
AcDbPolyline
90
6
70
1
43
0.0
10
3.2973612132179113
20
1.693024511558989
10
3.2965484346186043
20
1.5339143085830342
10
3.1583485675404757
20
1.4550630940097096
10
3.0209614790616537
20
1.5353220824123386
10
3.0217742576609603
20
1.6944322853882934
10
3.1599741247390893
20
1.7732834999616194
0
LWPOLYLINE
5
444
100
AcDbEntity
8
INTERIOR_PROFILES
100
AcDbPolyline
90
6
70
1
43
0.0
10
3.2973612132179113
20
2.9528670312440295
10
3.2965484346186043
20
2.7937568282680747
10
3.1583485675404757
20
2.71490561369475
10
3.0209614790616537
20
2.7951646020973788
10
3.0217742576609603
20
2.9542748050733336
10
3.1599741247390893
20
3.0331260196466592
0
LWPOLYLINE
5
445
100
AcDbEntity
8
INTERIOR_PROFILES
100
AcDbPolyline
90
11
70
1
43
0.0
10
3.3298798356485304
20
4.5561269727424545
10
3.5238428785665841
20
4.6723832915390346
10
3.7169882811075379
20
4.5650448268278021
10
3.7207558501647187
20
4.5628359854364282
10
3.7228816552673907
20
4.4500169508236658
10
3.7221290663150963
20
4.3371803643601865
10
3.625485630720219
20
4.2789285269291835
10
3.5273921749376349
20
4.2231632393033127
10
3.4286228379755634
20
4.277733017514918
10
3.3325011517047054
20
4.3340870102410936
10
3.3295868874106023
20
4.5122048834299084
0
LWPOLYLINE
5
446
100
AcDbEntity
8
INTERIOR_PROFILES
100
AcDbPolyline
90
11
70
1
43
0.0
10
9.2353916466721522
20
4.5561269727424545
10
9.4293546895902072
20
4.6723832915390346
10
9.6225000921311601
20
4.5650448268278021
10
9.6262676611883418
20
4.5628359854364282
10
9.6283934662910138
20
4.4500169508236658
10
9.6276408773387203
20
4.3371803643601865
10
9.5309974417438408
20
4.2789285269291835
10
9.4329039859612571
20
4.2231632393033127
10
9.3341346489991857
20
4.277733017514918
10
9.2380129627283285
20
4.3340870102410936
10
9.2350986984342249
20
4.5122048834299084
0
LWPOLYLINE
5
447
100
AcDbEntity
8
INTERIOR_PROFILES
100
AcDbPolyline
90
11
70
1
43
0.0
10
0.37712393013671908
20
3.9262057128999346
10
0.57108697305477341
20
4.0424620316965152
10
0.76423237559572721
20
3.9351235669852822
10
0.76799994465290788
20
3.9329147255939088
10
0.77012574975558012
20
3.8200956909811468
10
0.76937316080328577
20
3.7072591045176666
10
0.67272972520840812
20
3.6490072670866636
10
0.57463626942582402
20
3.5932419794607933
10
0.4758669324637525
20
3.647811757672399
10
0.37974524619289457
20
3.7041657503985737
10
0.37683098189879094
20
3.882283623587389
0
LWPOLYLINE
5
448
100
AcDbEntity
8
INTERIOR_PROFILES
100
AcDbPolyline
90
11
70
1
43
0.0
10
9.2353916466721522
20
3.9262057128999346
10
9.4293546895902072
20
4.0424620316965152
10
9.6225000921311601
20
3.9351235669852822
10
9.6262676611883418
20
3.9329147255939088
10
9.6283934662910138
20
3.8200956909811468
10
9.6276408773387203
20
3.7072591045176666
10
9.5309974417438408
20
3.6490072670866636
10
9.4329039859612571
20
3.5932419794607933
10
9.3341346489991857
20
3.647811757672399
10
9.2380129627283285
20
3.7041657503985737
10
9.2350986984342249
20
3.882283623587389
0
LWPOLYLINE
5
449
100
AcDbEntity
8
INTERIOR_PROFILES
100
AcDbPolyline
90
11
70
1
43
0.0
10
1.8535018828926244
20
3.9262057128999346
10
2.047464925810679
20
4.0424620316965152
10
2.2406103283516323
20
3.9351235669852822
10
2.2443778974088135
20
3.9329147255939088
10
2.246503702511486
20
3.8200956909811468
10
2.2457511135591912
20
3.7072591045176666
10
2.1491076779643139
20
3.6490072670866636
10
2.0510142221817294
20
3.5932419794607933
10
1.9522448852196581
20
3.647811757672399
10
1.8561231989488001
20
3.7041657503985737
10
1.8532089346546965
20
3.882283623587389
0
LWPOLYLINE
5
450
100
AcDbEntity
8
INTERIOR_PROFILES
100
AcDbPolyline
90
6
70
1
43
0.0
10
7.7211264243846971
20
4.212709550929068
10
7.7203136457853905
20
4.0535993479531136
10
7.582113778707261
20
3.9747481333797885
10
7.4447266902284408
20
4.0550071217824177
10
7.4455394688277465
20
4.214117324758373
10
7.583739335905876
20
4.2929685393316976
0
LWPOLYLINE
5
451
100
AcDbEntity
8
INTERIOR_PROFILES
100
AcDbPolyline
90
11
70
1
43
0.0
10
0.37712393013671908
20
2.0364419333723749
10
0.57108697305477341
20
2.1526982521689559
10
0.76423237559572721
20
2.0453597874577225
10
0.76799994465290788
20
2.0431509460663486
10
0.77012574975558012
20
1.9303319114535875
10
0.76937316080328577
20
1.8174953249901069
10
0.67272972520840812
20
1.7592434875591039
10
0.57463626942582402
20
1.7034781999332342
10
0.4758669324637525
20
1.7580479781448397
10
0.37974524619289457
20
1.8144019708710137
10
0.37683098189879094
20
1.99251984405983
0
LWPOLYLINE
5
452
100
AcDbEntity
8
INTERIOR_PROFILES
100
AcDbPolyline
90
6
70
1
43
0.0
10
9.1957148281069596
20
1.693024511558989
10
9.1949020495076521
20
1.5339143085830342
10
9.0567021824295235
20
1.4550630940097096
10
8.9193150939507024
20
1.5353220824123386
10
8.9201278725500082
20
1.6944322853882934
10
9.0583277396281385
20
1.7732834999616194
0
LWPOLYLINE
5
453
100
AcDbEntity
8
INTERIOR_PROFILES
100
AcDbPolyline
90
6
70
1
43
0.0
10
1.8227728094956492
20
1.693024511558989
10
1.8219600308963424
20
1.5339143085830342
10
1.6837601638182134
20
1.4550630940097096
10
1.5463730753393914
20
1.5353220824123386
10
1.5471858539386985
20
1.6944322853882934
10
1.6853857210168273
20
1.7732834999616194
0
LWPOLYLINE
5
454
100
AcDbEntity
8
INTERIOR_PROFILES
100
AcDbPolyline
90
6
70
1
43
0.0
10
9.1957148281069596
20
2.3229457714015092
10
9.1949020495076521
20
2.1638355684255544
10
9.0567021824295235
20
2.0849843538522284
10
8.9193150939507024
20
2.1652433422548589
10
8.9201278725500082
20
2.3243535452308137
10
9.0583277396281385
20
2.4032047598041379
0
LWPOLYLINE
5
455
100
AcDbEntity
8
INTERIOR_PROFILES
100
AcDbPolyline
90
11
70
1
43
0.0
10
0.37712393013671908
20
2.6663631932148948
10
0.57108697305477341
20
2.7826195120114758
10
0.76423237559572721
20
2.6752810473002429
10
0.76799994465290788
20
2.673072205908869
10
0.77012574975558012
20
2.5602531712961061
10
0.76937316080328577
20
2.4474165848326273
10
0.67272972520840812
20
2.3891647474016242
10
0.57463626942582402
20
2.333399459775753
10
0.4758669324637525
20
2.3879692379873583
10
0.37974524619289457
20
2.4443232307135339
10
0.37683098189879094
20
2.6224411039023487
0
LWPOLYLINE
5
456
100
AcDbEntity
8
INTERIOR_PROFILES
100
AcDbPolyline
90
11
70
1
43
0.0
10
1.8535018828926244
20
4.5561269727424545
10
2.047464925810679
20
4.6723832915390346
10
2.2406103283516323
20
4.5650448268278021
10
2.2443778974088135
20
4.5628359854364282
10
2.246503702511486
20
4.4500169508236658
10
2.2457511135591912
20
4.3371803643601865
10
2.1491076779643139
20
4.2789285269291835
10
2.0510142221817294
20
4.2231632393033127
10
1.9522448852196581
20
4.277733017514918
10
1.8561231989488001
20
4.3340870102410936
10
1.8532089346546965
20
4.5122048834299084
0
LWPOLYLINE
5
457
100
AcDbEntity
8
INTERIOR_PROFILES
100
AcDbPolyline
90
11
70
1
43
0.0
10
4.0680688120264827
20
3.9262057128999346
10
4.2620318549445377
20
4.0424620316965152
10
4.4551772574854906
20
3.9351235669852822
10
4.4589448265426723
20
3.9329147255939088
10
4.4610706316453435
20
3.8200956909811468
10
4.4603180426930491
20
3.7072591045176666
10
4.3636746070981713
20
3.6490072670866636
10
4.2655811513155886
20
3.5932419794607933
10
4.1668118143535171
20
3.647811757672399
10
4.0706901280826591
20
3.7041657503985737
10
4.0677758637885537
20
3.882283623587389
0
LWPOLYLINE
5
458
100
AcDbEntity
8
INTERIOR_PROFILES
100
AcDbPolyline
90
11
70
1
43
0.0
10
7.0208247175382938
20
2.0364419333723749
10
7.214787760456348
20
2.1526982521689559
10
7.4079331629973026
20
2.0453597874577225
10
7.4117007320544825
20
2.0431509460663486
10
7.4138265371571554
20
1.9303319114535875
10
7.4130739482048611
20
1.8174953249901069
10
7.3164305126099825
20
1.7592434875591039
10
7.2183370568273988
20
1.7034781999332342
10
7.1195677198653273
20
1.7580479781448397
10
7.0234460335944693
20
1.8144019708710137
10
7.0205317693003666
20
1.99251984405983
0
LWPOLYLINE
5
459
100
AcDbEntity
8
INTERIOR_PROFILES
100
AcDbPolyline
90
6
70
1
43
0.0
10
4.0346554150790421
20
2.9528670312440295
10
4.0338426364797346
20
2.7937568282680747
10
3.8956427694016065
20
2.71490561369475
10
3.7582556809227845
20
2.7951646020973788
10
3.7590684595220916
20
2.9542748050733336
10
3.8972683266002206
20
3.0331260196466592
0
LWPOLYLINE
5
460
100
AcDbEntity
8
INTERIOR_PROFILES
100
AcDbPolyline
90
11
70
1
43
0.0
10
8.4972026702941985
20
3.2962844530574147
10
8.6911657132122535
20
3.4125407718539957
10
8.8843111157532082
20
3.3052023071427623
10
8.8880786848103881
20
3.3029934657513884
10
8.8902044899130601
20
3.1901744311386273
10
8.8894519009607667
20
3.0773378446751467
10
8.7928084653658871
20
3.0190860072441437
10
8.6947150095833052
20
2.9633207196182747
10
8.5959456726212338
20
3.0178904978298795
10
8.4998239863503748
20
3.0742444905560533
10
8.4969097220562713
20
3.2523623637448695
0
LWPOLYLINE
5
461
100
AcDbEntity
8
INTERIOR_PROFILES
100
AcDbPolyline
90
11
70
1
43
0.0
10
2.5916908592705776
20
3.2962844530574147
10
2.7856539021886313
20
3.4125407718539957
10
2.9787993047295851
20
3.3052023071427623
10
2.9825668737867663
20
3.3029934657513884
10
2.9846926788894388
20
3.1901744311386273
10
2.983940089937144
20
3.0773378446751467
10
2.8872966543422662
20
3.0190860072441437
10
2.7892031985596821
20
2.9633207196182747
10
2.6904338615976107
20
3.0178904978298795
10
2.5943121753267526
20
3.0742444905560533
10
2.5913979110326495
20
3.2523623637448695
0
LWPOLYLINE
5
462
100
AcDbEntity
8
INTERIOR_PROFILES
100
AcDbPolyline
90
6
70
1
43
0.0
10
5.5092438188013046
20
2.9528670312440295
10
5.5084310402019971
20
2.7937568282680747
10
5.3702311731238686
20
2.71490561369475
10
5.2328440846450466
20
2.7951646020973788
10
5.2336568632443532
20
2.9542748050733336
10
5.3718567303224827
20
3.0331260196466592
0
LWPOLYLINE
5
463
100
AcDbEntity
8
INTERIOR_PROFILES
100
AcDbPolyline
90
11
70
1
43
0.0
10
4.0680688120264827
20
1.4065206735298561
10
4.2620318549445377
20
1.5227769923264356
10
4.4551772574854906
20
1.4154385276152037
10
4.4589448265426723
20
1.4132296862238298
10
4.4610706316453435
20
1.3004106516110672
10
4.4603180426930491
20
1.1875740651475881
10
4.3636746070981713
20
1.1293222277165851
10
4.2655811513155886
20
1.0735569400907139
10
4.1668118143535171
20
1.1281267183023194
10
4.0706901280826591
20
1.1844807110284949
10
4.0677758637885537
20
1.3625985842173098
0
LWPOLYLINE
5
464
100
AcDbEntity
8
INTERIOR_PROFILES
100
AcDbPolyline
90
6
70
1
43
0.0
10
9.1957148281069596
20
2.9528670312440295
10
9.1949020495076521
20
2.7937568282680747
10
9.0567021824295235
20
2.71490561369475
10
8.9193150939507024
20
2.7951646020973788
10
8.9201278725500082
20
2.9542748050733336
10
9.0583277396281385
20
3.0331260196466592
0
LWPOLYLINE
5
465
100
AcDbEntity
8
INTERIOR_PROFILES
100
AcDbPolyline
90
11
70
1
43
0.0
10
1.8535018828926244
20
2.0364419333723749
10
2.047464925810679
20
2.1526982521689559
10
2.2406103283516323
20
2.0453597874577225
10
2.2443778974088135
20
2.0431509460663486
10
2.246503702511486
20
1.9303319114535875
10
2.2457511135591912
20
1.8174953249901069
10
2.1491076779643139
20
1.7592434875591039
10
2.0510142221817294
20
1.7034781999332342
10
1.9522448852196581
20
1.7580479781448397
10
1.8561231989488001
20
1.8144019708710137
10
1.8532089346546965
20
1.99251984405983
0
LWPOLYLINE
5
466
100
AcDbEntity
8
INTERIOR_PROFILES
100
AcDbPolyline
90
11
70
1
43
0.0
10
6.2826357411603411
20
4.5561269727424545
10
6.4765987840783952
20
4.6723832915390346
10
6.669744186619349
20
4.5650448268278021
10
6.6735117556765307
20
4.5628359854364282
10
6.6756375607792018
20
4.4500169508236658
10
6.6748849718269074
20
4.3371803643601865
10
6.5782415362320297
20
4.2789285269291835
10
6.480148080449446
20
4.2231632393033127
10
6.3813787434873745
20
4.277733017514918
10
6.2852570572165165
20
4.3340870102410936
10
6.282342792922412
20
4.5122048834299084
0
LWPOLYLINE
5
467
100
AcDbEntity
8
INTERIOR_PROFILES
100
AcDbPolyline
90
11
70
1
43
0.0
10
5.5444467647823883
20
3.9262057128999346
10
5.7384098077004433
20
4.0424620316965152
10
5.9315552102413962
20
3.9351235669852822
10
5.9353227792985779
20
3.9329147255939088
10
5.937448584401249
20
3.8200956909811468
10
5.9366959954489547
20
3.7072591045176666
10
5.8400525598540769
20
3.6490072670866636
10
5.7419591040714932
20
3.5932419794607933
10
5.6431897671094218
20
3.647811757672399
10
5.5470680808385646
20
3.7041657503985737
10
5.5441538165444593
20
3.882283623587389
0
LWPOLYLINE
5
468
100
AcDbEntity
8
INTERIOR_PROFILES
100
AcDbPolyline
90
11
70
1
43
0.0
10
7.7590136939162466
20
1.4065206735298561
10
7.9529767368343007
20
1.5227769923264356
10
8.1461221393752563
20
1.4154385276152037
10
8.1498897084324362
20
1.4132296862238298
10
8.1520155135351082
20
1.3004106516110672
10
8.1512629245828148
20
1.1875740651475881
10
8.0546194889879352
20
1.1293222277165851
10
7.9565260332053516
20
1.0735569400907139
10
7.8577566962432801
20
1.1281267183023194
10
7.7616350099724221
20
1.1844807110284949
10
7.7587207456783194
20
1.3625985842173098
0
LWPOLYLINE
5
469
100
AcDbEntity
8
INTERIOR_PROFILES
100
AcDbPolyline
90
6
70
1
43
0.0
10
4.0346554150790421
20
2.3229457714015092
10
4.0338426364797346
20
2.1638355684255544
10
3.8956427694016065
20
2.0849843538522284
10
3.7582556809227845
20
2.1652433422548589
10
3.7590684595220916
20
2.3243535452308137
10
3.8972683266002206
20
2.4032047598041379
0
LWPOLYLINE
5
470
100
AcDbEntity
8
INTERIOR_PROFILES
100
AcDbPolyline
90
6
70
1
43
0.0
10
7.7211264243846971
20
1.693024511558989
10
7.7203136457853905
20
1.5339143085830342
10
7.582113778707261
20
1.4550630940097096
10
7.4447266902284408
20
1.5353220824123386
10
7.4455394688277465
20
1.6944322853882934
10
7.583739335905876
20
1.7732834999616194
0
LWPOLYLINE
5
471
100
AcDbEntity
8
INTERIOR_PROFILES
100
AcDbPolyline
90
6
70
1
43
0.0
10
6.2465380206624346
20
1.693024511558989
10
6.2457252420631288
20
1.5339143085830342
10
6.1075253749849994
20
1.4550630940097096
10
5.9701382865061774
20
1.5353220824123386
10
5.9709510651054849
20
1.6944322853882934
10
6.1091509321836126
20
1.7732834999616194
0
LWPOLYLINE
5
472
100
AcDbEntity
8
INTERIOR_PROFILES
100
AcDbPolyline
90
6
70
1
43
0.0
10
6.9838322225235663
20
1.693024511558989
10
6.9830194439242588
20
1.5339143085830342
10
6.8448195768461311
20
1.4550630940097096
10
6.7074324883673091
20
1.5353220824123386
10
6.7082452669666148
20
1.6944322853882934
10
6.8464451340447443
20
1.7732834999616194
0
LWPOLYLINE
5
473
100
AcDbEntity
8
INTERIOR_PROFILES
100
AcDbPolyline
90
6
70
1
43
0.0
10
4.0346554150790421
20
1.693024511558989
10
4.0338426364797346
20
1.5339143085830342
10
3.8956427694016065
20
1.4550630940097096
10
3.7582556809227845
20
1.5353220824123386
10
3.7590684595220916
20
1.6944322853882934
10
3.8972683266002206
20
1.7732834999616194
0
LWPOLYLINE
5
474
100
AcDbEntity
8
INTERIOR_PROFILES
100
AcDbPolyline
90
11
70
1
43
0.0
10
4.8062577884044355
20
1.4065206735298561
10
5.0002208313224905
20
1.5227769923264356
10
5.1933662338634434
20
1.4154385276152037
10
5.1971338029206251
20
1.4132296862238298
10
5.1992596080232962
20
1.3004106516110672
10
5.1985070190710019
20
1.1875740651475881
10
5.1018635834761241
20
1.1293222277165851
10
5.0037701276935413
20
1.0735569400907139
10
4.9050007907314699
20
1.1281267183023194
10
4.8088791044606118
20
1.1844807110284949
10
4.8059648401665065
20
1.3625985842173098
0
LWPOLYLINE
5
475
100
AcDbEntity
8
INTERIOR_PROFILES
100
AcDbPolyline
90
6
70
1
43
0.0
10
1.8227728094956492
20
2.3229457714015092
10
1.8219600308963424
20
2.1638355684255544
10
1.6837601638182134
20
2.0849843538522284
10
1.5463730753393914
20
2.1652433422548589
10
1.5471858539386985
20
2.3243535452308137
10
1.6853857210168273
20
2.4032047598041379
0
LWPOLYLINE
5
476
100
AcDbEntity
8
INTERIOR_PROFILES
100
AcDbPolyline
90
11
70
1
43
0.0
10
5.5444467647823883
20
2.0364419333723749
10
5.7384098077004433
20
2.1526982521689559
10
5.9315552102413962
20
2.0453597874577225
10
5.9353227792985779
20
2.0431509460663486
10
5.937448584401249
20
1.9303319114535875
10
5.9366959954489547
20
1.8174953249901069
10
5.8400525598540769
20
1.7592434875591039
10
5.7419591040714932
20
1.7034781999332342
10
5.6431897671094218
20
1.7580479781448397
10
5.5470680808385646
20
1.8144019708710137
10
5.5441538165444593
20
1.99251984405983
0
LWPOLYLINE
5
477
100
AcDbEntity
8
INTERIOR_PROFILES
100
AcDbPolyline
90
11
70
1
43
0.0
10
5.5444467647823883
20
2.6663631932148948
10
5.7384098077004433
20
2.7826195120114758
10
5.9315552102413962
20
2.6752810473002429
10
5.9353227792985779
20
2.673072205908869
10
5.937448584401249
20
2.5602531712961061
10
5.9366959954489547
20
2.4474165848326273
10
5.8400525598540769
20
2.3891647474016242
10
5.7419591040714932
20
2.333399459775753
10
5.6431897671094218
20
2.3879692379873583
10
5.5470680808385646
20
2.4443232307135339
10
5.5441538165444593
20
2.6224411039023487
0
LWPOLYLINE
5
478
100
AcDbEntity
8
INTERIOR_PROFILES
100
AcDbPolyline
90
11
70
1
43
0.0
10
4.8062577884044355
20
2.6663631932148948
10
5.0002208313224905
20
2.7826195120114758
10
5.1933662338634434
20
2.6752810473002429
10
5.1971338029206251
20
2.673072205908869
10
5.1992596080232962
20
2.5602531712961061
10
5.1985070190710019
20
2.4474165848326273
10
5.1018635834761241
20
2.3891647474016242
10
5.0037701276935413
20
2.333399459775753
10
4.9050007907314699
20
2.3879692379873583
10
4.8088791044606118
20
2.4443232307135339
10
4.8059648401665065
20
2.6224411039023487
0
LWPOLYLINE
5
479
100
AcDbEntity
8
INTERIOR_PROFILES
100
AcDbPolyline
90
6
70
1
43
0.0
10
3.2973612132179113
20
3.5827882910865489
10
3.2965484346186043
20
3.4236780881105942
10
3.1583485675404757
20
3.3448268735372686
10
3.0209614790616537
20
3.4250858619398983
10
3.0217742576609603
20
3.5841960649158531
10
3.1599741247390893
20
3.6630472794891786
0
LWPOLYLINE
5
480
100
AcDbEntity
8
INTERIOR_PROFILES
100
AcDbPolyline
90
11
70
1
43
0.0
10
4.8062577884044355
20
3.9262057128999346
10
5.0002208313224905
20
4.0424620316965152
10
5.1933662338634434
20
3.9351235669852822
10
5.1971338029206251
20
3.9329147255939088
10
5.1992596080232962
20
3.8200956909811468
10
5.1985070190710019
20
3.7072591045176666
10
5.1018635834761241
20
3.6490072670866636
10
5.0037701276935413
20
3.5932419794607933
10
4.9050007907314699
20
3.647811757672399
10
4.8088791044606118
20
3.7041657503985737
10
4.8059648401665065
20
3.882283623587389
0
LWPOLYLINE
5
481
100
AcDbEntity
8
INTERIOR_PROFILES
100
AcDbPolyline
90
11
70
1
43
0.0
10
1.8535018828926244
20
1.4065206735298561
10
2.047464925810679
20
1.5227769923264356
10
2.2406103283516323
20
1.4154385276152037
10
2.2443778974088135
20
1.4132296862238298
10
2.246503702511486
20
1.3004106516110672
10
2.2457511135591912
20
1.1875740651475881
10
2.1491076779643139
20
1.1293222277165851
10
2.0510142221817294
20
1.0735569400907139
10
1.9522448852196581
20
1.1281267183023194
10
1.8561231989488001
20
1.1844807110284949
10
1.8532089346546965
20
1.3625985842173098
0
LWPOLYLINE
5
482
100
AcDbEntity
8
INTERIOR_PROFILES
100
AcDbPolyline
90
6
70
1
43
0.0
10
1.0854786076345182
20
2.3229457714015092
10
1.0846658290352114
20
2.1638355684255544
10
0.94646596195708244
20
2.0849843538522284
10
0.80907887347826057
20
2.1652433422548589
10
0.80989165207756764
20
2.3243535452308137
10
0.94809151915569634
20
2.4032047598041379
0
LWPOLYLINE
5
483
100
AcDbEntity
8
INTERIOR_PROFILES
100
AcDbPolyline
90
11
70
1
43
0.0
10
4.0680688120264827
20
3.2962844530574147
10
4.2620318549445377
20
3.4125407718539957
10
4.4551772574854906
20
3.3052023071427623
10
4.4589448265426723
20
3.3029934657513884
10
4.4610706316453435
20
3.1901744311386273
10
4.4603180426930491
20
3.0773378446751467
10
4.3636746070981713
20
3.0190860072441437
10
4.2655811513155886
20
2.9633207196182747
10
4.1668118143535171
20
3.0178904978298795
10
4.0706901280826591
20
3.0742444905560533
10
4.0677758637885537
20
3.2523623637448695
0
LWPOLYLINE
5
484
100
AcDbEntity
8
INTERIOR_PROFILES
100
AcDbPolyline
90
11
70
1
43
0.0
10
0.37712393013671908
20
3.2962844530574147
10
0.57108697305477341
20
3.4125407718539957
10
0.76423237559572721
20
3.3052023071427623
10
0.76799994465290788
20
3.3029934657513884
10
0.77012574975558012
20
3.1901744311386273
10
0.76937316080328577
20
3.0773378446751467
10
0.67272972520840812
20
3.0190860072441437
10
0.57463626942582402
20
2.9633207196182747
10
0.4758669324637525
20
3.0178904978298795
10
0.37974524619289457
20
3.0742444905560533
10
0.37683098189879094
20
3.2523623637448695
0
LWPOLYLINE
5
485
100
AcDbEntity
8
INTERIOR_PROFILES
100
AcDbPolyline
90
6
70
1
43
0.0
10
8.4584206262458288
20
2.3229457714015092
10
8.4576078476465213
20
2.1638355684255544
10
8.3194079805683909
20
2.0849843538522284
10
8.1820208920895716
20
2.1652433422548589
10
8.1828336706888773
20
2.3243535452308137
10
8.3210335377670059
20
2.4032047598041379
0
LINE
5
486
100
AcDbEntity
8
BEND
100
AcDbLine
10
11.754365349156346
20
5.2525921418524248
30
1.4215862946864388e-15
11
-1.0271906517724976
21
5.2525921418524248
31
6.6219082144245945e-15
0
LINE
5
487
100
AcDbEntity
8
BEND
100
AcDbLine
10
-1.0271906517724123
20
10.562894535795548
30
2.2937696002621435e-15
11
11.754365349156348
21
10.562894535795548
31
6.6015688589044141e-15
0
LINE
5
488
100
AcDbEntity
8
BEND_EXTENT
100
AcDbLine
10
-1.0337416241828814
20
10.421522866382134
30
2.6227569548428082e-15
11
11.754365349156346
21
10.421522866382134
31
2.6204945898774675e-15
0
LINE
5
489
100
AcDbEntity
8
BEND_EXTENT
100
AcDbLine
10
11.754365349156346
20
5.3939638112640242
30
3.3198476762555188e-15
11
-1.0337416241828812
21
5.3939638112640242
31
3.3221100412208591e-15
0
LINE
5
490
100
AcDbEntity
8
BEND_EXTENT
100
AcDbLine
10
11.754365349156346
20
10.704266205205194
30
2.6204945898774675e-15
11
-1.0206396793621195
21
10.704266205205192
31
2.6227546369562751e-15
0
LINE
5
491
100
AcDbEntity
8
BEND_EXTENT
100
AcDbLine
10
-1.0206396793621204
20
5.1112204724409454
30
3.6717842665233518e-15
11
11.754365349156345
21
5.1112204724409454
31
3.6695242194445446e-15
0
ENDSEC
0
SECTION
2
OBJECTS
0
DICTIONARY
5
C
100
AcDbDictionary
3
ACAD_GROUP
350
D
3
ACAD_MLINESTYLE
350
17
0
DICTIONARY
5
D
100
AcDbDictionary
0
DICTIONARY
5
1A
330
C
100
AcDbDictionary
0
DICTIONARY
5
17
100
AcDbDictionary
0
ENDSEC
0
EOF
