0
SECTION
2
HEADER
9
$INSUNITS
70
1
9
$ACADVER
1
AC1014
9
$HANDSEED
5
FFFF
0
ENDSEC
0
SECTION
2
TABLES
0
TABLE
2
VPORT
5
8
100
AcDbSymbolTable
0
ENDTAB
0
TABLE
2
LTYPE
5
5
100
AcDbSymbolTable
0
LTYPE
5
14
100
AcDbSymbolTableRecord
100
AcDbLinetypeTableRecord
2
BYBLOCK
70
0
0
LTYPE
5
15
100
AcDbSymbolTableRecord
100
AcDbLinetypeTableRecord
2
BYLAYER
70
0
0
ENDTAB
0
TABLE
2
LAYER
5
2
100
AcDbSymbolTable
70
2
0
LAYER
5
50
100
AcDbSymbolTableRecord
100
AcDbLayerTableRecord
2
0
70
0
6
CONTINUOUS
0
ENDTAB
0
TABLE
2
STYLE
5
3
100
AcDbSymbolTable
70
1
0
STYLE
5
11
100
AcDbSymbolTableRecord
100
AcDbTextStyleTableRecord
2
STANDARD
70
0
0
ENDTAB
0
TABLE
2
VIEW
5
6
100
AcDbSymbolTable
70
0
0
ENDTAB
0
TABLE
2
UCS
5
7
100
AcDbSymbolTable
70
0
0
ENDTAB
0
TABLE
2
APPID
5
9
100
AcDbSymbolTable
70
2
0
APPID
5
12
100
AcDbSymbolTableRecord
100
AcDbRegAppTableRecord
2
ACAD
70
0
0
ENDTAB
0
TABLE
2
DIMSTYLE
5
A
100
AcDbSymbolTable
70
1
0
ENDTAB
0
TABLE
2
BLOCK_RECORD
5
1
100
AcDbSymbolTable
70
1
0
BLOCK_RECORD
5
1F
100
AcDbSymbolTableRecord
100
AcDbBlockTableRecord
2
*MODEL_SPACE
0
BLOCK_RECORD
5
1B
100
AcDbSymbolTableRecord
100
AcDbBlockTableRecord
2
*PAPER_SPACE
0
ENDTAB
0
ENDSEC
0
SECTION
2
BLOCKS
0
BLOCK
5
20
100
AcDbEntity
100
AcDbBlockBegin
2
*MODEL_SPACE
0
ENDBLK
5
21
100
AcDbEntity
100
AcDbBlockEnd
0
BLOCK
5
1C
100
AcDbEntity
100
AcDbBlockBegin
2
*PAPER_SPACE
0
ENDBLK
5
1D
100
AcDbEntity
100
AcDbBlockEnd
0
ENDSEC
0
SECTION
2
ENTITIES
0
LWPOLYLINE
5
100
100
AcDbEntity
8
OUTER_PROFILES
100
AcDbPolyline
90
30
70
1
43
0.0
10
0
20
0
10
8.6377952755905518
20
0
10
8.6377952755905518
20
0.32166399062519824
10
8.8925301323574804
20
0.3216639906251979
10
8.8925301323574821
20
2.2941049355070882
10
8.6377952755905518
20
2.2941049355070886
10
8.6377952755905518
20
2.5626210280251374
10
8.1564956632420778
20
2.5626210280251374
10
8.1564956632420778
20
2.5882115792062397
10
8.3334746144971934
20
2.5882115792062397
10
8.3334746144971934
20
3.8323042605856248
10
8.1564956632420778
20
3.8323042605856248
10
8.1564956632420778
20
3.8578948117667271
10
8.6889763779527556
20
3.8578948117667271
10
8.6889763779527556
20
5.3972649251784848
10
8.625
20
5.3972649251784848
10
8.6249998392551923
20
5.6354539655023652
10
8.6249998392551923
20
5.6933384285685076
10
8.6249998392551923
20
5.9571179561275622
10
0
20
5.9571179561275622
10
3.4967654318902565e-16
20
5.6354539655023652
10
-0.25473485676692931
20
5.6354539655023652
10
-0.25473485676692931
20
2.5685248316440954
10
-0.057884463066142464
20
2.3716744379433083
10
6.9935308637805131e-16
20
2.3716744379433083
10
3.4967654318902565e-16
20
2.2941049355070886
10
-0.057884463066142991
20
2.2941049355070886
10
-0.25473485676693142
20
2.0972545418063007
10
-0.25473485676693047
20
0.32166399062519824
10
1.049029629567077e-15
20
0.32166399062519824
0
CIRCLE
5
101
100
AcDbEntity
8
INTERIOR_PROFILES
100
AcDbCircle
10
-6.2874014140583414
20
4.4326979229174723
30
0
40
0.059055118110237052
210
0
220
0
230
-1
0
CIRCLE
5
102
100
AcDbEntity
8
INTERIOR_PROFILES
100
AcDbCircle
10
-2.4685037762630651
20
4.6689183953584168
30
0
40
0.059055118110237052
210
0
220
0
230
-1
0
CIRCLE
5
103
100
AcDbEntity
8
INTERIOR_PROFILES
100
AcDbCircle
10
-0.18503920933393114
20
2.8578947733111733
30
0
40
0.059055118110236615
210
0
220
0
230
-1
0
CIRCLE
5
104
100
AcDbEntity
8
INTERIOR_PROFILES
100
AcDbCircle
10
-0.10342417434444665
20
5.1227489847300536
30
0
40
0.059055118110236594
210
0
220
0
230
-1
0
CIRCLE
5
105
100
AcDbEntity
8
INTERIOR_PROFILES
100
AcDbCircle
10
-4.3582675557906256
20
2.7397845370907006
30
0
40
0.059055118110237052
210
0
220
0
230
-1
0
CIRCLE
5
106
100
AcDbEntity
8
INTERIOR_PROFILES
100
AcDbCircle
10
-7.9212596817748775
20
2.7988396552009371
30
0
40
0.059055118110237052
210
0
220
0
230
-1
0
CIRCLE
5
107
100
AcDbEntity
8
INTERIOR_PROFILES
100
AcDbCircle
10
-7.6448012769651976
20
5.8203818397369584
30
0
40
0.049212598425196846
210
0
220
0
230
-1
0
CIRCLE
5
108
100
AcDbEntity
8
INTERIOR_PROFILES
100
AcDbCircle
10
-5.6092601503444666
20
5.818098215773662
30
0
40
0.049212598425196846
210
0
220
0
230
-1
0
CIRCLE
5
109
100
AcDbEntity
8
INTERIOR_PROFILES
100
AcDbCircle
10
-2.4654535075406963
20
5.8186673632318158
30
0
40
0.049212598425196846
210
0
220
0
230
-1
0
CIRCLE
5
110
100
AcDbEntity
8
INTERIOR_PROFILES
100
AcDbCircle
10
-0.52155031567593391
20
5.8199920307727204
30
0
40
0.049212598425196846
210
0
220
0
230
-1
0
CIRCLE
5
111
100
AcDbEntity
8
INTERIOR_PROFILES
100
AcDbCircle
10
-0.52406870197173505
20
0.13756786594445353
30
0
40
0.049212598425196846
210
0
220
0
230
-1
0
CIRCLE
5
112
100
AcDbEntity
8
INTERIOR_PROFILES
100
AcDbCircle
10
-2.1693085439846995
20
0.13779527559055138
30
0
40
0.049212598425196846
210
0
220
0
230
-1
0
CIRCLE
5
113
100
AcDbEntity
8
INTERIOR_PROFILES
100
AcDbCircle
10
-7.9081357405336759
20
0.13787933095462379
30
0
40
0.049212598425196846
210
0
220
0
230
-1
0
CIRCLE
5
114
100
AcDbEntity
8
INTERIOR_PROFILES
100
AcDbCircle
10
-5.5533574156874561
20
0.13779527559055138
30
0
40
0.049212598425196846
210
0
220
0
230
-1
0
CIRCLE
5
115
100
AcDbEntity
8
INTERIOR_PROFILES
100
AcDbCircle
10
-8.7941049355070877
20
2.052748200319646
30
0
40
0.049212598425196846
210
0
220
0
230
-1
0
CIRCLE
5
116
100
AcDbEntity
8
INTERIOR_PROFILES
100
AcDbCircle
10
-8.7941049355070859
20
1.4315293872989692
30
0
40
0.049212598425196846
210
0
220
0
230
-1
0
CIRCLE
5
117
100
AcDbEntity
8
INTERIOR_PROFILES
100
AcDbCircle
10
-8.7916727769100564
20
0.88078116421036523
30
0
40
0.049212598425196846
210
0
220
0
230
-1
0
LINE
5
118
100
AcDbEntity
8
BEND
100
AcDbLine
10
3.4967654318902565e-16
20
2.3230471670401593
30
8.2720357248153886e-15
11
8.6377952755905518
21
2.3230471670401593
31
8.2720357248153886e-15
0
LINE
5
119
100
AcDbEntity
8
BEND
100
AcDbLine
10
-0.028942231533071565
20
2.3716744379433083
30
7.9151258568053986e-15
11
-0.028942231533071565
21
5.6354539655023634
31
7.9132014184853325e-15
0
LINE
5
120
100
AcDbEntity
8
BEND
100
AcDbLine
10
-0.028942231533068869
20
0.32166399062519824
30
7.5945374223868377e-16
11
-0.028942231533069272
21
2.2941049355070886
31
8.0043146214363091e-15
0
LINE
5
121
100
AcDbEntity
8
BEND
100
AcDbLine
10
4.4151016759670766e-16
20
5.664396197035436
30
8.5998574840550998e-15
11
8.6249998392551923
21
5.664396197035436
31
8.5998574840550998e-15
0
LINE
5
122
100
AcDbEntity
8
BEND
100
AcDbLine
10
8.6667375071236226
20
0.32166399062519824
30
-1.9669305554381077e-16
11
8.6667375071236226
21
2.2941049355070886
31
6.6984912804648208e-15
0
LINE
5
123
100
AcDbEntity
8
BEND
100
AcDbLine
10
8.1982331703657003
20
3.8323042605856243
30
7.9005043976770481e-15
11
8.1982331703657003
21
2.5882115792062397
31
7.9005043976770481e-15
0
LINE
5
124
100
AcDbEntity
8
BEND
100
AcDbLine
10
8.6377952755905518
20
0.29272175909212683
30
5.8880141167495766e-16
11
0
21
0.29272175909212683
31
5.8880141167495766e-16
0
LINE
5
125
100
AcDbEntity
8
BEND_EXTENT
100
AcDbLine
10
8.6956797386566933
20
2.2941049355070886
30
6.8186925921860005e-15
11
8.6956797386566915
21
0.32166399062519824
31
-1.7483827159451283e-16
0
LWPOLYLINE
5
126
100
AcDbEntity
8
BEND_EXTENT
100
AcDbPolyline
90
4
70
1
43
0.0
10
8.6377952755905518
20
0.32166399062519824
10
8.6377952755905518
20
2.2941049355070886
10
3.4967654318902565e-16
20
2.2941049355070886
10
1.049029629567077e-15
20
0.32166399062519824
0
LINE
5
127
100
AcDbEntity
8
BEND_EXTENT
100
AcDbLine
10
-0.05788446306614297
20
2.2941049355070886
30
8.2173987649421031e-15
11
-0.057884463066142325
21
0.32166399062519824
31
8.7419135797256413e-16
0
LINE
5
128
100
AcDbEntity
8
BEND_EXTENT
100
AcDbLine
10
8.6377952755905518
20
2.3519893985732301
30
8.2173987649421031e-15
11
1.3987061727561026e-15
21
2.3519893985732301
31
8.2173987649421031e-15
0
LINE
5
129
100
AcDbEntity
8
BEND_EXTENT
100
AcDbLine
10
8.1692909388326278
20
2.5882115792062397
30
8.2173987649421031e-15
11
8.1692909388326278
21
3.8323042605856248
31
8.2173987649421031e-15
0
LINE
5
130
100
AcDbEntity
8
BEND_EXTENT
100
AcDbLine
10
8.6249998392551923
20
5.6354539655023652
30
8.2173987649421031e-15
11
0
21
5.6354539655023652
31
8.2173987649421031e-15
0
LINE
5
131
100
AcDbEntity
8
BEND_EXTENT
100
AcDbLine
10
0
20
5.6354539655023652
30
8.2173987649421031e-15
11
6.9935308637805131e-16
21
2.3716744379433079
31
8.2173987649421031e-15
0
LINE
5
132
100
AcDbEntity
8
BEND_EXTENT
100
AcDbLine
10
-0.057884463066142464
20
2.3716744379433083
30
7.5180456785640514e-15
11
-0.057884463066142464
21
5.6354539655023634
31
7.5180456785640514e-15
0
LINE
5
133
100
AcDbEntity
8
BEND_EXTENT
100
AcDbLine
10
8.6377952755905518
20
0.26377952755905576
30
5.2451481478353848e-16
11
0
21
0.26377952755905576
31
5.2451481478353848e-16
0
LINE
5
134
100
AcDbEntity
8
BEND_EXTENT
100
AcDbLine
10
8.2271754018987693
20
3.8323042605856243
30
8.2173987649421031e-15
11
8.2271754018987693
21
2.5882115792062397
31
8.2173987649421031e-15
0
LINE
5
135
100
AcDbEntity
8
BEND_EXTENT
100
AcDbLine
10
0
20
5.6933384285685076
30
8.9167518513201548e-15
11
8.6249998392551923
21
5.6933384285685076
31
8.9167518513201548e-15
0
ENDSEC
0
SECTION
2
OBJECTS
0
DICTIONARY
5
C
100
AcDbDictionary
3
ACAD_GROUP
350
D
3
ACAD_MLINESTYLE
350
17
0
DICTIONARY
5
D
100
AcDbDictionary
0
DICTIONARY
5
1A
330
C
100
AcDbDictionary
0
DICTIONARY
5
17
100
AcDbDictionary
0
ENDSEC
0
EOF
