0
SECTION
2
HEADER
9
$INSUNITS
70
1
9
$ACADVER
1
AC1014
9
$HANDSEED
5
FFFF
0
ENDSEC
0
SECTION
2
TABLES
0
TABLE
2
VPORT
5
8
100
AcDbSymbolTable
0
ENDTAB
0
TABLE
2
LTYPE
5
5
100
AcDbSymbolTable
0
LTYPE
5
14
100
AcDbSymbolTableRecord
100
AcDbLinetypeTableRecord
2
BYBLOCK
70
0
0
LTYPE
5
15
100
AcDbSymbolTableRecord
100
AcDbLinetypeTableRecord
2
BYLAYER
70
0
0
ENDTAB
0
TABLE
2
LAYER
5
2
100
AcDbSymbolTable
70
2
0
LAYER
5
50
100
AcDbSymbolTableRecord
100
AcDbLayerTableRecord
2
0
70
0
6
CONTINUOUS
0
ENDTAB
0
TABLE
2
STYLE
5
3
100
AcDbSymbolTable
70
1
0
STYLE
5
11
100
AcDbSymbolTableRecord
100
AcDbTextStyleTableRecord
2
STANDARD
70
0
0
ENDTAB
0
TABLE
2
VIEW
5
6
100
AcDbSymbolTable
70
0
0
ENDTAB
0
TABLE
2
UCS
5
7
100
AcDbSymbolTable
70
0
0
ENDTAB
0
TABLE
2
APPID
5
9
100
AcDbSymbolTable
70
2
0
APPID
5
12
100
AcDbSymbolTableRecord
100
AcDbRegAppTableRecord
2
ACAD
70
0
0
ENDTAB
0
TABLE
2
DIMSTYLE
5
A
100
AcDbSymbolTable
70
1
0
ENDTAB
0
TABLE
2
BLOCK_RECORD
5
1
100
AcDbSymbolTable
70
1
0
BLOCK_RECORD
5
1F
100
AcDbSymbolTableRecord
100
AcDbBlockTableRecord
2
*MODEL_SPACE
0
BLOCK_RECORD
5
1B
100
AcDbSymbolTableRecord
100
AcDbBlockTableRecord
2
*PAPER_SPACE
0
ENDTAB
0
ENDSEC
0
SECTION
2
BLOCKS
0
BLOCK
5
20
100
AcDbEntity
100
AcDbBlockBegin
2
*MODEL_SPACE
0
ENDBLK
5
21
100
AcDbEntity
100
AcDbBlockEnd
0
BLOCK
5
1C
100
AcDbEntity
100
AcDbBlockBegin
2
*PAPER_SPACE
0
ENDBLK
5
1D
100
AcDbEntity
100
AcDbBlockEnd
0
ENDSEC
0
SECTION
2
ENTITIES
0
LWPOLYLINE
5
100
100
AcDbEntity
8
OUTER_PROFILES
100
AcDbPolyline
90
34
70
1
43
0.0
10
-0.060225773154329199
20
6.1267821008614174
10
-0.1181102362204717
20
6.1267821008614165
10
-0.31496062992125912
20
5.9299317071606303
10
-0.31496062992125912
20
1.3846561166094502
10
-0.1181102362204717
20
1.1878057229086627
10
-0.060225773154329199
20
1.1878057229086627
10
0.057884463066143692
20
1.1878057229086614
10
0.057884463066144212
20
1.1299212598425192
10
-6.9935308637805131e-16
20
1.1299212598425192
10
-0.19685039370078669
20
0.93307086614173185
10
-0.19685039370078738
20
0
10
0
20
0
10
11.924404847530745
20
1.748382715945128e-16
10
12.572840491699271
20
-1.7483827159451283e-16
10
12.572840491699274
20
0.93307086614173118
10
12.375990097998489
20
1.1299212598425192
10
12.318105634932321
20
1.1299212598425186
10
12.318105634932321
20
1.2074907622787396
10
12.375990097998496
20
1.2074907622787396
10
12.572840491699282
20
1.4043411559795285
10
12.572840491699248
20
5.9102466677905499
10
12.375990097998459
20
6.107097061491336
10
12.318105634932321
20
6.107097061491336
10
12.318105634932319
20
6.1846665639275598
10
12.375990097998459
20
6.1846665639275606
10
12.572840491699246
20
6.3815169576283477
10
12.572840491699246
20
7.3145090836126005
10
11.924404847530742
20
7.3145090836126005
10
0.057884463066143518
20
7.3145090836126005
10
-0.19685039370078702
20
7.3145090836125988
10
-0.19685039370078702
20
6.3815169576283477
10
6.1193395058079484e-16
20
6.1846665639275606
10
0.057884463066143338
20
6.1846665639275598
10
0.057884463066143692
20
6.1267821008614174
0
CIRCLE
5
101
100
AcDbEntity
8
INTERIOR_PROFILES
100
AcDbCircle
10
-12.473831463820698
20
0.21288028604918283
30
0
40
0.049212598425196846
210
0
220
0
230
-1
0
CIRCLE
5
102
100
AcDbEntity
8
INTERIOR_PROFILES
100
AcDbCircle
10
-12.473464433243439
20
0.76959196264964158
30
0
40
0.049212598425196846
210
0
220
0
230
-1
0
CIRCLE
5
103
100
AcDbEntity
8
INTERIOR_PROFILES
100
AcDbCircle
10
0.21741913532598792
20
1.6388094513713185
30
0
40
0.049212598425196846
210
0
220
0
230
-1
0
CIRCLE
5
104
100
AcDbEntity
8
INTERIOR_PROFILES
100
AcDbCircle
10
0.21562384973624674
20
5.6834754072023443
30
0
40
0.049212598425196846
210
0
220
0
230
-1
0
CIRCLE
5
105
100
AcDbEntity
8
INTERIOR_PROFILES
100
AcDbCircle
10
0.098915181905970623
20
0.21275591242192268
30
0
40
0.049212598425196846
210
0
220
0
230
-1
0
CIRCLE
5
106
100
AcDbEntity
8
INTERIOR_PROFILES
100
AcDbCircle
10
0.097508404353013403
20
0.77065625159873419
30
0
40
0.049212598425196846
210
0
220
0
230
-1
0
CIRCLE
5
107
100
AcDbEntity
8
INTERIOR_PROFILES
100
AcDbCircle
10
-4.4511616732121473
20
2.200600998499211
30
0
40
0.049212598425196846
210
0
220
0
230
-1
0
CIRCLE
5
108
100
AcDbEntity
8
INTERIOR_PROFILES
100
AcDbCircle
10
-5.7315088278508055
20
5.2576875487265138
30
0
40
0.049212598425196846
210
0
220
0
230
-1
0
CIRCLE
5
109
100
AcDbEntity
8
INTERIOR_PROFILES
100
AcDbCircle
10
-9.1155576995535608
20
5.2576875487265138
30
0
40
0.049212598425196846
210
0
220
0
230
-1
0
CIRCLE
5
110
100
AcDbEntity
8
INTERIOR_PROFILES
100
AcDbCircle
10
-11.470336024399781
20
5.2577716040905864
30
0
40
0.049212598425196846
210
0
220
0
230
-1
0
CIRCLE
5
111
100
AcDbEntity
8
INTERIOR_PROFILES
100
AcDbCircle
10
-4.0862689858378412
20
5.2574601390804157
30
0
40
0.049212598425196846
210
0
220
0
230
-1
0
CIRCLE
5
112
100
AcDbEntity
8
INTERIOR_PROFILES
100
AcDbCircle
10
-6.692191970216113
20
2.199388757252549
30
0
40
0.049212598425196846
210
0
220
0
230
-1
0
CIRCLE
5
113
100
AcDbEntity
8
INTERIOR_PROFILES
100
AcDbCircle
10
-9.0682862089317737
20
2.2026906201690672
30
0
40
0.049212598425196846
210
0
220
0
230
-1
0
CIRCLE
5
114
100
AcDbEntity
8
INTERIOR_PROFILES
100
AcDbCircle
10
-11.432390129300202
20
2.200139019852104
30
0
40
0.049212598425196846
210
0
220
0
230
-1
0
CIRCLE
5
115
100
AcDbEntity
8
INTERIOR_PROFILES
100
AcDbCircle
10
-2.3679922592908857
20
2.2004481289779112
30
0
40
0.049212598425196846
210
0
220
0
230
-1
0
CIRCLE
5
116
100
AcDbEntity
8
INTERIOR_PROFILES
100
AcDbCircle
10
-6.1232237451685405
20
3.1848529670031502
30
0
40
0.098425196850393692
210
0
220
0
230
-1
0
CIRCLE
5
117
100
AcDbEntity
8
INTERIOR_PROFILES
100
AcDbCircle
10
-6.5956646900504312
20
3.1848529670031502
30
0
40
0.098425196850393692
210
0
220
0
230
-1
0
CIRCLE
5
118
100
AcDbEntity
8
INTERIOR_PROFILES
100
AcDbCircle
10
-6.3594442176094859
20
3.1848529670031502
30
0
40
0.098425196850393692
210
0
220
0
230
-1
0
CIRCLE
5
119
100
AcDbEntity
8
INTERIOR_PROFILES
100
AcDbCircle
10
-6.1232237451685405
20
3.4309159591291341
30
0
40
0.098425196850393692
210
0
220
0
230
-1
0
CIRCLE
5
120
100
AcDbEntity
8
INTERIOR_PROFILES
100
AcDbCircle
10
-6.8318851624913748
20
3.1848529670031502
30
0
40
0.098425196850393692
210
0
220
0
230
-1
0
CIRCLE
5
121
100
AcDbEntity
8
INTERIOR_PROFILES
100
AcDbCircle
10
-7.0681056349323201
20
3.1848529670031502
30
0
40
0.098425196850393692
210
0
220
0
230
-1
0
CIRCLE
5
122
100
AcDbEntity
8
INTERIOR_PROFILES
100
AcDbCircle
10
-5.887003272727596
20
3.4309159591291341
30
0
40
0.098425196850393692
210
0
220
0
230
-1
0
CIRCLE
5
123
100
AcDbEntity
8
INTERIOR_PROFILES
100
AcDbCircle
10
-5.6507828002866507
20
3.4309159591291341
30
0
40
0.098425196850393692
210
0
220
0
230
-1
0
CIRCLE
5
124
100
AcDbEntity
8
INTERIOR_PROFILES
100
AcDbCircle
10
-7.3043261073732646
20
3.1848529670031502
30
0
40
0.098425196850393692
210
0
220
0
230
-1
0
CIRCLE
5
125
100
AcDbEntity
8
INTERIOR_PROFILES
100
AcDbCircle
10
-7.5405465798142099
20
3.1848529670031502
30
0
40
0.098425196850393692
210
0
220
0
230
-1
0
CIRCLE
5
126
100
AcDbEntity
8
INTERIOR_PROFILES
100
AcDbCircle
10
-5.887003272727596
20
3.1848529670031502
30
0
40
0.098425196850393692
210
0
220
0
230
-1
0
CIRCLE
5
127
100
AcDbEntity
8
INTERIOR_PROFILES
100
AcDbCircle
10
-6.3594442176094859
20
3.4309159591291341
30
0
40
0.098425196850393692
210
0
220
0
230
-1
0
CIRCLE
5
128
100
AcDbEntity
8
INTERIOR_PROFILES
100
AcDbCircle
10
-6.8318851624913748
20
3.6769789512551183
30
0
40
0.098425196850393692
210
0
220
0
230
-1
0
CIRCLE
5
129
100
AcDbEntity
8
INTERIOR_PROFILES
100
AcDbCircle
10
-5.887003272727596
20
3.6769789512551183
30
0
40
0.098425196850393692
210
0
220
0
230
-1
0
CIRCLE
5
130
100
AcDbEntity
8
INTERIOR_PROFILES
100
AcDbCircle
10
-7.0681056349323201
20
3.6769789512551183
30
0
40
0.098425196850393692
210
0
220
0
230
-1
0
CIRCLE
5
131
100
AcDbEntity
8
INTERIOR_PROFILES
100
AcDbCircle
10
-5.6507828002866507
20
3.6769789512551183
30
0
40
0.098425196850393692
210
0
220
0
230
-1
0
CIRCLE
5
132
100
AcDbEntity
8
INTERIOR_PROFILES
100
AcDbCircle
10
-6.5956646900504312
20
3.4309159591291341
30
0
40
0.098425196850393692
210
0
220
0
230
-1
0
CIRCLE
5
133
100
AcDbEntity
8
INTERIOR_PROFILES
100
AcDbCircle
10
-6.8318851624913748
20
3.4309159591291341
30
0
40
0.098425196850393692
210
0
220
0
230
-1
0
CIRCLE
5
134
100
AcDbEntity
8
INTERIOR_PROFILES
100
AcDbCircle
10
-6.1232237451685405
20
3.6769789512551183
30
0
40
0.098425196850393692
210
0
220
0
230
-1
0
CIRCLE
5
135
100
AcDbEntity
8
INTERIOR_PROFILES
100
AcDbCircle
10
-6.5956646900504312
20
3.6769789512551183
30
0
40
0.098425196850393692
210
0
220
0
230
-1
0
CIRCLE
5
136
100
AcDbEntity
8
INTERIOR_PROFILES
100
AcDbCircle
10
-7.3043261073732646
20
3.4309159591291341
30
0
40
0.098425196850393692
210
0
220
0
230
-1
0
CIRCLE
5
137
100
AcDbEntity
8
INTERIOR_PROFILES
100
AcDbCircle
10
-7.0681056349323201
20
3.4309159591291341
30
0
40
0.098425196850393692
210
0
220
0
230
-1
0
CIRCLE
5
138
100
AcDbEntity
8
INTERIOR_PROFILES
100
AcDbCircle
10
-7.3043261073732646
20
3.6769789512551183
30
0
40
0.098425196850393692
210
0
220
0
230
-1
0
CIRCLE
5
139
100
AcDbEntity
8
INTERIOR_PROFILES
100
AcDbCircle
10
-7.5405465798142099
20
3.6769789512551183
30
0
40
0.098425196850393692
210
0
220
0
230
-1
0
CIRCLE
5
140
100
AcDbEntity
8
INTERIOR_PROFILES
100
AcDbCircle
10
-5.6507828002866507
20
3.9230419433811026
30
0
40
0.098425196850393692
210
0
220
0
230
-1
0
CIRCLE
5
141
100
AcDbEntity
8
INTERIOR_PROFILES
100
AcDbCircle
10
-7.5405465798142099
20
3.4309159591291341
30
0
40
0.098425196850393692
210
0
220
0
230
-1
0
CIRCLE
5
142
100
AcDbEntity
8
INTERIOR_PROFILES
100
AcDbCircle
10
-6.1232237451685405
20
3.9230419433811026
30
0
40
0.098425196850393692
210
0
220
0
230
-1
0
CIRCLE
5
143
100
AcDbEntity
8
INTERIOR_PROFILES
100
AcDbCircle
10
-6.3594442176094859
20
3.9230419433811026
30
0
40
0.098425196850393692
210
0
220
0
230
-1
0
CIRCLE
5
144
100
AcDbEntity
8
INTERIOR_PROFILES
100
AcDbCircle
10
-6.3594442176094859
20
3.6769789512551183
30
0
40
0.098425196850393692
210
0
220
0
230
-1
0
CIRCLE
5
145
100
AcDbEntity
8
INTERIOR_PROFILES
100
AcDbCircle
10
-6.5956646900504312
20
3.9230419433811026
30
0
40
0.098425196850393692
210
0
220
0
230
-1
0
CIRCLE
5
146
100
AcDbEntity
8
INTERIOR_PROFILES
100
AcDbCircle
10
-6.8318851624913748
20
3.9230419433811026
30
0
40
0.098425196850393692
210
0
220
0
230
-1
0
CIRCLE
5
147
100
AcDbEntity
8
INTERIOR_PROFILES
100
AcDbCircle
10
-7.0681056349323201
20
3.9230419433811026
30
0
40
0.098425196850393692
210
0
220
0
230
-1
0
CIRCLE
5
148
100
AcDbEntity
8
INTERIOR_PROFILES
100
AcDbCircle
10
-7.3043261073732646
20
3.9230419433811026
30
0
40
0.098425196850393692
210
0
220
0
230
-1
0
CIRCLE
5
149
100
AcDbEntity
8
INTERIOR_PROFILES
100
AcDbCircle
10
-7.5405465798142099
20
3.9230419433811026
30
0
40
0.098425196850393692
210
0
220
0
230
-1
0
CIRCLE
5
150
100
AcDbEntity
8
INTERIOR_PROFILES
100
AcDbCircle
10
-7.5405465798142099
20
2.938789974877166
30
0
40
0.098425196850393692
210
0
220
0
230
-1
0
CIRCLE
5
151
100
AcDbEntity
8
INTERIOR_PROFILES
100
AcDbCircle
10
-7.3043261073732646
20
2.938789974877166
30
0
40
0.098425196850393692
210
0
220
0
230
-1
0
CIRCLE
5
152
100
AcDbEntity
8
INTERIOR_PROFILES
100
AcDbCircle
10
-7.0681056349323201
20
2.938789974877166
30
0
40
0.098425196850393692
210
0
220
0
230
-1
0
CIRCLE
5
153
100
AcDbEntity
8
INTERIOR_PROFILES
100
AcDbCircle
10
-6.8318851624913748
20
2.938789974877166
30
0
40
0.098425196850393692
210
0
220
0
230
-1
0
CIRCLE
5
154
100
AcDbEntity
8
INTERIOR_PROFILES
100
AcDbCircle
10
-6.5956646900504312
20
2.938789974877166
30
0
40
0.098425196850393692
210
0
220
0
230
-1
0
CIRCLE
5
155
100
AcDbEntity
8
INTERIOR_PROFILES
100
AcDbCircle
10
-6.3594442176094859
20
2.938789974877166
30
0
40
0.098425196850393692
210
0
220
0
230
-1
0
CIRCLE
5
156
100
AcDbEntity
8
INTERIOR_PROFILES
100
AcDbCircle
10
-6.1232237451685405
20
2.938789974877166
30
0
40
0.098425196850393692
210
0
220
0
230
-1
0
CIRCLE
5
157
100
AcDbEntity
8
INTERIOR_PROFILES
100
AcDbCircle
10
-5.887003272727596
20
2.938789974877166
30
0
40
0.098425196850393692
210
0
220
0
230
-1
0
CIRCLE
5
158
100
AcDbEntity
8
INTERIOR_PROFILES
100
AcDbCircle
10
-5.6507828002866507
20
2.938789974877166
30
0
40
0.098425196850393692
210
0
220
0
230
-1
0
CIRCLE
5
159
100
AcDbEntity
8
INTERIOR_PROFILES
100
AcDbCircle
10
-5.887003272727596
20
3.9230419433811026
30
0
40
0.098425196850393692
210
0
220
0
230
-1
0
CIRCLE
5
160
100
AcDbEntity
8
INTERIOR_PROFILES
100
AcDbCircle
10
-7.5405465798142099
20
2.6927269827511817
30
0
40
0.098425196850393692
210
0
220
0
230
-1
0
CIRCLE
5
161
100
AcDbEntity
8
INTERIOR_PROFILES
100
AcDbCircle
10
-7.3043261073732646
20
2.6927269827511817
30
0
40
0.098425196850393692
210
0
220
0
230
-1
0
CIRCLE
5
162
100
AcDbEntity
8
INTERIOR_PROFILES
100
AcDbCircle
10
-7.0681056349323201
20
2.6927269827511817
30
0
40
0.098425196850393692
210
0
220
0
230
-1
0
CIRCLE
5
163
100
AcDbEntity
8
INTERIOR_PROFILES
100
AcDbCircle
10
-6.8318851624913748
20
2.6927269827511817
30
0
40
0.098425196850393692
210
0
220
0
230
-1
0
CIRCLE
5
164
100
AcDbEntity
8
INTERIOR_PROFILES
100
AcDbCircle
10
-6.5956646900504312
20
2.6927269827511817
30
0
40
0.098425196850393692
210
0
220
0
230
-1
0
CIRCLE
5
165
100
AcDbEntity
8
INTERIOR_PROFILES
100
AcDbCircle
10
-6.3594442176094859
20
2.6927269827511817
30
0
40
0.098425196850393692
210
0
220
0
230
-1
0
CIRCLE
5
166
100
AcDbEntity
8
INTERIOR_PROFILES
100
AcDbCircle
10
-6.1232237451685405
20
2.6927269827511817
30
0
40
0.098425196850393692
210
0
220
0
230
-1
0
CIRCLE
5
167
100
AcDbEntity
8
INTERIOR_PROFILES
100
AcDbCircle
10
-5.887003272727596
20
2.6927269827511817
30
0
40
0.098425196850393692
210
0
220
0
230
-1
0
CIRCLE
5
168
100
AcDbEntity
8
INTERIOR_PROFILES
100
AcDbCircle
10
-5.6507828002866507
20
2.6927269827511817
30
0
40
0.098425196850393692
210
0
220
0
230
-1
0
CIRCLE
5
169
100
AcDbEntity
8
INTERIOR_PROFILES
100
AcDbCircle
10
-7.5405465798142099
20
2.4466639906251975
30
0
40
0.098425196850393692
210
0
220
0
230
-1
0
CIRCLE
5
170
100
AcDbEntity
8
INTERIOR_PROFILES
100
AcDbCircle
10
-7.3043261073732646
20
2.4466639906251975
30
0
40
0.098425196850393692
210
0
220
0
230
-1
0
CIRCLE
5
171
100
AcDbEntity
8
INTERIOR_PROFILES
100
AcDbCircle
10
-7.0681056349323201
20
2.4466639906251975
30
0
40
0.098425196850393692
210
0
220
0
230
-1
0
CIRCLE
5
172
100
AcDbEntity
8
INTERIOR_PROFILES
100
AcDbCircle
10
-6.8318851624913748
20
2.4466639906251975
30
0
40
0.098425196850393692
210
0
220
0
230
-1
0
CIRCLE
5
173
100
AcDbEntity
8
INTERIOR_PROFILES
100
AcDbCircle
10
-6.5956646900504312
20
2.4466639906251975
30
0
40
0.098425196850393692
210
0
220
0
230
-1
0
CIRCLE
5
174
100
AcDbEntity
8
INTERIOR_PROFILES
100
AcDbCircle
10
-6.3594442176094859
20
2.4466639906251975
30
0
40
0.098425196850393692
210
0
220
0
230
-1
0
CIRCLE
5
175
100
AcDbEntity
8
INTERIOR_PROFILES
100
AcDbCircle
10
-6.1232237451685405
20
2.4466639906251975
30
0
40
0.098425196850393692
210
0
220
0
230
-1
0
CIRCLE
5
176
100
AcDbEntity
8
INTERIOR_PROFILES
100
AcDbCircle
10
-5.887003272727596
20
2.4466639906251975
30
0
40
0.098425196850393692
210
0
220
0
230
-1
0
CIRCLE
5
177
100
AcDbEntity
8
INTERIOR_PROFILES
100
AcDbCircle
10
-5.6507828002866507
20
2.4466639906251975
30
0
40
0.098425196850393692
210
0
220
0
230
-1
0
CIRCLE
5
178
100
AcDbEntity
8
INTERIOR_PROFILES
100
AcDbCircle
10
-5.6507828002866507
20
3.1848529670031502
30
0
40
0.098425196850393692
210
0
220
0
230
-1
0
CIRCLE
5
179
100
AcDbEntity
8
INTERIOR_PROFILES
100
AcDbCircle
10
-12.47359825244277
20
5.6829150681476674
30
0
40
0.049212598425196846
210
0
220
0
230
-1
0
CIRCLE
5
180
100
AcDbEntity
8
INTERIOR_PROFILES
100
AcDbCircle
10
-12.475042421752141
20
1.6384148815618109
30
0
40
0.049212598425196846
210
0
220
0
230
-1
0
CIRCLE
5
181
100
AcDbEntity
8
INTERIOR_PROFILES
100
AcDbCircle
10
-12.473020619382003
20
3.6572375729320181
30
0
40
0.049212598425196846
210
0
220
0
230
-1
0
CIRCLE
5
182
100
AcDbEntity
8
INTERIOR_PROFILES
100
AcDbCircle
10
-12.474415294848884
20
2.1802624350300768
30
0
40
0.049212598425196846
210
0
220
0
230
-1
0
CIRCLE
5
183
100
AcDbEntity
8
INTERIOR_PROFILES
100
AcDbCircle
10
-12.475736921938253
20
7.1357191747029027
30
0
40
0.049212598425196846
210
0
220
0
230
-1
0
CIRCLE
5
184
100
AcDbEntity
8
INTERIOR_PROFILES
100
AcDbCircle
10
-12.472298493003459
20
6.5246544608795611
30
0
40
0.049212598425196846
210
0
220
0
230
-1
0
CIRCLE
5
185
100
AcDbEntity
8
INTERIOR_PROFILES
100
AcDbCircle
10
0.096673174227719261
20
6.5255154086964708
30
0
40
0.049212598425196846
210
0
220
0
230
-1
0
CIRCLE
5
186
100
AcDbEntity
8
INTERIOR_PROFILES
100
AcDbCircle
10
0.09972479278688319
20
7.1360724537139868
30
0
40
0.049212598425196846
210
0
220
0
230
-1
0
LINE
5
187
100
AcDbEntity
8
BEND
100
AcDbLine
10
-0.089168004687397412
20
1.1878057229086627
30
3.7888888266400167e-15
11
-0.089168004687397412
21
6.1267821008614174
31
3.7888888266400167e-15
0
LINE
5
188
100
AcDbEntity
8
BEND
100
AcDbLine
10
12.347047866465386
20
6.1846665639275598
30
-6.7742698351805449e-14
11
12.347047866465386
21
7.3145090836126005
31
-6.868791775761329e-14
0
LINE
5
189
100
AcDbEntity
8
BEND
100
AcDbLine
10
12.318105634932321
20
1.15886349137559
30
-6.7422187322129933e-14
11
0.057884463066143518
21
1.15886349137559
31
3.5441690669425869e-15
0
LINE
5
190
100
AcDbEntity
8
BEND
100
AcDbLine
10
0.028942231533072408
20
0
30
3.7153132713833415e-16
11
0.028942231533072408
21
1.1299212598425192
31
4.6222868052799275e-15
0
LINE
5
191
100
AcDbEntity
8
BEND
100
AcDbLine
10
12.347047866465417
20
1.207490762278739
30
-6.6770160466061091e-14
11
12.347047866465385
21
6.107097061491336
31
-6.8758945805448475e-14
0
LINE
5
192
100
AcDbEntity
8
BEND
100
AcDbLine
10
12.318105634932319
20
6.155724332394489
30
-6.8017730184748727e-14
11
0.057884463066143518
21
6.155724332394489
31
2.9486262043237776e-15
0
LINE
5
193
100
AcDbEntity
8
BEND
100
AcDbLine
10
12.34704786646542
20
-1.7483827159451283e-16
30
-7.1835006646314853e-14
11
12.347047866465422
21
1.1299212598425454
31
-6.7272820496895555e-14
0
LINE
5
194
100
AcDbEntity
8
BEND
100
AcDbLine
10
0.028942231533072304
20
6.1846665639275598
30
2.7081461761381038e-15
11
0.028942231533072304
21
7.3145090836126005
31
1.7683904663175956e-15
0
LINE
5
195
100
AcDbEntity
8
BEND_EXTENT
100
AcDbLine
10
-0.1181102362204717
20
6.1267821008614165
30
4.3552661757453491e-15
11
-0.1181102362204717
21
1.1878057229086627
31
4.3552661757453491e-15
0
LINE
5
196
100
AcDbEntity
8
BEND_EXTENT
100
AcDbLine
10
0
20
0
30
0
11
-6.9935308637805131e-16
21
1.1299212598425192
31
4.8954716046463627e-15
0
LINE
5
197
100
AcDbEntity
8
BEND_EXTENT
100
AcDbLine
10
0.057884463066144212
20
1.1299212598425192
30
2.9868720762350678e-15
11
12.318105634932321
21
1.1299212598425186
31
-6.7979484312837442e-14
0
LINE
5
198
100
AcDbEntity
8
BEND_EXTENT
100
AcDbLine
10
12.318105634932321
20
1.1299212598425186
30
-6.7979484312837442e-14
11
12.318105634932344
21
-1.7483827159451283e-16
31
-7.2175602831105894e-14
0
LINE
5
199
100
AcDbEntity
8
BEND_EXTENT
100
AcDbLine
10
0.057884463066144212
20
1.1299212598425192
30
2.9868720762350678e-15
11
0.057884463066144393
21
1.7483827159451283e-16
31
-1.2092464420332404e-15
0
LINE
5
200
100
AcDbEntity
8
BEND_EXTENT
100
AcDbLine
10
12.318105634932321
20
1.1878057229086614
30
-6.7979484312837442e-14
11
0.057884463066143518
21
1.1878057229086614
31
2.9868720762350674e-15
0
LINE
5
201
100
AcDbEntity
8
BEND_EXTENT
100
AcDbLine
10
0.057884463066143692
20
6.1267821008614174
30
3.0305816441336995e-15
11
12.318105634932321
21
6.1267821008614174
31
-6.7979484312837442e-14
0
LINE
5
202
100
AcDbEntity
8
BEND_EXTENT
100
AcDbLine
10
12.318105634932319
20
6.1846665639275598
30
-6.8241741720229189e-14
11
0.057884463066143518
21
6.1846665639275598
31
2.899452940437821e-15
0
LINE
5
203
100
AcDbEntity
8
BEND_EXTENT
100
AcDbLine
10
0.057884463066143692
20
7.3145090836126005
30
1.9378424466679942e-15
11
0.057884463066143518
21
6.1846665639275598
31
2.899452940437821e-15
0
LINE
5
204
100
AcDbEntity
8
BEND_EXTENT
100
AcDbLine
10
12.318105634932316
20
7.3145090836126005
30
-6.9028513942404495e-14
11
12.318105634932319
21
6.1846665639275598
31
-6.8241741720229189e-14
0
LINE
5
205
100
AcDbEntity
8
BEND_EXTENT
100
AcDbLine
10
12.318105634932321
20
6.107097061491336
30
-6.7979484312837442e-14
11
12.318105634932321
21
1.2074907622787396
31
-6.7979484312837442e-14
0
LINE
5
206
100
AcDbEntity
8
BEND_EXTENT
100
AcDbLine
10
-0.060225773154329199
20
1.1878057229086627
30
3.6705345484956581e-15
11
-0.060225773154329199
21
6.1267821008614174
31
3.6705345484956581e-15
0
LINE
5
207
100
AcDbEntity
8
BEND_EXTENT
100
AcDbLine
10
12.375990097998496
20
1.2074907622787396
30
-4.733394680555675e-14
11
12.375990097998459
21
6.107097061491336
31
-7.2510657915166372e-14
0
LINE
5
208
100
AcDbEntity
8
BEND_EXTENT
100
AcDbLine
10
12.375990097998486
20
0
30
-4.5935240632800606e-14
11
12.375990097998489
21
1.1299212598425192
31
-4.0340415941776198e-14
0
LINE
5
209
100
AcDbEntity
8
BEND_EXTENT
100
AcDbLine
10
12.375990097998459
20
6.1846665639275606
30
-6.8314539396898071e-14
11
12.375990097998459
21
7.3145090836126005
31
-6.6915833224141983e-14
0
LINE
5
210
100
AcDbEntity
8
BEND_EXTENT
100
AcDbLine
10
6.1193395058079484e-16
20
6.1846665639275606
30
2.4477358023231762e-15
11
6.1193395058079484e-16
21
7.3145090836126005
31
1.3987061727560993e-15
0
ENDSEC
0
SECTION
2
OBJECTS
0
DICTIONARY
5
C
100
AcDbDictionary
3
ACAD_GROUP
350
D
3
ACAD_MLINESTYLE
350
17
0
DICTIONARY
5
D
100
AcDbDictionary
0
DICTIONARY
5
1A
330
C
100
AcDbDictionary
0
DICTIONARY
5
17
100
AcDbDictionary
0
ENDSEC
0
EOF
