0
SECTION
2
HEADER
9
$INSUNITS
70
1
9
$ACADVER
1
AC1014
9
$HANDSEED
5
FFFF
0
ENDSEC
0
SECTION
2
TABLES
0
TABLE
2
VPORT
5
8
100
AcDbSymbolTable
0
ENDTAB
0
TABLE
2
LTYPE
5
5
100
AcDbSymbolTable
0
LTYPE
5
14
100
AcDbSymbolTableRecord
100
AcDbLinetypeTableRecord
2
BYBLOCK
70
0
0
LTYPE
5
15
100
AcDbSymbolTableRecord
100
AcDbLinetypeTableRecord
2
BYLAYER
70
0
0
ENDTAB
0
TABLE
2
LAYER
5
2
100
AcDbSymbolTable
70
2
0
LAYER
5
50
100
AcDbSymbolTableRecord
100
AcDbLayerTableRecord
2
0
70
0
6
CONTINUOUS
0
ENDTAB
0
TABLE
2
STYLE
5
3
100
AcDbSymbolTable
70
1
0
STYLE
5
11
100
AcDbSymbolTableRecord
100
AcDbTextStyleTableRecord
2
STANDARD
70
0
0
ENDTAB
0
TABLE
2
VIEW
5
6
100
AcDbSymbolTable
70
0
0
ENDTAB
0
TABLE
2
UCS
5
7
100
AcDbSymbolTable
70
0
0
ENDTAB
0
TABLE
2
APPID
5
9
100
AcDbSymbolTable
70
2
0
APPID
5
12
100
AcDbSymbolTableRecord
100
AcDbRegAppTableRecord
2
ACAD
70
0
0
ENDTAB
0
TABLE
2
DIMSTYLE
5
A
100
AcDbSymbolTable
70
1
0
ENDTAB
0
TABLE
2
BLOCK_RECORD
5
1
100
AcDbSymbolTable
70
1
0
BLOCK_RECORD
5
1F
100
AcDbSymbolTableRecord
100
AcDbBlockTableRecord
2
*MODEL_SPACE
0
BLOCK_RECORD
5
1B
100
AcDbSymbolTableRecord
100
AcDbBlockTableRecord
2
*PAPER_SPACE
0
ENDTAB
0
ENDSEC
0
SECTION
2
BLOCKS
0
BLOCK
5
20
100
AcDbEntity
100
AcDbBlockBegin
2
*MODEL_SPACE
0
ENDBLK
5
21
100
AcDbEntity
100
AcDbBlockEnd
0
BLOCK
5
1C
100
AcDbEntity
100
AcDbBlockBegin
2
*PAPER_SPACE
0
ENDBLK
5
1D
100
AcDbEntity
100
AcDbBlockEnd
0
ENDSEC
0
SECTION
2
ENTITIES
0
LWPOLYLINE
5
100
100
AcDbEntity
8
OUTER_PROFILES
100
AcDbPolyline
90
16
70
1
43
0.0
10
0
20
0
10
-3.230367541058029e-17
20
0.26377952755905648
10
-4.3709567898628207e-17
20
0.3216639906251979
10
-0.26260887251496157
20
0.3216639906251979
10
-0.26260887251496229
20
5.9653647780267738
10
-6.3378873453010899e-15
20
5.9653647780267756
10
-7.6174251081277224e-16
20
6.2200996347937032
10
10.070866141732278
20
6.2200996347937005
10
10.267716535433069
20
6.0232492410929144
10
10.267716535433069
20
5.9653647780267764
10
10.325600998499212
20
5.9653647780267764
10
10.522451392199999
20
5.7685143843259876
10
10.522451392199999
20
0.32166399062519929
10
10.325600998499212
20
0.32166399062520068
10
10.267716535433069
20
0.32166399062519929
10
10.267716535433069
20
3.4967654318902565e-15
0
CIRCLE
5
101
100
AcDbEntity
8
INTERIOR_PROFILES
100
AcDbCircle
10
-5.5078034284957376
20
0.13900751683721571
30
0
40
0.049212598425196846
210
0
220
0
230
-1
0
CIRCLE
5
102
100
AcDbEntity
8
INTERIOR_PROFILES
100
AcDbCircle
10
-3.1317091897800764
20
0.1357056539206975
30
0
40
0.049212598425196846
210
0
220
0
230
-1
0
CIRCLE
5
103
100
AcDbEntity
8
INTERIOR_PROFILES
100
AcDbCircle
10
-9.8320031394209657
20
0.13794814511185366
30
0
40
0.049212598425196846
210
0
220
0
230
-1
0
CIRCLE
5
104
100
AcDbEntity
8
INTERIOR_PROFILES
100
AcDbCircle
10
-0.76760526941164808
20
0.13825725423766072
30
0
40
0.049212598425196846
210
0
220
0
230
-1
0
CIRCLE
5
105
100
AcDbEntity
8
INTERIOR_PROFILES
100
AcDbCircle
10
-9.942806159162453
20
2.9008866214447817
30
0
40
0.059055118110237052
210
0
220
0
230
-1
0
CIRCLE
5
106
100
AcDbEntity
8
INTERIOR_PROFILES
100
AcDbCircle
10
-9.9387632333888494
20
5.4231620402668845
30
0
40
0.059055118110237052
210
0
220
0
230
-1
0
CIRCLE
5
107
100
AcDbEntity
8
INTERIOR_PROFILES
100
AcDbCircle
10
-1.208661417322838
20
5.6130026349016511
30
0
40
0.059055118110236358
210
0
220
0
230
-1
0
CIRCLE
5
108
100
AcDbEntity
8
INTERIOR_PROFILES
100
AcDbCircle
10
-4.4448818897637841
20
1.8098530286024386
30
0
40
0.059055118110237052
210
0
220
0
230
-1
0
CIRCLE
5
109
100
AcDbEntity
8
INTERIOR_PROFILES
100
AcDbCircle
10
-1.1968503937007908
20
2.9437112963189738
30
0
40
0.059055118110237052
210
0
220
0
230
-1
0
CIRCLE
5
110
100
AcDbEntity
8
INTERIOR_PROFILES
100
AcDbCircle
10
-0.99299383788054707
20
2.1670615243386369
30
0
40
0.049212598425196846
210
0
220
0
230
-1
0
CIRCLE
5
111
100
AcDbEntity
8
INTERIOR_PROFILES
100
AcDbCircle
10
-3.0285349645012776
20
2.1693451483019337
30
0
40
0.049212598425196846
210
0
220
0
230
-1
0
CIRCLE
5
112
100
AcDbEntity
8
INTERIOR_PROFILES
100
AcDbCircle
10
-6.1723416073050492
20
2.1687760008437809
30
0
40
0.049212598425196846
210
0
220
0
230
-1
0
CIRCLE
5
113
100
AcDbEntity
8
INTERIOR_PROFILES
100
AcDbCircle
10
-8.1162447991698095
20
2.1674513333028758
30
0
40
0.049212598425196846
210
0
220
0
230
-1
0
CIRCLE
5
114
100
AcDbEntity
8
INTERIOR_PROFILES
100
AcDbCircle
10
0.16468148716020964
20
4.2532390116694598
30
0
40
0.049212598425196846
210
0
220
0
230
-1
0
CIRCLE
5
115
100
AcDbEntity
8
INTERIOR_PROFILES
100
AcDbCircle
10
0.16017437940713294
20
5.6646642608165472
30
0
40
0.049212598425196846
210
0
220
0
230
-1
0
CIRCLE
5
116
100
AcDbEntity
8
INTERIOR_PROFILES
100
AcDbCircle
10
-7.7488337254997024
20
0.13779527559055382
30
0
40
0.049212598425196846
210
0
220
0
230
-1
0
CIRCLE
5
117
100
AcDbEntity
8
INTERIOR_PROFILES
100
AcDbCircle
10
0.15630965991648088
20
2.8369053983123416
30
0
40
0.049212598425196846
210
0
220
0
230
-1
0
CIRCLE
5
118
100
AcDbEntity
8
INTERIOR_PROFILES
100
AcDbCircle
10
0.16353015156551057
20
0.39449863629448939
30
0
40
0.049212598425196846
210
0
220
0
230
-1
0
LINE
5
119
100
AcDbEntity
8
BEND
100
AcDbLine
10
-0.028942231533071218
20
0.3216639906251979
30
-1.3222144289335027e-15
11
-0.028942231533071905
21
5.9653647780267756
31
-1.3222144289335027e-15
0
LINE
5
120
100
AcDbEntity
8
BEND
100
AcDbLine
10
10.267716535433069
20
0.29272175909212961
30
3.1506668487400695e-16
11
0
21
0.29272175909212822
31
-3.8609473270928259e-16
0
LINE
5
121
100
AcDbEntity
8
BEND
100
AcDbLine
10
10.296658766966141
20
0.32166399062519929
30
6.0100655860612686e-16
11
10.296658766966141
21
5.9653647780267764
31
6.0100655860612686e-16
0
LINE
5
122
100
AcDbEntity
8
BEND
100
AcDbLine
10
-6.3289155802608103e-15
20
5.9943070095598445
30
-2.6772110337909613e-16
11
10.267716535433069
21
5.9943070095598445
31
4.2616828701162439e-16
0
LWPOLYLINE
5
123
100
AcDbEntity
8
BEND_EXTENT
100
AcDbPolyline
90
4
70
1
43
0.0
10
-3.9392477652010965e-17
20
0.3216639906251979
10
-6.3253711791400945e-15
20
5.9653647780267756
10
10.267716535433069
20
5.9653647780267764
10
10.267716535433069
20
0.32166399062519929
0
LINE
5
124
100
AcDbEntity
8
BEND_EXTENT
100
AcDbLine
10
-0.057884463066142852
20
5.9653647780267738
30
2.141768827032782e-15
11
-0.057884463066142158
21
0.3216639906251979
31
7.4306265427667954e-16
0
LINE
5
125
100
AcDbEntity
8
BEND_EXTENT
100
AcDbLine
10
10.267716535433069
20
6.0232492410929144
30
-6.5564351847942367e-16
11
-6.9935308637805131e-15
21
6.0232492410929162
31
4.3709567898628287e-17
0
LINE
5
126
100
AcDbEntity
8
BEND_EXTENT
100
AcDbLine
10
10.325600998499212
20
0.32166399062520068
30
1.3549966048574737e-15
11
10.325600998499212
21
5.9653647780267764
31
1.3549966048574737e-15
0
LINE
5
127
100
AcDbEntity
8
BEND_EXTENT
100
AcDbLine
10
10.267716535433069
20
0.26377952755905787
30
6.9935308637805071e-16
11
0
21
0.26377952755905648
31
-5.2451481478353848e-16
0
ENDSEC
0
SECTION
2
OBJECTS
0
DICTIONARY
5
C
100
AcDbDictionary
3
ACAD_GROUP
350
D
3
ACAD_MLINESTYLE
350
17
0
DICTIONARY
5
D
100
AcDbDictionary
0
DICTIONARY
5
1A
330
C
100
AcDbDictionary
0
DICTIONARY
5
17
100
AcDbDictionary
0
ENDSEC
0
EOF
